<svg width="59px" height="66px" viewBox="0 0 59 66" version="1.1" xmlns="http://www.w3.org/2000/svg" xmlns:xlink="http://www.w3.org/1999/xlink">
    <g stroke="none" stroke-width="1" fill="none" fill-rule="evenodd">
        <g transform="translate(-916.000000, -1664.000000)" fill-rule="nonzero" stroke="#FFFFFF" stroke-width="2">
            <g transform="translate(0.000000, 1426.000000)">
                <g transform="translate(834.000000, 175.000000)">
                    <g transform="translate(28.623377, 62.000000)">
                        <g transform="translate(45.376623, 0.000000)">
                            <path d="M36.9544259,55.1648072 C36.6281169,55.0008536 36.2601515,54.9723399 35.8991288,55.0222388 C33.2747715,55.4214302 30.6781852,56.0416024 28.4773354,56.6475178 C26.6444509,57.1607637 25.0476198,57.6668813 23.9159525,58.0446874 C23.3466475,58.2371546 22.8953691,58.3939798 22.5829456,58.5080344 C22.4232625,58.5650618 22.3052359,58.6078323 22.221923,58.6363459 L22.1316673,58.671988 C21.4721066,58.9072257 21,59.5416548 21,60.2972669 C21,61.0528791 21.4721066,61.6873081 22.1316673,61.9154174 L22.221923,61.9510595 C22.3052359,61.9795732 22.4302053,62.0294721 22.5829456,62.079371 C22.8953691,62.1934257 23.3466475,62.3502508 23.9159525,62.5427181 C25.0476198,62.9276526 26.6375082,63.4337701 28.4773354,63.9398877 C32.1292187,64.9521228 36.8849984,66 40.9951029,66 L45.6675697,66 C45.9522222,66 46.1049626,65.6364508 45.9175085,65.4083414 L38.8081385,56.6475178 C38.2943755,56.0130887 37.6625858,55.5140996 36.9544259,55.1648072 Z M52.6856557,66 L54.0303754,66 L57.6611187,66 C57.951295,66 58.1069994,65.649375 57.9159077,65.429375 L50.6685761,56.98 C49.5928003,55.721875 48.0003691,55 46.3159307,55 L44.971211,55 L41.5740243,55 C41.4961721,55 41.4112425,55 41.3333903,55 C41.0432139,55 40.894587,55.350625 41.0856787,55.570625 L48.3330103,64.02 C49.4087861,65.278125 51.0012173,66 52.6856557,66 Z M52.0831352,55.5709819 L59.2479766,64.025641 C60.2695262,65.2295184 61.7598692,65.9449656 63.348169,66 C64.8245182,65.9243277 66,64.7204503 66,63.2551595 L66,57.7517198 C66,56.2313946 64.7475521,55 63.2012338,55 L52.3350241,55 C52.0481506,55 51.8942185,55.3508443 52.0831352,55.5709819 Z"></path>
                            <g transform="translate(25.676998, 25.355979) scale(-1, 1) rotate(-18.000000) translate(-25.676998, -25.355979) translate(5.176998, 5.355979)">
                                <path d="M27.35188,2.27482646 L19.2246627,10.2137624 L18.4719943,9.47925455 C17.4711055,8.50251538 15.845662,8.50251538 14.8447732,9.47925455 C13.8438843,10.4559937 13.8438843,12.0422181 14.8447732,13.0189573 L27.6561502,25.5212186 C28.657039,26.4979578 30.2824824,26.4979578 31.2833713,25.5212186 C32.2842601,24.5444795 32.2842601,22.958255 31.2833713,21.9815159 L30.5307029,21.247008 L38.6579201,13.3080721 C41.7806933,10.2606459 41.7806933,5.32225266 38.6579201,2.28264037 C35.535147,-0.756971914 30.4746531,-0.764785827 27.3598871,2.28264037 L27.35188,2.27482646 Z M4.43552937,25.2555456 C3.23446277,26.4276326 2.56186548,28.0216709 2.56186548,29.6782205 L2.56186548,32.9913198 L0.431974058,36.1090712 C-0.248630344,37.1014382 -0.112509464,38.4219895 0.752258483,39.2658922 C1.61702643,40.1097948 2.97022812,40.2426313 3.98713117,39.5784487 L7.18196831,37.4999478 L10.5769832,37.4999478 C12.2744907,37.4999478 13.9079412,36.843579 15.1090078,35.671492 L24.7735903,26.2400986 L21.1463692,22.7003959 L11.4817867,32.1317893 C11.2415734,32.3662067 10.9132819,32.4990432 10.5769832,32.4990432 L7.68641628,32.4990432 L7.68641628,29.6782205 C7.68641628,29.3500362 7.82253716,29.0296657 8.06275048,28.7952483 L17.727333,19.3638549 L14.1001119,15.8241522 L4.43552937,25.2555456 Z" id="Shape"></path>
                            </g>
                        </g>
                    </g>
                </g>
            </g>
        </g>
    </g>
</svg>