<svg width="24px" height="24px" viewBox="0 0 24 24" version="1.1" xmlns="http://www.w3.org/2000/svg" xmlns:xlink="http://www.w3.org/1999/xlink">
    <g id="Home" stroke="none" stroke-width="1" fill="none" fill-rule="evenodd">
        <g id="Desktop-HD" transform="translate(-704.000000, -4108.000000)" fill="#181818" fill-rule="nonzero">
            <g id="Footer" transform="translate(0.000000, 3818.000000)">
                <g id="square-instagram" transform="translate(704.000000, 290.000000)">
                    <path d="M12,9.1425 C10.4219859,9.14309168 9.1431771,10.4226999 9.14357152,12.000714 C9.14396594,13.5787281 10.4234143,14.8576969 12.0014284,14.8574998 C13.5794426,14.8573026 14.8585713,13.5780142 14.8585714,12 C14.857389,10.421918 13.5780823,9.14309082 12,9.1425 Z M18.6808929,6.94607143 C18.3868491,6.20089227 17.7969649,5.61100809 17.0517857,5.31696429 C15.9267857,4.87285714 13.2482143,4.9725 12,4.9725 C10.7517857,4.9725 8.07589286,4.86910714 6.94767857,5.31696429 C6.20249941,5.61100809 5.61261523,6.20089227 5.31857143,6.94607143 C4.875,8.07107143 4.97410714,10.7523214 4.97410714,11.9994643 C4.97410714,13.2466071 4.875,15.9246429 5.32071429,17.0533929 C5.61475809,17.798572 6.20464227,18.3884562 6.94982143,18.6825 C8.07482143,19.1266071 10.7533929,19.0269643 12.0021429,19.0269643 C13.2508929,19.0269643 15.9257143,19.1303571 17.0539286,18.6825 C17.7991077,18.3884562 18.3889919,17.798572 18.6830357,17.0533929 C19.1303571,15.9283929 19.0275,13.2471429 19.0275,12 C19.0275,10.7528571 19.1303571,8.07535714 18.6830357,6.94660714 L18.6808929,6.94607143 Z M12,16.3928571 C9.57389199,16.3928571 7.60714286,14.426108 7.60714286,12 C7.60714286,9.57389199 9.57389199,7.60714286 12,7.60714286 C14.426108,7.60714286 16.3928571,9.57389199 16.3928571,12 C16.3942811,13.1654941 15.9319208,14.283662 15.1077914,15.1077914 C14.283662,15.9319208 13.1654941,16.3942811 12,16.3928571 Z M16.5739286,8.44821429 C16.1591616,8.44843099 15.7851148,8.19874818 15.6262402,7.81561568 C15.4673656,7.43248318 15.5549585,6.99137095 15.8481664,6.69800977 C16.1413743,6.40464859 16.5824407,6.31682516 16.9656562,6.47549952 C17.3488717,6.63417388 17.5987499,7.00809015 17.59875,7.42285714 C17.5998894,7.69487943 17.4926636,7.95615893 17.300766,8.14896124 C17.1088684,8.34176355 16.8480961,8.45021711 16.5760714,8.45035714 L16.5739286,8.44821429 Z M21.4285714,3.80647894e-16 L2.57142857,3.80647894e-16 C1.15126779,0 1.73919536e-16,1.15126779 0,2.57142857 L0,21.4285714 C1.73919536e-16,22.8487322 1.15126779,24 2.57142857,24 L21.4285714,24 C22.8487322,24 24,22.8487322 24,21.4285714 L24,2.57142857 C24,1.15126779 22.8487322,0 21.4285714,0 Z M20.5114286,15.5357143 C20.4423214,16.90875 20.1289286,18.1253571 19.1266071,19.125 C18.1242857,20.1246429 16.90875,20.4444643 15.5373214,20.5098214 C14.1225,20.5896429 9.88071429,20.5896429 8.46589286,20.5098214 C7.09285714,20.4407143 5.88053571,20.1267857 4.87660714,19.125 C3.87267857,18.1232143 3.55714286,16.9060714 3.49178571,15.5357143 C3.41196429,14.1203571 3.41196429,9.87803571 3.49178571,8.46428571 C3.56089286,7.09125 3.87053571,5.87464286 4.87660714,4.875 C5.88267857,3.87535714 7.09821429,3.55928571 8.46589286,3.49392857 C9.88071429,3.41410714 14.1225,3.41410714 15.5373214,3.49392857 C16.9103571,3.56303571 18.1264286,3.87696429 19.1266071,4.87875 C20.1267857,5.88053571 20.4460714,7.09767857 20.5114286,8.47071429 C20.59125,9.88071429 20.59125,14.1192857 20.5114286,15.5357143 Z" id="Shape"></path>
                </g>
            </g>
        </g>
    </g>
</svg>