<svg width="78px" height="60px" viewBox="0 0 78 60" version="1.1" xmlns="http://www.w3.org/2000/svg" xmlns:xlink="http://www.w3.org/1999/xlink">
    <g stroke="none" stroke-width="1" fill="none" fill-rule="evenodd">
        <g transform="translate(-1439.000000, -1667.000000)" fill-rule="nonzero" stroke="#FFFFFF" stroke-width="2">
            <g transform="translate(0.000000, 1426.000000)">
                <g transform="translate(1364.000000, 175.000000)">
                    <g transform="translate(28.623377, 63.000000)">
                        <g transform="translate(85.500000, 32.500000) scale(-1, 1) rotate(123.000000) translate(-85.500000, -32.500000) translate(74.000000, -8.000000)">
                            <path d="M4.80627907,0.425564808 C2.60002907,0.425564808 0.806279067,4.90993981 0.806279067,10.4255648 L0.806279067,70.4255648 C0.806279067,75.9411898 2.60002907,80.4255648 4.80627907,80.4255648 L18.8062791,80.4255648 C21.0125291,80.4255648 22.8062791,75.9411898 22.8062791,70.4255648 L22.8062791,10.4255648 C22.8062791,4.90993981 21.0125291,0.425564808 18.8062791,0.425564808 L4.80627907,0.425564808 Z M9.80627907,67.9255648 L13.8062791,67.9255648 C14.3562791,67.9255648 14.8062791,69.0505648 14.8062791,70.4255648 C14.8062791,71.8005648 14.3562791,72.9255648 13.8062791,72.9255648 L9.80627907,72.9255648 C9.25627907,72.9255648 8.80627907,71.8005648 8.80627907,70.4255648 C8.80627907,69.0505648 9.25627907,67.9255648 9.80627907,67.9255648 Z"></path>
                        </g>
                    </g>
                </g>
            </g>
        </g>
    </g>
</svg>