<svg width="73px" height="72px" viewBox="0 0 73 72" version="1.1" xmlns="http://www.w3.org/2000/svg" xmlns:xlink="http://www.w3.org/1999/xlink">
    <g stroke="none" stroke-width="1" fill="none" fill-rule="evenodd">
        <g transform="translate(-1177.000000, -1943.000000)" fill-rule="nonzero" stroke="#FFFFFF" stroke-width="2">
            <g transform="translate(0.000000, 1426.000000)">
                <g transform="translate(1099.000000, 456.000000)">
                    <g transform="translate(28.623377, 62.000000)">
                        <g transform="translate(51.000000, 0.000000)">
                            <path d="M46.6983316,3.9809463 L32.8225948,17.8740842 L31.5375512,16.5886955 C29.8287166,14.8794019 27.0535693,14.8794019 25.3447347,16.5886955 C23.6359001,18.297989 23.6359001,21.0738817 25.3447347,22.7831753 L47.2178173,44.6621326 C48.9266519,46.3714261 51.7017993,46.3714261 53.4106339,44.6621326 C55.1194685,42.952839 55.1194685,40.1769463 53.4106339,38.4676528 L52.1255903,37.182264 L66.0013271,23.2891261 C71.332891,17.9561303 71.332891,9.31394215 66.0013271,3.99462065 C60.6697632,-1.32470085 52.0298955,-1.3383752 46.7120023,3.99462065 L46.6983316,3.9809463 Z M7.57285502,44.1972047 C5.52225352,46.248357 4.37391668,49.0379241 4.37391668,51.9368859 L4.37391668,57.7348096 L0.737516685,63.1908746 C-0.424490832,64.9275168 -0.192089328,67.2384817 1.28434375,68.7153113 C2.76077683,70.1921409 5.07112119,70.4246048 6.80729712,69.2622852 L12.2618971,65.6249086 L18.058264,65.6249086 C20.9564475,65.6249086 23.7452655,64.4762633 25.795867,62.4251111 L42.2963737,45.9201726 L36.1035572,39.7256928 L19.6030505,56.2306313 C19.1929302,56.6408617 18.6324324,56.8733256 18.058264,56.8733256 L13.1231497,56.8733256 L13.1231497,51.9368859 C13.1231497,51.3625633 13.3555512,50.801915 13.7656715,50.3916845 L30.2661783,33.8867461 L24.0733617,27.6922663 L7.57285502,44.1972047 Z"></path>
                        </g>
                    </g>
                </g>
            </g>
        </g>
    </g>
</svg>