<svg width="84px" height="65px" viewBox="0 0 84 65" version="1.1" xmlns="http://www.w3.org/2000/svg" xmlns:xlink="http://www.w3.org/1999/xlink">
    <g stroke="none" stroke-width="1" fill="none" fill-rule="evenodd">
        <g transform="translate(-906.000000, -1947.000000)" fill-rule="nonzero" stroke="#FFFFFF" stroke-width="2">
            <g transform="translate(0.000000, 1426.000000)">
                <g transform="translate(834.000000, 456.000000)">
                    <g  transform="translate(28.623377, 66.000000)">
                        <g transform="translate(45.000000, 0.000000)">
                            <path d="M8.99869408,15.7336879 C8.99869408,12.010985 12.0216929,8.9906788 15.7477146,8.9906788 C19.4737364,8.9906788 22.4967352,12.010985 22.4967352,15.7336879 L22.4967352,31.4673758 L8.99869408,31.4673758 L8.99869408,15.7336879 Z M0,15.7336879 L0,47.2010637 C0,55.8967358 7.04429021,62.9347516 15.7477146,62.9347516 C24.4511391,62.9347516 31.4954293,55.8967358 31.4954293,47.2010637 L31.4954293,22.1395465 C31.7485176,24.8227022 32.648387,27.4777621 34.2794003,29.8378153 L52.3470907,56.1495987 C57.3385539,63.4123814 67.1527546,65.1824213 74.2814076,60.0970686 C81.4100605,55.0117159 83.1394971,44.9955378 78.1480339,37.7327551 L60.0803435,11.4209717 C55.0888804,4.14414101 45.2606192,2.38814906 38.1460266,7.47350175 C34.209098,10.2830889 31.9172431,14.609853 31.4954293,19.1332883 L31.4954293,15.7336879 C31.4954293,7.03801575 24.4511391,0 15.7477146,0 C7.04429021,0 0,7.03801575 0,15.7336879 Z M41.7033229,24.7524626 C39.4536494,21.4792936 40.2972769,16.9839542 43.3765176,14.7784283 C46.357335,12.65719 50.4770496,13.3314909 52.6564209,16.4922764 L62.0769287,30.2030616 L50.8426216,38.0699055 L41.7033229,24.7524626 Z"></path>
                        </g>
                    </g>
                </g>
            </g>
        </g>
    </g>
</svg>