<svg width="94px" height="93px" viewBox="0 0 94 93" version="1.1" xmlns="http://www.w3.org/2000/svg" xmlns:xlink="http://www.w3.org/1999/xlink">
    <g stroke="none" stroke-width="1" fill="none" fill-rule="evenodd">
        <g transform="translate(-1403.000000, -2461.000000)" fill="#181818">
            <g transform="translate(300.000000, 2277.000000)">
                <g transform="translate(1005.000000, 96.000000)">
                    <g transform="translate(98.868421, 88.902954)">
                        <path d="M58.3070175,21.0089841 C57.4935112,18.9932738 56.4016718,17.0517504 55.0605148,15.2405063 L53.2368421,16.1976973 C54.4909529,17.8922328 55.5118657,19.7070958 56.2716398,21.5907173 L58.3070175,21.0089841 Z" id="Path"></path>
                        <path d="M58.9522735,30.9888451 C58.9522735,29.9785524 58.9035838,28.9532255 58.8091258,27.9419305 L56.871276,28.1343673 C56.9598912,29.0815167 57.0056595,30.0416957 57.0056595,30.9878428 C57.0056595,31.5050165 56.9910526,32.0231924 56.9647602,32.5383615 C53.1874137,30.8485267 49.1705139,29.9855683 44.9987808,29.9855683 C40.826074,29.9855683 36.8091742,30.8475244 33.0328014,32.5383615 C33.006509,32.0231924 32.9919021,31.5060188 32.9919021,30.9878428 C32.9919021,30.035682 33.0366966,29.075503 33.1262856,28.1353695 L31.187462,27.9409283 C31.0920302,28.9452073 31.0433405,29.9705342 31.0433405,30.9888451 C31.0433405,31.8187284 31.0842399,32.6466072 31.1465627,33.4654655 C29.5592786,34.314392 28.036265,35.3026347 26.6184211,36.4301935 L27.8083972,38.0167941 C28.9370243,37.1207607 30.133817,36.3119251 31.3802732,35.6023148 C32.55759,43.7287567 36.8043052,50.9932425 43.2440042,55.8973717 C42.0803205,56.6119935 40.8698947,57.2424242 39.6263599,57.7726274 L40.372286,59.6248307 C41.9761246,58.9412795 43.5254306,58.0993689 44.9987808,57.1341785 C46.5169255,58.1294371 48.120764,58.9933978 49.7830302,59.6919831 L50.5192184,57.8357707 C49.2201773,57.2895311 47.9561929,56.6410595 46.7477146,55.898374 C53.1893613,50.9912379 57.4409454,43.7207385 58.6163146,35.6013125 C59.861797,36.3109229 61.0585897,37.1197584 62.186243,38.0147896 L63.377193,36.428189 C61.9593491,35.3016324 60.4363354,34.3133897 58.8500252,33.4654655 C58.9104004,32.6456049 58.9522735,31.8177262 58.9522735,30.9888451 Z M44.9987808,54.7217037 C38.4665714,50.0080066 34.2169348,42.762564 33.223665,34.6521585 C36.9240818,32.894169 40.8786588,31.9921219 44.997807,31.9921219 C49.1169552,31.9921219 53.072506,32.894169 56.7709752,34.6521585 C55.7806268,42.7505367 51.5290427,50.0039975 44.9987808,54.7217037 Z" id="Shape" fill-rule="nonzero"></path>
                        <path d="M27.9575075,60.1333306 L27.8859649,62.2081828 C28.2675254,62.2247983 28.6519475,62.2320675 29.0382775,62.2320675 C30.7781932,62.2320675 32.5228784,62.0659132 34.2236842,61.7367199 L33.8907727,59.6919831 C31.9457682,60.0668688 29.9292212,60.2122539 27.9575075,60.1333306 Z" id="Path"></path>
                        <path d="M57.3683811,59.6919831 L57.0394737,61.7556708 C58.7128624,62.0718726 60.4324135,62.2320675 62.1500413,62.2320675 C62.5616564,62.2320675 62.9713481,62.2226443 63.377193,62.2048448 L63.3002556,60.1128875 C61.3239258,60.1987436 59.3081656,60.0584421 57.3683811,59.6919831 Z" id="Path"></path>
                        <path d="M92.5307018,30.8125663 C92.5307018,13.8225994 79.0230464,8.85206899e-16 62.4201911,8.85206899e-16 C56.6544315,8.85206899e-16 51.0941745,1.6773693 46.2672988,4.82580043 C41.4384751,1.67637264 35.8694526,0 30.1114846,0 C13.5086293,0 0,13.8225994 0,30.8125663 C-0.000973945875,42.425583 6.21669652,52.8336445 16.2580785,58.1607621 C16.1957459,58.977022 16.1538663,59.8022519 16.1538663,60.629475 C16.1538663,77.6204386 29.6615216,91.443038 46.2643769,91.443038 C62.8682062,91.443038 76.3758615,77.6204386 76.3758615,60.629475 C76.3758615,59.8052418 76.3339819,58.980012 76.2716493,58.1617588 C86.3120573,52.8346412 92.5307018,42.4265797 92.5307018,30.8125663 Z M76.0408242,56.0289184 C75.8129208,54.4721443 75.4700919,52.9343066 75.0133113,51.4383284 L73.1530746,52.0323344 C73.6449173,53.6449212 73.9896941,55.3103306 74.1961707,56.9916865 C72.6933722,57.7003078 71.1321369,58.2823539 69.5377875,58.7059321 L70.0286563,60.6354549 C71.5129498,60.2407798 72.9728946,59.7235162 74.3870641,59.0956239 C74.4133606,59.6069076 74.4279698,60.1191879 74.4279698,60.6314683 C74.4279698,76.5231221 61.7939439,89.4517226 46.2643769,89.4517226 C30.7357839,89.4517226 18.101758,76.5231221 18.101758,60.6314683 C18.101758,60.1181913 18.1163672,59.6059109 18.1426638,59.0956239 C19.5578071,59.7235162 21.0187259,60.2407798 22.5049673,60.6364516 L22.9948621,58.7069287 C21.3995388,58.2823539 19.8373296,57.7003078 18.3335571,56.9906899 C18.5410076,55.3083373 18.8848105,53.6439245 19.3766532,52.0333311 L17.5173905,51.4393251 C17.0615838,52.93331 16.7187549,54.4721443 16.4898776,56.0279218 C7.48964378,50.9429912 1.94789175,41.4149755 1.94886569,30.8125663 C1.94886569,14.9219092 14.5828916,1.99330873 30.1124585,1.99330873 C35.213987,1.99330873 40.1548145,3.40357466 44.499587,6.05268196 C43.240275,7.00947015 42.0481652,8.06592377 40.9495543,9.20908633 L42.3393751,10.6063958 C43.5392764,9.35659118 44.8618949,8.2204052 46.2643769,7.21278764 C47.6074483,8.17754906 48.8774737,9.25692574 50.0364693,10.4449377 L51.4136288,9.03666513 C50.3617672,7.9582851 49.2280942,6.95963743 48.0291669,6.04969199 C52.3729655,3.39958804 57.311845,1.99330873 62.4201911,1.99330873 C77.9487841,1.99330873 90.58281,14.9219092 90.58281,30.8125663 C90.58281,41.4159721 85.041058,50.9439879 76.0408242,56.0289184 Z" fill-rule="nonzero"></path>
                        <path d="M38.0263158,16.1976502 L36.1742118,15.2405063 C34.8441336,17.056157 33.7609301,18.9969306 32.9561404,21.0080286 L35.0181422,21.5907173 C35.7696418,19.7102219 36.7821543,17.8954845 38.0263158,16.1976502 Z" id="Path"></path>
                        <path d="M67.1798246,41.9947078 C68.4495987,43.5356288 69.5726698,45.2164451 70.5173183,46.9915612 L72.25,45.9843149 C71.2389386,44.0858837 70.0395423,42.2890061 68.6815481,40.6413502 L67.1798246,41.9947078 Z" id="Path"></path>
                        <path d="M19.0131579,45.9843149 L20.7461784,46.9915612 C21.6900202,45.2174814 22.8123195,43.5356288 24.0833333,41.9936716 L22.5803247,40.6413502 C21.2230564,42.2890061 20.0224341,44.08692 19.0131579,45.9843149 Z" id="Path"></path>
                    </g>
                </g>
            </g>
        </g>
    </g>
</svg>