<svg width="12px" height="15px" viewBox="0 0 12 15" version="1.1" xmlns="http://www.w3.org/2000/svg" xmlns:xlink="http://www.w3.org/1999/xlink">
    <g stroke="none" stroke-width="1" fill="none" fill-rule="evenodd">
        <g transform="translate(-1586.000000, -6.000000)" fill="#FFFFFF" fill-rule="nonzero">
            <g>
                <g transform="translate(1586.000000, 6.000000)">
                    <path d="M6.740625,14.6629461 C8.34375,12.7772066 12,8.20678514 12,5.63959465 C12,2.52606844 9.3125,0 6,0 C2.6875,0 0,2.52606844 0,5.63959465 C0,8.20678514 3.65625,12.7772066 5.259375,14.6629461 C5.64375,15.1123513 6.35625,15.1123513 6.740625,14.6629461 Z M6,3.94736842 C7.1045695,3.94736842 8,4.83101694 8,5.92105263 C8,7.01108832 7.1045695,7.89473684 6,7.89473684 C4.8954305,7.89473684 4,7.01108832 4,5.92105263 C4,4.83101694 4.8954305,3.94736842 6,3.94736842 Z" id="Shape"></path>
                </g>
            </g>
        </g>
    </g>
</svg>