<svg width="52px" height="70px" viewBox="0 0 52 70" version="1.1" xmlns="http://www.w3.org/2000/svg" xmlns:xlink="http://www.w3.org/1999/xlink">
    <g stroke="none" stroke-width="1" fill="none" fill-rule="evenodd">
        <g transform="translate(-657.000000, -1945.000000)" fill-rule="nonzero" stroke="#FFFFFF" stroke-width="2">
            <g transform="translate(0.000000, 1426.000000)">
                <g transform="translate(569.000000, 456.000000)">
                    <g transform="translate(28.623377, 64.000000)">
                        <g transform="translate(60.000000, 0.000000)">
                            <path d="M25.3766234,68 C11.57454,68 0.376623377,56.578125 0.376623377,42.5 C0.376623377,30.3875 17.3297484,7.66328125 22.0693317,1.55390625 C22.8505817,0.5578125 24.0094359,0 25.2594359,0 L25.4938109,0 C26.7438109,0 27.902665,0.5578125 28.683915,1.55390625 C33.4234984,7.66328125 50.3766234,30.3875 50.3766234,42.5 C50.3766234,56.578125 39.1787067,68 25.3766234,68 Z M12.8766234,44.625 C12.8766234,43.45625 11.9391234,42.5 10.79329,42.5 C9.64745671,42.5 8.70995671,43.45625 8.70995671,44.625 C8.70995671,52.8460937 15.2333942,59.5 23.29329,59.5 C24.4391234,59.5 25.3766234,58.54375 25.3766234,57.375 C25.3766234,56.20625 24.4391234,55.25 23.29329,55.25 C17.5380817,55.25 12.8766234,50.4953125 12.8766234,44.625 Z"></path>
                        </g>
                    </g>
                </g>
            </g>
        </g>
    </g>
</svg>