<svg width="79px" height="64px" viewBox="0 0 79 64" version="1.1" xmlns="http://www.w3.org/2000/svg" xmlns:xlink="http://www.w3.org/1999/xlink">
    <g stroke="none" stroke-width="1" fill="none" fill-rule="evenodd">
        <g transform="translate(-644.000000, -1664.000000)" fill-rule="nonzero" stroke="#FFFFFF" stroke-width="2">
            <g transform="translate(0.000000, 1426.000000)">
                <g transform="translate(569.000000, 175.000000)">
                    <g transform="translate(28.623377, 64.000000)">
                        <g transform="translate(47.000000, 0.000000)">
                            <path d="M54.2766234,3.875 C54.2766234,1.73164063 52.5561546,0 50.4266234,0 C48.2970921,0 46.5766234,1.73164063 46.5766234,3.875 L46.5766234,5.20703125 C46.5766234,11.8914063 49.2114671,18.2972656 53.9036546,23.0199219 L56.4302171,25.5628906 C57.5130296,26.6527344 58.1266234,28.1300781 58.1266234,29.6679688 L58.1266234,31 C58.1266234,33.1433594 59.8470921,34.875 61.9766234,34.875 C64.1061546,34.875 65.8266234,33.1433594 65.8266234,31 L65.8266234,29.6679688 C65.8266234,26.0714844 64.4069359,22.6203125 61.8803734,20.0773438 L59.3538109,17.534375 C56.1053734,14.2648438 54.2766234,9.8328125 54.2766234,5.20703125 L54.2766234,3.875 Z M69.6766234,31 C69.6766234,33.1433594 71.3970921,34.875 73.5266234,34.875 C75.6561546,34.875 77.3766234,33.1433594 77.3766234,31 L77.3766234,29.6679688 C77.3766234,22.9835938 74.7417796,16.5777344 70.0495921,11.8550781 L67.5230296,9.31210938 C66.4402171,8.22226563 65.8266234,6.74492188 65.8266234,5.20703125 L65.8266234,3.875 C65.8266234,1.73164063 64.1061546,0 61.9766234,0 C59.8470921,0 58.1266234,1.73164063 58.1266234,3.875 L58.1266234,5.20703125 C58.1266234,8.80351563 59.5463109,12.2546875 62.0728734,14.7976563 L64.5994359,17.340625 C67.8478734,20.6101563 69.6766234,25.0421875 69.6766234,29.6679688 L69.6766234,31 Z M28.0244359,43.59375 C27.4589671,43.3152344 26.8213109,43.2667969 26.1956859,43.3515625 C21.6478734,44.0296875 17.1481859,45.0832031 13.3342796,46.1125 C10.1580296,46.984375 7.39084213,47.8441406 5.42974838,48.4859375 C4.44318588,48.8128906 3.66115463,49.0792969 3.11974838,49.2730469 C2.84302963,49.3699219 2.63849838,49.4425781 2.49412338,49.4910156 L2.33771713,49.5515625 C1.19474838,49.9511719 0.376623377,51.0289063 0.376623377,52.3125 C0.376623377,53.5960938 1.19474838,54.6738281 2.33771713,55.0613281 L2.49412338,55.121875 C2.63849838,55.1703125 2.85506088,55.2550781 3.11974838,55.3398438 C3.66115463,55.5335938 4.44318588,55.8 5.42974838,56.1269531 C7.39084213,56.7808594 10.1459984,57.640625 13.3342796,58.5003906 C19.6627171,60.2199219 27.9041234,62 35.0266234,62 L43.1236546,62 C43.6169359,62 43.8816234,61.3824219 43.5567796,60.9949219 L31.2367796,46.1125 C30.3464671,45.0347656 29.2516234,44.1871094 28.0244359,43.59375 Z M53.9156859,62 L56.2016234,62 L62.3736546,62 C62.8669359,62 63.1316234,61.3824219 62.8067796,60.9949219 L50.4867796,46.1125 C48.6580296,43.8964844 45.9509984,42.625 43.0875609,42.625 L40.8016234,42.625 L35.0266234,42.625 C34.8942796,42.625 34.7499046,42.625 34.6175609,42.625 C34.1242796,42.625 33.8716234,43.2425781 34.1964671,43.6300781 L46.5164671,58.5125 C48.3452171,60.7285156 51.0522484,62 53.9156859,62 Z M53.4464671,43.6300781 L65.7664671,58.5125 C67.5230296,60.6316406 70.0856859,61.8910156 72.8167796,61.9878906 C75.3553734,61.8546875 77.3766234,59.7355469 77.3766234,57.15625 L77.3766234,47.46875 C77.3766234,44.7925781 75.2230296,42.625 72.5641234,42.625 L53.8795921,42.625 C53.3863109,42.625 53.1216234,43.2425781 53.4464671,43.6300781 Z"></path>
                        </g>
                    </g>
                </g>
            </g>
        </g>
    </g>
</svg>