<svg width="72px" height="76px" viewBox="0 0 72 76" version="1.1" xmlns="http://www.w3.org/2000/svg" xmlns:xlink="http://www.w3.org/1999/xlink">
    <g stroke="none" stroke-width="1" fill="none" fill-rule="evenodd">
        <g transform="translate(-382.000000, -1658.000000)" stroke="#FFFFFF" stroke-width="2">
            <g transform="translate(0.000000, 1426.000000)">
                <g transform="translate(304.000000, 175.000000)">
                    <g transform="translate(28.623377, 58.000000)">
                        <g transform="translate(51.324675, 0.000000)">
                            <path d="M34.1084017,0 C34.8613151,0 35.5716109,0.390234375 35.9977883,1.02617187 C38.2423229,4.42265625 41.2113591,10.2328125 42.9870985,16.7800781 C44.0099243,20.5957031 44.6633964,24.7582031 44.4645136,28.9207031 C46.0981938,27.6488281 47.8313154,26.5070312 49.5502311,25.5097656 C55.3746563,22.1421875 61.5400233,20.1765625 65.4892677,19.3671875 C66.2279752,19.2226562 67.0093006,19.4539062 67.5349194,20.003125 C68.0605383,20.5523437 68.3020388,21.3328125 68.1599797,22.0988281 C67.3644484,26.1023437 65.4182381,32.3460937 62.094054,38.2429687 C60.8013157,40.5410156 59.2670769,42.8246094 57.4913376,44.9347656 C61.4405819,45.8886719 64.935237,47.4351562 67.0377124,48.6203125 C67.762214,49.025 68.2025974,49.8054687 68.2025974,50.64375 C68.2025974,51.4820312 67.7480081,52.2625 67.0377124,52.6671875 C64.8784133,53.88125 61.2274932,55.4855469 57.1219838,56.4394531 C54.252389,57.1042969 51.0276463,57.4800781 47.8597273,57.1042969 L49.0388182,61.8882813 C49.2519069,62.7699219 48.9535827,63.6804687 48.2574929,64.2585938 C47.5614031,64.8367188 46.6096068,64.9234375 45.8140755,64.5332031 L37.5178212,60.2984375 L37.5178212,70.53125 C37.5178212,72.4535156 35.9977883,74 34.1084017,74 C32.219015,74 30.6989821,72.4535156 30.6989821,70.53125 L30.6989821,60.2984375 L22.3885219,64.5042969 C21.5929906,64.9089844 20.6411943,64.8078125 19.9451045,64.2296875 C19.2490147,63.6515625 18.9506905,62.7410156 19.1637792,61.859375 L20.3428701,57.0753906 C17.189157,57.4511719 13.9502084,57.0753906 11.0806136,56.4105469 C6.97510421,55.4566406 3.32418409,53.8667969 1.16488502,52.6382812 C0.440383362,52.2335937 0,51.453125 0,50.6148437 C0,49.7765625 0.454589277,48.9960937 1.16488502,48.5914062 C3.26736043,47.40625 6.76201549,45.8742187 10.7112598,44.9058594 C8.94972638,42.8246094 7.41548757,40.5410156 6.12274932,38.2429687 C2.79856523,32.3460937 0.852354894,26.1023437 0.0568236596,22.0988281 C-0.0994414043,21.3472656 0.142059149,20.5523438 0.681883915,20.003125 C1.22170868,19.4539062 1.98882809,19.2226562 2.72753566,19.3671875 C6.69098591,20.1621094 12.8421471,22.1421875 18.6665722,25.5097656 C20.3854879,26.5070313 22.1186095,27.634375 23.7522897,28.9207031 C23.5534069,24.7726563 24.1926731,20.5957031 25.2297049,16.7800781 C27.0054442,10.2328125 29.9744804,4.42265625 32.219015,1.02617188 C32.6451924,0.390234375 33.3554882,3.33760797e-15 34.1084017,0 Z"></path>
                        </g>
                    </g>
                </g>
            </g>
        </g>
    </g>
</svg>