<svg width="71px" height="71px" viewBox="0 0 71 71" version="1.1" xmlns="http://www.w3.org/2000/svg" xmlns:xlink="http://www.w3.org/1999/xlink">
    <g stroke="none" stroke-width="1" fill="none" fill-rule="evenodd">
        <g transform="translate(-1178.000000, -1662.000000)" fill-rule="nonzero" stroke="#FFFFFF" stroke-width="2">
            <g transform="translate(0.000000, 1426.000000)">
                <g transform="translate(1099.000000, 175.000000)">
                    <g transform="translate(28.623377, 62.000000)">
                        <g transform="translate(51.000000, 0.000000)">
                            <path d="M35.0922329,1.67043709 C34.9772412,0.894256529 34.3879084,0.26181311 33.611714,0.146823398 C30.4350667,-0.298761738 27.2009235,0.276186824 24.3548775,1.7854268 L13.7181399,7.46304385 C10.8864679,8.97228383 8.60100667,11.3439466 7.19235764,14.2330632 L1.91711074,25.099591 C0.508461703,27.9887075 0.0484946714,31.2659143 0.609079492,34.4281314 L2.69330511,46.3295667 C3.25388993,49.5061575 4.79190469,52.4096477 7.10611382,54.6519471 L15.7736176,63.0461961 C18.0878267,65.2884955 21.0344905,66.7258669 24.2111378,67.1714521 L36.1415327,68.8531766 C39.31818,69.2987617 42.5523232,68.7238132 45.3983692,67.2145732 L56.0351068,61.5369561 C58.8667789,60.0277162 61.1522401,57.6560534 62.5608891,54.7525631 L67.836136,43.900409 C69.244785,41.0112925 69.7047521,37.7340857 69.1441673,34.5718686 C69.0148015,33.8100617 68.3823469,33.2351132 67.6205265,33.1201235 C60.217932,31.9414789 54.2814825,26.3501041 52.5997281,19.120126 C52.3409966,18.0277237 51.4498105,17.1940483 50.3430148,17.0215637 C42.4948273,15.7710506 36.2996464,9.54723239 35.077859,1.67043709 L35.0922329,1.67043709 Z M27.9771179,18.4014403 C30.5174457,18.4014403 32.5767882,20.4607462 32.5767882,23.0010288 C32.5767882,25.5413113 30.5174457,27.6006173 27.9771179,27.6006173 C25.4367901,27.6006173 23.3774476,25.5413113 23.3774476,23.0010288 C23.3774476,20.4607462 25.4367901,18.4014403 27.9771179,18.4014403 Z M18.7777773,45.9989712 C18.7777773,43.4586887 20.8371198,41.3993827 23.3774476,41.3993827 C25.9177753,41.3993827 27.9771179,43.4586887 27.9771179,45.9989712 C27.9771179,48.5392538 25.9177753,50.5985597 23.3774476,50.5985597 C20.8371198,50.5985597 18.7777773,48.5392538 18.7777773,45.9989712 Z M50.9754695,36.7997942 C53.5157973,36.7997942 55.5751398,38.8591002 55.5751398,41.3993827 C55.5751398,43.9396653 53.5157973,45.9989712 50.9754695,45.9989712 C48.4351417,45.9989712 46.3757992,43.9396653 46.3757992,41.3993827 C46.3757992,38.8591002 48.4351417,36.7997942 50.9754695,36.7997942 Z"></path>
                        </g>
                    </g>
                </g>
            </g>
        </g>
    </g>
</svg>