<svg width="56px" height="74px" viewBox="0 0 56 74" version="1.1" xmlns="http://www.w3.org/2000/svg" xmlns:xlink="http://www.w3.org/1999/xlink">
    <g stroke="none" stroke-width="1" fill="none" fill-rule="evenodd">
        <g transform="translate(-1450.000000, -1941.000000)" fill-rule="nonzero" stroke="#FFFFFF" stroke-width="2">
            <g transform="translate(0.000000, 1426.000000)">
                <g transform="translate(1364.000000, 456.000000)">
                    <g transform="translate(28.623377, 60.000000)">
                        <g transform="translate(58.000000, 0.000000)">
                            <path d="M13.5826286,4.5 L13.5826286,18 L31.7148669,18 L31.7148669,13.5 L40.2285194,13.5 C40.8234835,13.5 41.4042818,13.7390625 41.8292561,14.1609375 L46.6314661,18.928125 C48.4021925,20.6859375 51.2778522,20.6859375 53.0485786,18.928125 C54.819305,17.1703125 54.819305,14.315625 53.0485786,12.5578125 L48.2463686,7.790625 C46.1214969,5.68125 43.2316714,4.5 40.2285194,4.5 L31.7148669,4.5 C31.7148669,2.0109375 29.6891559,0 27.1818073,0 L18.1156882,0 C15.6083396,0 13.5826286,2.0109375 13.5826286,4.5 Z M12.0810526,22.5 C7.36383748,22.5 3.43990778,26.0859375 3.04326507,30.7546875 L0.408424185,62.2546875 C-0.0307159618,67.5 4.13403253,72 9.44621173,72 L35.8512838,72 C41.1492972,72 45.3282115,67.5 44.8890713,62.2546875 L42.2400646,30.7546875 C41.8434219,26.0859375 37.9194922,22.5 33.2022771,22.5 L12.0810526,22.5 Z M31.7148669,50.625 C31.7148669,55.5890625 27.6492791,58.5 22.6487478,58.5 C17.6482164,58.5 13.5826286,55.5890625 13.5826286,50.625 C13.5826286,46.0546875 18.8239787,39.2484375 20.7930265,36.8578125 C21.2463324,36.309375 21.9404572,36 22.6487478,36 C23.3570383,36 24.0511631,36.309375 24.504469,36.8578125 C26.4735168,39.2484375 31.7148669,46.0546875 31.7148669,50.625 Z"></path>
                        </g>
                    </g>
                </g>
            </g>
        </g>
    </g>
</svg>