<svg width="112px" height="106px" viewBox="0 0 112 106" version="1.1" xmlns="http://www.w3.org/2000/svg" xmlns:xlink="http://www.w3.org/1999/xlink">
    <g stroke="none" stroke-width="1" fill="none" fill-rule="evenodd" stroke-linecap="round" stroke-linejoin="bevel">
        <g transform="translate(-389.000000, -2453.000000)" stroke="#181818" stroke-width="2">
            <g transform="translate(300.000000, 2277.000000)">
                <g transform="translate(0.000000, 96.000000)">
                    <g transform="translate(36.758772, 80.012658)">
                        <g transform="translate(51.969298, 0.000000)">
                            <g>
                                <g>
                                    <path d="M104.543215,74.3571603 L111.903842,72.4457468 L105.452044,71.5351266 L105.934978,70.6257764 L101.636737,71.0804515 L102.273044,70.1698312 L97.2155439,70.8683544 L97.2155439,69.7151561 L92.2467719,71.1109325 L92.2467719,69.7151561 L88.0676798,71.2938186 L88.0676798,70.0796582 L83.7669035,72.5079789 L83.7669035,71.1718945 L79.8894868,73.5392532 L79.8894868,72.3860549 L76.7992149,75.2982616 L76.3162807,74.0841013 L72.8013816,77.2401561 L72.5618158,75.6018017 L68.9277675,79.1210886 L68.9277675,77.8472363 L58.6708026,83.2512658 C58.6479868,83.2042743 58.6213684,83.1585527 58.5960175,83.1141013 L67.2901009,77.538616 L66.6246404,77.2350759 L69.8949035,75.4786076 L68.9265,74.9934515 L73.8331623,73.051557 L72.9839079,72.5054388 L77.4672105,70.8658143 L76.4962719,70.1380802 L80.1328553,68.1961857 L79.2836009,67.5891055 L82.6755482,66.2542911 L81.8262939,65.647211 L85.8862368,63.5237004 L84.5515132,63.2811224 L89.3364912,60.3676456 L88.3680877,60.0044135 L90.9703553,58.062519 L89.8194254,57.9405949 L93.0922237,55.3357384 L92.1238202,54.7261181 L95.5132325,51.4494093 L94.5448289,50.9642532 L97.5729912,47.9288523 L96.120386,47.8069283 L98.665614,44.5302194 L97.4525746,44.1669873 L100.119487,40.5245063 L99.0306667,40.2819283 L101.209575,36.8832954 L100.238636,36.3981392 L103.511434,33.1201603 L102.298395,32.8775823 L105.932443,26.5667426 L99.3614956,31.4830759 L99.3614956,30.5724557 L95.8187105,34.6683418 L95.8187105,33.1201603 L92.1846623,36.7613713 L92.1846623,35.487519 L88.6418772,39.310346 L88.6418772,38.3997257 L85.9166579,42.6353165 L85.5528728,41.2217595 L83.2801667,45.4090886 L82.7351228,44.2254093 L80.5536798,48.6857975 L80.1011667,46.774384 L77.4672105,51.5091013 L77.4672105,50.0523629 L74.9219825,55.4233713 L74.1969474,54.149519 L71.7429825,60.4311477 L71.1979386,59.0658523 L68.5614474,64.7086498 L68.1089342,63.5262405 L65.472443,68.8972489 L65.0173947,68.0945823 L63.7942149,72.8292996 L63.2022719,72.1752278 L57.9533728,82.3609662 C57.8050702,82.2390422 57.6466272,82.1348987 57.4780439,82.0459958 L60.2628377,74.4511435 L59.4161184,74.4511435 L61.8371272,69.6554641 L60.9587193,69.5030591 L62.4138596,65.5316371 L61.6267149,65.5316371 L63.4443728,61.163962 L62.7789123,61.163962 L64.4153114,56.2476287 L63.5064825,56.2476287 L64.4153114,50.8740802 L63.4126842,50.8740802 L65.1403465,45.6859578 L63.7764693,45.6859578 L65.1403465,40.4965654 L63.9589956,40.4965654 L64.4140439,36.8540844 L63.3226886,37.3087595 L64.0477237,32.6667553 L63.1388947,33.1214304 L63.4114167,28.2965401 L62.6863816,28.2965401 L63.0501667,23.8361519 L62.2313333,23.8361519 L62.1426053,19.4672068 L61.5062982,20.0133249 L60.9295658,16.1892278 L60.2336842,16.643903 L59.6886404,12.0018987 L59.3248553,12.8210759 L58.4160263,8.35941772 L57.7797193,8.9969789 L56.2345833,1.16716878 L54.6919825,8.9969789 L54.0556754,8.35941772 L53.1468465,12.8210759 L52.7830614,12.0018987 L52.2380175,16.643903 L51.542136,16.1892278 L50.9654035,20.0133249 L50.3290965,19.4672068 L50.2403684,23.8361519 L49.4215351,23.8361519 L49.7853202,28.2965401 L49.05775,28.2965401 L49.332807,33.1214304 L48.4239781,32.6667553 L49.1490132,37.3087595 L48.060193,36.8540844 L48.5127061,40.4965654 L47.3313553,40.4965654 L48.6952325,45.6859578 L47.3313553,45.6859578 L49.0564825,50.8740802 L48.0589254,50.8740802 L48.9677544,56.2476287 L48.0589254,56.2476287 L49.6927895,61.163962 L49.0273289,61.163962 L50.8449868,65.5316371 L50.0578421,65.5316371 L51.5104474,69.5030591 L50.6345746,69.6554641 L53.0555833,74.4511435 L52.208864,74.4511435 L54.996193,82.0459958 C54.9150702,82.0879072 54.8326798,82.1260084 54.7578947,82.1755401 L49.6040614,72.1752278 L49.0095833,72.8292996 L47.7889386,68.0945823 L47.3313553,68.8972489 L44.6973991,63.5262405 L44.2423509,64.7086498 L41.6083947,59.0658523 L41.0633509,60.4311477 L38.609386,54.149519 L37.8843509,55.4233713 L35.3391228,50.0523629 L35.3391228,51.5091013 L32.7051667,46.774384 L32.2501184,48.6857975 L30.0686754,44.2254093 L29.5236316,45.4090886 L27.2534605,41.2217595 L26.8896754,42.6353165 L24.1644561,38.3997257 L24.1644561,39.310346 L20.6216711,35.487519 L20.6216711,36.7613713 L16.9876228,33.1201603 L16.9876228,34.6683418 L13.4448377,30.5724557 L13.4448377,31.4830759 L6.87135526,26.5667426 L10.5054035,32.8775823 L9.29489912,33.1201603 L12.5651623,36.3981392 L11.5980263,36.8820253 L13.7794693,40.2806582 L12.688114,40.5232363 L15.3550263,44.1657173 L14.1445219,44.5289494 L16.6872149,47.8056582 L15.2358772,47.9275823 L18.2615044,50.9629831 L17.2931009,51.4481392 L20.6850482,54.7248481 L19.7166447,55.3344684 L22.9869079,57.9393249 L21.8359781,58.0612489 L24.4407807,60.0031435 L23.4723772,60.3663755 L28.2548202,63.2798523 L26.9226316,63.5224304 L30.9800395,65.6459409 L30.1333202,66.2530211 L33.5252675,67.5878354 L32.6760132,68.1949156 L36.3100614,70.1368101 L35.3416579,70.8645443 L39.8249605,72.5041688 L38.9757061,73.0502869 L43.8798333,74.9921814 L42.9114298,75.4773376 L46.181693,77.2338059 L45.5162325,77.537346 L53.9631447,82.955346 C53.9314561,83.0048776 53.9086404,83.0620295 53.8794868,83.1141013 L43.8798333,77.8472363 L43.8798333,79.1210886 L40.2483202,75.6018017 L40.0062193,77.2401561 L36.4938553,74.0841013 L36.008386,75.2982616 L32.918114,72.3860549 L32.918114,73.5392532 L29.0432325,71.1718945 L29.0432325,72.5079789 L24.7424561,70.0796582 L24.7424561,71.2938186 L20.5608289,69.7151561 L20.5608289,71.1109325 L15.5945921,69.7151561 L15.5945921,70.8683544 L10.5370921,70.1698312 L11.1733991,71.0804515 L6.87262281,70.6257764 L7.35809211,71.5351266 L0.90629386,72.4457468 L8.26692105,74.3571603 L7.26682895,74.9032785 L11.6284474,75.3579536 L10.4470965,76.2685738 L13.8986184,76.9099451 L12.8072632,77.9081983 L17.1688816,78.7273755 L16.1687895,79.5465527 L20.8029298,80.457173 L19.3503246,81.6408523 L24.8020307,82.5514726 L23.2568947,83.6437089 L29.6174298,84.1047342 L28.3296053,85.1906203 L33.4314693,84.6445021 L32.5226404,85.6465654 L37.7018246,85.1906203 L37.2493114,86.0999705 L42.6984825,84.7346751 L42.0621754,86.0999705 L53.5689386,85.0293249 C53.5765439,85.0559958 53.5892193,85.0813966 53.595557,85.1093376 L46.4859035,86.0999705 L46.8471535,86.8899367 L42.8518553,87.1325148 L43.6985746,87.7395949 L38.7348728,88.6489451 L39.8262281,89.3779494 L34.9816754,91.1382278 L35.8905044,91.50273 L32.3756053,93.5055865 L33.1031754,93.8091266 L26.1367544,99.4519241 L34.3136798,96.4787553 L34.2541053,97.4503376 L37.5243684,95.6900591 L37.4622588,96.7822954 L40.7553377,94.4758987 L40.7553377,95.7497511 L44.0040526,93.2617384 L43.8227939,94.7781688 L47.9423114,91.6830759 L48.1235702,92.8362743 L54.5005833,86.5495654 C54.7921184,86.7946835 55.1318202,86.9762996 55.5082807,87.0829831 C55.5184211,91.4570084 55.6565833,101.520823 56.7314605,103.827219 C56.8556798,104.091388 57.1180614,104.247603 57.3905833,104.247603 C57.4945219,104.247603 57.5984605,104.226013 57.6973289,104.179021 C58.0636491,104.008835 58.2170219,103.575751 58.0509737,103.211249 C57.1839737,101.354447 56.9786316,92.2037932 56.9621535,87.0855232 C57.4197368,86.958519 57.8354912,86.7261013 58.1625175,86.3997004 L64.6878333,92.8362743 L64.8716272,91.6830759 L68.9886096,94.7781688 L68.8073509,93.2617384 L72.0573333,95.7497511 L72.0573333,94.4758987 L75.3504123,96.7822954 L75.2883026,95.6900591 L78.5585658,97.4503376 L78.4964561,96.4787553 L86.6759167,99.4519241 L79.7094956,93.8091266 L80.4345307,93.5055865 L76.9221667,91.50273 L77.8309956,91.1382278 L72.986443,89.3779494 L74.0777982,88.6489451 L69.1090263,87.7383249 L69.9582807,87.1312447 L65.9604474,86.8886667 L66.3242325,86.0987004 L58.8951579,85.063616 C58.9002281,85.0407553 58.9078333,85.0204346 58.9129035,84.9975738 L70.746693,86.0987004 L70.1129211,84.7334051 L75.5620921,86.0987004 L75.1095789,85.1893502 L80.2862281,85.6452954 L79.3799342,84.6432321 L84.4792632,85.1893502 L83.1939737,84.1034641 L89.5519737,83.6424388 L88.0068377,82.5502025 L93.4610789,81.6395823 L92.0059386,80.455903 L96.6400789,79.5452827 L95.6399868,78.7261055 L100.001605,77.9069283 L98.9127851,76.9086751 L102.364307,76.2673038 L101.182956,75.3566835 L105.542039,74.9020084 L104.543215,74.3571603 Z"></path>
                                </g>
                            </g>
                        </g>
                    </g>
                </g>
            </g>
        </g>
    </g>
</svg>