<svg width="119px" height="77px" viewBox="0 0 119 77" version="1.1" xmlns="http://www.w3.org/2000/svg" xmlns:xlink="http://www.w3.org/1999/xlink">
    <g stroke="none" stroke-width="1" fill="none" fill-rule="evenodd">
        <g transform="translate(-1057.000000, -2465.000000)" fill="#000000" fill-rule="nonzero">
            <g transform="translate(300.000000, 2277.000000)">
                <g transform="translate(670.000000, 96.000000)">
                    <g transform="translate(87.460526, 92.713080)">
                        <path d="M79.5228168,0 C71.9518622,0 64.8923084,2.19873984 58.9407895,5.97414302 C52.9892706,2.19873984 45.9297167,0 38.3587621,0 C17.2072765,0 0,17.0917668 0,38.1000388 C0,59.1095379 17.2072765,76.2025316 38.3587621,76.2025316 C45.9284815,76.2025316 52.9880353,74.0037918 58.9407895,70.2283886 C64.8923084,74.0037918 71.9518622,76.2025316 79.5228168,76.2025316 C100.673067,76.2025316 117.881579,59.1095379 117.881579,38.1012658 C117.881579,17.0917668 100.673067,0 79.5228168,0 Z M38.3587621,73.7485809 C18.5697766,73.7485809 2.47053503,57.7574111 2.47053503,38.1000388 C2.47053503,18.4451206 18.5697766,2.45395072 38.3587621,2.45395072 C45.0637942,2.45395072 51.342659,4.29441376 56.7173079,7.48700364 C47.288511,14.4353651 41.1640547,25.5701665 41.1640547,38.1012658 C41.1640547,50.6323652 47.288511,61.7671665 56.7173079,68.715528 C51.342659,71.9081179 45.0650295,73.7485809 38.3587621,73.7485809 Z M58.9407895,8.92624574 C68.1867668,15.3801361 74.245754,26.0474599 74.245754,38.1000388 C74.245754,50.1538448 68.1867668,60.8223955 58.9395542,67.2762859 C49.6948121,60.8223955 43.6345897,50.1538448 43.6345897,38.1012658 C43.6345897,26.0486869 49.6948121,15.3801361 58.9407895,8.92624574 Z M79.5228168,73.7485809 C72.8177847,73.7485809 66.53892,71.9081179 61.164271,68.714301 C70.5930679,61.7659396 76.7175243,50.6311382 76.7175243,38.1000388 C76.7175243,25.5701665 70.5943032,14.4353651 61.164271,7.48700364 C66.5401552,4.29441376 72.81902,2.45395072 79.5228168,2.45395072 C99.3118024,2.45395072 115.411044,18.4451206 115.411044,38.1012658 C115.411044,57.7574111 99.3118024,73.7485809 79.5228168,73.7485809 Z"></path>
                    </g>
                </g>
            </g>
        </g>
    </g>
</svg>