<svg width="24px" height="24px" viewBox="0 0 24 24" version="1.1" xmlns="http://www.w3.org/2000/svg" xmlns:xlink="http://www.w3.org/1999/xlink">
    <g id="Home" stroke="none" stroke-width="1" fill="none" fill-rule="evenodd">
        <g id="Desktop-HD" transform="translate(-638.000000, -4108.000000)" fill="#181818">
            <g id="Footer" transform="translate(0.000000, 3818.000000)">
                <g id="square-facebook" transform="translate(638.000000, 290.000000)">
                    <path d="M21.4285714,3.80647894e-16 L2.57142857,3.80647894e-16 C1.15126779,0 1.73919536e-16,1.15126779 0,2.57142857 L0,21.4285714 C1.73919536e-16,22.8487322 1.15126779,24 2.57142857,24 L9.92410714,24 L9.92410714,15.8405357 L6.54910714,15.8405357 L6.54910714,12 L9.92410714,12 L9.92410714,9.07285714 C9.92410714,5.74339286 11.90625,3.90428571 14.9421429,3.90428571 C16.3960714,3.90428571 17.9164286,4.16357143 17.9164286,4.16357143 L17.9164286,7.43142857 L16.24125,7.43142857 C14.5907143,7.43142857 14.0758929,8.45571429 14.0758929,9.50625 L14.0758929,12 L17.7605357,12 L17.17125,15.8405357 L14.0758929,15.8405357 L14.0758929,24 L21.4285714,24 C22.8487322,24 24,22.8487322 24,21.4285714 L24,2.57142857 C24,1.15126779 22.8487322,0 21.4285714,0 Z" id="Path"></path>
                </g>
            </g>
        </g>
    </g>
</svg>