<svg width="56px" height="74px" viewBox="0 0 56 74" version="1.1" xmlns="http://www.w3.org/2000/svg" xmlns:xlink="http://www.w3.org/1999/xlink">
    <g stroke="none" stroke-width="1" fill="none" fill-rule="evenodd">
        <g transform="translate(-390.000000, -1939.000000)" fill-rule="nonzero" stroke="#FFFFFF" stroke-width="2">
            <g transform="translate(0.000000, 1426.000000)">
                <g transform="translate(304.000000, 456.000000)">
                    <g transform="translate(87.000000, 58.000000)">
                        <path d="M4.49965032,0 C3.24799112,0 2.05258626,0.5203125 1.20877107,1.434375 C0.364955881,2.3484375 -0.085078887,3.571875 0.0133662186,4.8234375 L4.06367913,61.5515625 C4.48558673,67.44375 9.37971484,72 15.2864212,72 L38.7163563,72 C44.6230626,72 49.5171907,67.44375 49.9390983,61.5515625 L53.9894113,4.8234375 C54.0737928,3.571875 53.6518852,2.3484375 52.7940064,1.434375 C51.9361276,0.5203125 50.7547864,0 49.5031272,0 L4.49965032,0 Z M10.2657208,22.0078125 L9.33752408,9 L44.6652534,9 L43.7370567,22.0078125 L40.3336688,23.709375 C37.605333,25.0734375 34.3988352,25.0734375 31.6704995,23.709375 C28.7312099,22.246875 25.2715676,22.246875 22.332278,23.709375 C19.6039422,25.0734375 16.3974445,25.0734375 13.6691087,23.709375 L10.2657208,22.0078125 Z"></path>
                    </g>
                </g>
            </g>
        </g>
    </g>
</svg> 