<svg width="24px" height="24px" viewBox="0 0 24 24" version="1.1" xmlns="http://www.w3.org/2000/svg" xmlns:xlink="http://www.w3.org/1999/xlink">
    <g id="Home" stroke="none" stroke-width="1" fill="none" fill-rule="evenodd">
        <g id="Desktop-HD" transform="translate(-671.000000, -4108.000000)" fill="#181818" fill-rule="nonzero">
            <g id="Footer" transform="translate(0.000000, 3818.000000)">
                <g id="square-x-twitter" transform="translate(671.000000, 290.000000)">
                    <path d="M3.42857143,0 C1.5375,0 0,1.5375 0,3.42857143 L0,20.5714286 C0,22.4625 1.5375,24 3.42857143,24 L20.5714286,24 C22.4625,24 24,22.4625 24,20.5714286 L24,3.42857143 C24,1.5375 22.4625,0 20.5714286,0 L3.42857143,0 Z M19.3446429,4.5 L13.7839286,10.8535714 L20.325,19.5 L15.2035714,19.5 L11.1964286,14.2553571 L6.60535714,19.5 L4.06071429,19.5 L10.0071429,12.7017857 L3.73392857,4.5 L8.98392857,4.5 L12.6107143,9.29464286 L16.8,4.5 L19.3446429,4.5 Z M17.3196429,17.9785714 L8.21785714,5.94107143 L6.70178571,5.94107143 L15.9053571,17.9785714 L17.3142857,17.9785714 L17.3196429,17.9785714 Z" id="Shape"></path>
                </g>
            </g>
        </g>
    </g>
</svg>