<svg width="108px" height="112px" viewBox="0 0 108 112" version="1.1" xmlns="http://www.w3.org/2000/svg" xmlns:xlink="http://www.w3.org/1999/xlink">
    <g stroke="none" stroke-width="1" fill="none" fill-rule="evenodd" stroke-linecap="round" stroke-linejoin="bevel">
        <g transform="translate(-726.000000, -2447.000000)" stroke="#181818" stroke-width="2">
            <g transform="translate(300.000000, 2277.000000)">
                <g transform="translate(335.000000, 96.000000)">
                    <g transform="translate(36.758772, 74.932489)">
                        <g transform="translate(54.504386, 0.000000)">
                            <path d="M54.1901111,97.4204408 C54.1766498,95.364687 54.157155,92.1128328 54.157155,90.0569774 L54.6189212,89.801229 C56.9266876,93.9537717 59.0147633,98.1713786 62.3641973,101.69694 C65.7558658,105.266952 70.2326913,106.793974 74.0509517,109.815824 C72.6540606,106.237139 71.0294461,102.751944 69.1871197,99.3817161 C67.1064069,96.4730749 64.8223689,93.7160045 62.3522063,91.131268 L62.6404458,90.7580788 C63.1093743,91.090561 63.61185,91.3727877 64.1396079,91.6001168 C65.5806284,92.103215 67.054883,92.5050982 68.5516619,92.8028468 C70.1062626,92.8531112 71.6565265,92.9956055 73.1943075,93.2295809 C74.6622881,93.6690155 76.2682661,92.8523022 77.634577,93.8998457 C77.774704,94.0072913 78.4224316,93.4500476 79.0009893,93.1007859 C79.9148124,93.0044024 81.1712779,95.0982448 82.1318226,93.0884157 C83.2121122,92.6021166 84.6796999,94.639531 85.2696655,92.3059808 C86.4011132,92.0913437 88.0045435,93.8322159 88.5510577,91.6442889 C89.5690699,91.5865199 90.5812236,91.4512641 91.5787636,91.2396915 C93.5115779,90.6785107 95.3876696,89.9230134 97.3155657,89.3423628 C98.4518301,89.0001245 99.6426622,88.8398071 101.320916,88.4914345 C100.365847,88.1464022 99.9133842,87.9657895 99.4503378,87.8185535 C97.0963736,87.0700075 94.7408039,86.3265206 92.3836286,85.5880927 C91.1905657,85.2136207 89.3285057,85.1907473 88.9307758,84.4126686 C87.9363369,82.4672307 86.6660679,83.6852265 85.4395417,83.5894273 C84.9160461,81.4609889 82.7925932,83.3005181 82.4221916,82.7141777 C81.1871222,80.7591001 80.0267745,82.7748349 78.9418457,82.171984 C78.43719,81.8438204 77.8452464,81.6763299 77.2438186,81.691527 C76.708294,81.7421128 76.1402696,82.3373435 75.6885423,82.2361338 C73.4905426,81.5194179 71.1071749,81.6300428 68.9847183,82.5472941 C69.2838586,81.9346893 69.3454106,81.5282885 69.5692842,81.3944641 C71.3002801,80.3597481 73.0955912,79.4292262 74.7901832,78.3401524 C75.1736913,78.0936626 75.2407444,77.3528216 75.4561508,76.8330441 C78.6595764,76.3688945 79.804498,75.435604 79.20623,73.7657652 C80.4657123,73.2148082 81.7260185,72.6646386 83.0948771,72.0672235 L82.5076747,70.8675924 L87.2080696,68.7968648 L85.9646851,67.4861813 L90.9900402,64.7069225 L89.6785633,63.5873803 L93.8628143,60.7294552 L92.3488853,59.6323927 L96.9397136,56.2040027 L95.074675,55.2123157 C96.4409858,53.506649 98.2241919,52.6086149 98.777779,50.0524391 C99.3826763,47.2594766 101.78163,44.8549946 103.408003,42.2871598 C103.713291,41.8051534 104.088496,41.367065 104.386344,40.8809818 C104.973026,39.9234843 105.528084,38.9465297 106.09626,37.9776653 L105.626217,37.577602 C103.316448,39.1160465 101.006049,40.653513 98.6950211,42.1900016 C98.2784935,42.4658547 97.6295744,43.028585 97.4401526,42.907169 C96.0690378,42.0285665 95.4298281,43.3499311 94.5109602,43.7712422 C94.1139274,43.95329 93.623033,44.5365188 93.4174754,44.4365411 C91.5341207,43.520574 90.9598727,45.2997126 89.9637607,46.0947082 C89.5012992,46.636329 89.1253941,47.2464826 88.8494248,47.9034515 L87.5505346,45.6034051 L84.256074,49.5921123 L83.2952758,48.0621178 L80.0218564,52.3471259 L79.0977409,50.7375379 L75.9557786,55.8805865 L74.9772347,54.1586252 L72.4044756,58.9439283 L71.3123218,58.2554638 C70.8850707,59.0596037 70.5122861,59.7155043 70.1835486,60.3928813 C69.860946,61.0576087 69.5831384,61.7442062 69.2633118,62.4720547 C67.881334,61.2943192 67.1870749,62.0935821 66.0155348,65.9033023 L65.5985129,65.5351424 L63.2385237,68.1117659 C63.3538204,66.2080596 63.7201896,64.3280312 64.328079,62.5206973 C64.6863757,61.3889246 65.2175146,60.32769 63.7650361,60.0373203 L66.157335,54.0742563 L63.9952474,54.0742563 L65.96425,48.7348465 L63.9147837,48.4869597 C65.0403626,46.5011852 66.6939877,44.7950232 65.902584,42.2135481 L64.1771272,42.7061594 L66.1507944,35.634374 L63.6789064,36.3209588 L64.9741842,29.9185491 L62.5881596,30.5672993 L63.3802478,23.4924658 L60.9669837,24.4825145 C60.6522018,22.0444399 62.1901635,19.2842318 59.3486471,17.5966124 C58.9826184,16.1610964 59.0661749,13.9256697 58.0979362,13.2842603 C56.595808,12.2891696 56.871879,11.1201084 56.6587289,9.94045515 C56.2246401,6.50972936 55.1475953,3.19205669 53.484254,0.161968481 C52.9488054,1.31575101 52.5698732,2.17040051 52.1596707,3.00968249 C50.3499349,6.71204599 51.1845111,11.2579334 48.3615769,14.6883682 C47.7750336,15.4011286 47.9675482,16.7575082 47.801031,17.8172695 C45.0801467,19.4479021 46.4800982,22.2424522 46.0732039,24.5832542 L43.6408886,23.3479096 L44.4911697,30.6156371 L42.0221591,29.8471854 L43.4061522,36.3857944 L40.8935,35.5632897 C41.6479294,38.2636788 42.2700526,40.4903676 42.8924167,42.7181232 C42.3642058,42.560892 41.8357668,42.4026193 41.226281,42.2200635 C40.4705333,44.7591953 41.8996129,46.5315519 43.2025213,48.4700935 L41.0737828,48.7710935 L43.1083047,54.1086236 L40.9004081,54.1086236 L43.3489733,60.0844262 L42.105348,60.7632129 C42.5231558,61.8097277 42.8555058,62.7625641 43.2775092,63.6736924 C44.0903217,65.4285351 44.1113629,65.4187304 43.253147,66.7644925 C40.2811496,66.3332624 40.7147636,63.0131816 38.791025,61.6077783 L37.7799433,62.276392 L35.7553589,58.2329968 L34.6532548,58.9510532 L32.1831541,54.3726654 L31.0078114,55.6926203 L27.9789773,50.8154042 L26.9990264,52.2544763 L23.7591843,48.0445151 L22.8817018,49.6388371 L19.444389,45.6077232 L18.4831598,47.3882589 C17.5693494,46.5131109 16.7674124,45.702824 15.9163835,44.9481776 C15.5008953,44.5797638 14.7230796,43.9486544 14.5711138,44.0613706 C13.3682907,44.9537658 12.8195457,43.7822662 12.0426173,43.3829141 C11.5367279,43.122873 10.8810148,42.4565453 10.587477,42.5959578 C8.88495009,43.4044159 8.14611145,41.8825878 7.08477162,41.2617785 C5.11735342,40.1109552 3.22814268,38.8259138 1.30635605,37.5967797 L0.890043947,38.0838789 C1.94356303,39.6507681 3.02760456,41.1980859 4.04345224,42.7891313 C5.57464522,45.1874027 7.06039675,47.6148979 8.55699846,50.0352173 C8.64867991,50.1834693 8.76732202,50.4582684 8.70357724,50.5382175 C7.76214706,51.718963 8.95676912,52.2432365 9.48748974,52.8522344 C10.2952791,53.6856527 11.1522461,54.4697588 12.0537717,55.2003265 L10.1353441,56.2132741 L14.7519543,59.6639787 L13.1463818,60.7436924 L17.4082826,63.5958134 L15.9925121,64.6470654 L21.1176863,67.5032252 L19.8383289,68.9434785 L24.5619325,70.7982354 L23.9900801,72.1208065 L27.932864,73.7863272 C27.251217,75.4416113 28.2175797,76.2225094 31.095855,76.7905612 C31.6096671,77.4712738 32.1930847,78.0963089 32.8365983,78.6554784 C34.5443348,79.7483751 36.3161456,80.7407607 38.4071747,81.9751528 C36.7124883,82.1116487 35.0087612,82.0886194 33.3183664,81.9063673 C31.8618824,81.6033734 30.3230715,82.4886944 28.9428937,81.5113842 C28.6604334,81.7792542 28.3974966,82.0670633 28.1561039,82.3725998 C27.0666246,82.8450555 25.9220198,80.7279714 24.6919065,82.69674 C24.2584065,83.3904497 22.1120491,81.2996047 21.6776872,83.4427247 L18.5805959,83.4427247 C18.660185,85.0861593 17.3661114,84.3565327 16.6244208,84.5749673 C16.2619032,84.6817143 15.8758094,84.7209459 15.5267278,84.8581867 C13.3182608,85.7262605 11.1256761,86.6354965 8.90931228,87.4824749 C8.06858846,87.8037956 7.17873465,87.9960038 6.03082158,88.3282341 L18.6904539,91.8806691 L18.8782532,92.7731405 L21.8829279,92.2885686 L21.8172691,92.8148614 C22.2731723,93.0393699 22.7591081,93.1965758 23.2599622,93.2815892 C23.8053736,93.2969694 24.8072403,92.8848026 24.8409316,92.9687397 C25.5868685,94.8272051 26.692078,93.414969 27.6301619,93.3262946 C27.9145607,93.2994078 28.4004103,93.1611892 28.4527979,93.2584109 C29.2494999,94.7377306 30.1049399,93.7080947 30.9485917,93.3607128 C31.2037351,93.2187863 31.4860854,93.132851 31.7769063,93.1086094 C33.1681138,93.3812875 34.5879241,93.4783414 36.0032017,93.3975059 C38.8772687,92.8174395 41.6770576,91.8678417 44.7881679,90.9902298 C42.3675993,93.5925445 40.1194172,96.3506373 38.0580044,99.246863 C36.2359409,102.511017 34.60852,105.880485 33.1842982,109.337551 C34.1041025,108.868119 34.9982526,108.349844 35.8629353,107.784938 C39.1441509,106.374418 42.1084835,104.316645 44.5793654,101.73419 C46.9590396,99.0774775 49.3290551,96.5219367 50.602493,93.1052565 C51.1216117,91.9818413 51.7319896,90.9030695 52.4274646,89.8798319 L53.0226018,90.0901001 C53.0226018,90.7607713 53.0375715,91.4318362 53.0196992,92.1020248 C52.9723057,93.8800076 52.8721317,95.6579016 52.8855043,97.4351478 L54.1901111,97.4204408 Z"></path>
                        </g>
                    </g>
                </g>
            </g>
        </g>
    </g>
</svg>