<svg width="245px" height="64px" viewBox="0 0 245 64" version="1.1" xmlns="http://www.w3.org/2000/svg" xmlns:xlink="http://www.w3.org/1999/xlink">
    <title>Lux Smoke Logo</title>
    <g id="Home" stroke="none" stroke-width="1" fill="none" fill-rule="evenodd">
        <g id="Desktop-HD" transform="translate(-303.000000, -48.000000)">
            <g id="Menu-Bar" transform="translate(0.000000, -90.000000)">
                <g id="logo-square" transform="translate(256.000000, 0.000000)">
                    <g id="Layer_1" transform="translate(47.000000, 138.000000)">
                        <rect id="Rectangle" fill="#FFFFFF" x="72.1796407" y="0.684651163" width="172.145509" height="62.0055814"></rect>
                        <rect id="Rectangle" fill="#FFFFFF" x="1.11497006" y="0.95255814" width="60.560479" height="61.975814"></rect>
                        <path d="M59.5335329,60.2195349 C59.5335329,60.4576744 59.3281437,60.6660465 59.0934132,60.6660465 L3.46227545,60.6660465 C3.22754491,60.6660465 3.02215569,60.4576744 3.02215569,60.2195349 L3.02215569,3.57209302 C3.02215569,3.33395349 3.22754491,3.1255814 3.46227545,3.1255814 C3.46227545,3.1255814 3.46227545,3.1255814 3.46227545,3.1255814 L59.0640719,3.1255814 C59.2988024,3.1255814 59.5041916,3.33395349 59.5041916,3.57209302 L59.5041916,60.2195349 L59.5335329,60.2195349 Z" id="Shape" fill="#080705" fill-rule="nonzero"></path>
                        <path d="M87.9065868,60.695814 L74.8790419,60.7255814 C74.5562874,60.7255814 74.2922156,60.4576744 74.2922156,60.1302326 L74.3508982,16.2827907 L74.4095808,3.4827907 C74.4095808,3.2744186 74.5856287,3.1255814 74.7616766,3.1255814 L241.713772,3.15534884 C241.919162,3.15534884 242.09521,3.33395349 242.09521,3.54232558 C242.09521,3.54232558 242.09521,3.54232558 242.09521,3.54232558 L242.065868,60.2493023 C242.065868,60.4576744 241.88982,60.6362791 241.684431,60.6362791 L87.9065868,60.695814 Z" id="Shape" fill="#080705" fill-rule="nonzero"></path>
                        <path d="M52.9023952,56.7962791 C52.9023952,57.1534884 52.608982,57.4511628 52.2568862,57.4511628 L10.3281437,57.4511628 C9.9760479,57.4511628 9.68263473,57.1534884 9.68263473,56.7962791 L9.68263473,7.1144186 C9.68263473,6.7572093 9.9760479,6.45953488 10.3281437,6.45953488 C10.3281437,6.45953488 10.3281437,6.45953488 10.3281437,6.45953488 L52.2568862,6.45953488 C52.608982,6.45953488 52.9023952,6.7572093 52.9023952,7.1144186 L52.9023952,56.7962791 Z M50.5550898,9.5255814 C50.5550898,9.19813953 50.291018,8.93023256 49.9682635,8.93023256 L12.3233533,8.93023256 C12.0005988,8.93023256 11.7365269,9.19813953 11.7365269,9.5255814 L11.7365269,54.3553488 C11.7365269,54.6827907 12.0005988,54.9506977 12.3233533,54.9506977 C12.3233533,54.9506977 12.3233533,54.9506977 12.3233533,54.9506977 L49.9682635,54.9506977 C50.291018,54.9506977 50.5550898,54.6827907 50.5550898,54.3553488 C50.5550898,54.3553488 50.5550898,54.3553488 50.5550898,54.3553488 L50.5550898,9.5255814 Z" id="Shape" fill="#CF242A" fill-rule="nonzero"></path>
                        <path d="M50.5550898,54.3553488 C50.5550898,54.6827907 50.291018,54.9506977 49.9682635,54.9506977 L12.3233533,54.9506977 C12.0005988,54.9506977 11.7365269,54.6827907 11.7365269,54.3553488 C11.7365269,54.3553488 11.7365269,54.3553488 11.7365269,54.3553488 L11.7365269,9.5255814 C11.7365269,9.19813953 12.0005988,8.93023256 12.3233533,8.93023256 L49.9682635,8.93023256 C50.291018,8.93023256 50.5550898,9.19813953 50.5550898,9.5255814 L50.5550898,54.3553488 Z M27.7568862,40.9302326 C27.7862275,41.0493023 27.6982036,41.1683721 27.5808383,41.1683721 C27.551497,41.1683721 27.4928144,41.1683721 27.4634731,41.1683721 C26.4365269,40.7516279 25.4095808,40.3646512 24.3239521,40.0074419 C23.5023952,39.7395349 22.9449102,39.144186 21.8299401,39.144186 C18.2502994,39.144186 15.7562874,39.144186 14.3772455,39.1739535 C13.9958084,39.1739535 13.6730539,39.2632558 13.408982,39.3823256 C13.3209581,39.4418605 13.2622754,39.5609302 13.3209581,39.6502326 C13.3502994,39.7097674 13.3796407,39.7395349 13.4383234,39.7395349 C15.6976048,40.4539535 17.9275449,41.227907 20.1281437,42.0911628 C21.9473054,42.8055814 23.9131737,42.7162791 25.7616766,42.4781395 C26.0844311,42.4483721 26.3191617,42.5376744 26.4658683,42.7460465 C26.4952096,42.8055814 26.4952096,42.8948837 26.4365269,42.9246512 C26.4071856,42.9544186 26.3778443,42.9544186 26.348503,42.9544186 C23.9131737,43.0437209 23.297006,44.8893023 22.5341317,46.7051163 C22.3287425,47.2111628 22.4754491,47.36 22.9742515,47.1516279 C23.7664671,46.824186 24.588024,46.5265116 25.4682635,46.2883721 C26.8179641,45.9013953 27.0233533,44.6809302 27.3461078,43.2818605 C27.3754491,43.1925581 27.4341317,43.1032558 27.4928144,43.0437209 C27.9622754,42.7162791 28.4610778,42.5674419 28.9598802,42.5674419 C30.3095808,42.5972093 31.6592814,42.6269767 32.9796407,42.6269767 C33.2143713,42.6269767 33.3904192,42.4781395 33.4491018,42.24 C33.6838323,41.3172093 34.0652695,40.692093 35.0335329,40.3348837 C36.1191617,39.9181395 37.1167665,39.2334884 38.0556886,38.7869767 C39.3760479,38.1916279 41.7233533,37.3283721 42.4862275,36.0781395 C44.3347305,33.1311628 46.1538922,30.184186 47.9437126,27.2372093 C48.0023952,27.147907 47.9730539,27.0288372 47.8850299,26.9693023 C47.8263473,26.9395349 47.7676647,26.9395349 47.708982,26.9693023 C44.3347305,28.6660465 40.960479,30.3925581 37.5568862,32.0893023 C36.6179641,32.5655814 36.2365269,33.4586047 35.6790419,34.3516279 C34.5640719,36.1376744 33.4491018,37.9237209 32.4221557,39.68 C32.3634731,39.7693023 32.2461078,39.7990698 32.1874251,39.7395349 C32.1287425,39.7097674 32.0994012,39.6204651 32.0994012,39.5311628 C32.5982036,37.8939535 33.1556886,36.3460465 33.7718563,34.8874419 C33.8892216,34.6195349 34.0359281,34.2027907 34.211976,33.5776744 C34.4173653,32.8632558 34.8281437,32.2976744 35.0335329,31.5832558 C35.2095808,30.9581395 35.3562874,30.4223256 35.6497006,29.7972093 C36.148503,28.7255814 36.8233533,27.1776744 36.3832335,25.9869767 C34.7107784,21.5218605 33.0676647,17.0865116 31.4538922,12.6213953 C31.3365269,12.3237209 31.1311377,12.055814 30.8377246,11.787907 C30.7497006,11.6986047 30.6616766,11.7283721 30.6323353,11.8474419 L25.2335329,26.7906977 C25.2041916,26.88 25.2041916,26.9693023 25.2335329,27.0586047 C26.6125749,30.8688372 28.0209581,34.6790698 29.488024,38.4893023 C29.6640719,38.935814 29.7814371,39.3823256 29.8694611,39.7990698 C29.8988024,39.8883721 29.8401198,40.0074419 29.7227545,40.0074419 C29.6347305,40.0372093 29.5760479,39.9776744 29.5173653,39.9181395 C28.197006,37.8046512 26.8473054,35.6911628 25.5562874,33.6074419 C25.1748503,33.012093 24.8227545,32.6251163 24.4706587,32.4465116 C21.0377246,30.7497674 17.6634731,29.0827907 14.3479042,27.3860465 C14.2305389,27.3265116 14.1131737,27.3860465 14.054491,27.4753488 C14.0251497,27.5348837 14.0251497,27.624186 14.054491,27.6837209 C15.6976048,30.3032558 17.3407186,32.9227907 18.954491,35.4827907 C19.7467066,36.7627907 20.8323353,37.655814 22.2113772,38.1618605 C23.0329341,38.4595349 23.6197605,39.0846512 24.588024,39.2037209 C24.6760479,39.2037209 24.7640719,39.2632558 24.8520958,39.3227907 C25.5562874,40.0074419 26.3778443,40.424186 27.3461078,40.6325581 C27.6101796,40.692093 27.7568862,40.7813953 27.7568862,40.9302326 Z M35.7377246,42.8353488 C35.6497006,42.8055814 35.591018,42.6865116 35.6203593,42.5674419 C35.6497006,42.4781395 35.7377246,42.4483721 35.8257485,42.4483721 C37.7035928,42.6567442 40.0802395,42.9544186 41.8407186,42.2697674 C44.188024,41.3767442 46.594012,40.5134884 49.0586826,39.7395349 C49.1760479,39.7097674 49.2347305,39.5906977 49.2053892,39.4716279 C49.1760479,39.412093 49.1467066,39.3525581 49.0586826,39.3227907 C48.5011976,39.144186 47.8556886,39.2037209 47.3568862,39.1739535 C44.8922156,39.1144186 42.7502994,39.0846512 40.8724551,39.1144186 C39.5814371,39.144186 38.5838323,39.8586047 37.5275449,40.1562791 C36.0898204,40.5730233 35.0335329,40.9897674 34.3293413,41.3767442 C33.5664671,41.8232558 33.7131737,42.5674419 34.1532934,43.2223256 C34.7107784,44.0855814 35.1802395,44.9786047 35.502994,45.9013953 C35.5323353,46.0204651 35.6497006,46.1097674 35.7670659,46.1097674 C36.794012,46.2288372 37.7622754,46.5860465 38.642515,47.1516279 C38.8185629,47.2706977 39.0826347,47.2111628 39.2,47.0325581 C39.2586826,46.9134884 39.288024,46.7944186 39.2293413,46.6753488 C38.7892216,45.5739535 38.2610778,44.5618605 37.5862275,43.6093023 C37.5275449,43.52 37.4688623,43.4604651 37.351497,43.4306977 L35.7377246,42.8353488 Z M31.1898204,50.8427907 C31.805988,48.4018605 32.1874251,46.1395349 32.3341317,44.0260465 C32.3341317,43.9069767 32.2754491,43.8474419 32.1580838,43.8474419 L29.9868263,43.8474419 C29.6640719,43.8474419 29.4,44.1153488 29.4,44.4427907 C29.4,44.5023256 29.4,44.532093 29.4293413,44.5916279 C29.8401198,46.2586047 30.1922156,47.895814 30.4562874,49.4437209 C30.5736527,50.0986047 30.4562874,50.932093 30.5736527,51.6762791 C30.5736527,51.735814 30.6323353,51.7953488 30.7203593,51.7655814 C30.7497006,51.7655814 30.7790419,51.735814 30.7790419,51.735814 C30.9550898,51.4976744 31.1017964,51.2 31.1898204,50.8427907 Z" id="Shape" fill="#080705" fill-rule="nonzero"></path>
                        <path d="M27.7568862,40.9302326 C27.7275449,40.7813953 27.6101796,40.692093 27.3754491,40.6325581 C26.4071856,40.4539535 25.5856287,40.0074419 24.8814371,39.3227907 C24.8227545,39.2632558 24.7347305,39.2037209 24.6173653,39.2037209 C23.6197605,39.0846512 23.0622754,38.4595349 22.2407186,38.1618605 C20.8616766,37.655814 19.7760479,36.7627907 18.9838323,35.4827907 C17.3700599,32.9227907 15.7269461,30.3330233 14.0838323,27.6837209 C14.0251497,27.5944186 14.054491,27.4455814 14.142515,27.3860465 C14.2011976,27.3562791 14.2892216,27.3265116 14.3479042,27.3860465 C17.6634731,29.0827907 21.0377246,30.7497674 24.4706587,32.4465116 C24.8227545,32.6251163 25.1748503,33.012093 25.5562874,33.6074419 C26.8766467,35.6911628 28.197006,37.8046512 29.5173653,39.9181395 C29.5760479,40.0074419 29.6640719,40.0372093 29.7520958,39.9776744 C29.8107784,39.947907 29.8401198,39.8586047 29.8401198,39.7693023 C29.7520958,39.3525581 29.6347305,38.9060465 29.4586826,38.4595349 C28.0209581,34.6493023 26.5832335,30.8390698 25.2041916,27.0288372 C25.1748503,26.9395349 25.1748503,26.8502326 25.2041916,26.7609302 L30.6616766,11.787907 C30.7203593,11.6688372 30.7790419,11.6390698 30.8670659,11.7283721 C31.160479,11.9962791 31.3658683,12.264186 31.4832335,12.5618605 C33.097006,17.0269767 34.7401198,21.492093 36.4125749,25.9274419 C36.8526946,27.1181395 36.1778443,28.6660465 35.6790419,29.7376744 C35.3856287,30.3627907 35.2389222,30.8986047 35.0628743,31.5237209 C34.857485,32.2083721 34.4467066,32.8037209 34.2413174,33.5181395 C34.0652695,34.1432558 33.9185629,34.5897674 33.8011976,34.827907 C33.1850299,36.2865116 32.6275449,37.8344186 32.1287425,39.4716279 C32.0994012,39.5609302 32.1580838,39.68 32.2461078,39.7097674 C32.3341317,39.7395349 32.3928144,39.7097674 32.451497,39.6204651 C33.5077844,37.864186 34.5934132,36.107907 35.7083832,34.292093 C36.2658683,33.3990698 36.6473054,32.5060465 37.5862275,32.0297674 C40.9898204,30.3330233 44.3934132,28.6362791 47.7383234,26.9097674 C47.8263473,26.8502326 47.9437126,26.9097674 48.0023952,26.9990698 C48.0317365,27.0586047 48.0317365,27.1181395 48.0023952,27.1776744 C46.2125749,30.1246512 44.3934132,33.0716279 42.5449102,36.0186047 C41.7526946,37.2688372 39.4347305,38.132093 38.1143713,38.7274419 C37.1754491,39.144186 36.1778443,39.8586047 35.0922156,40.2753488 C34.1239521,40.6325581 33.742515,41.2576744 33.5077844,42.1804651 C33.4491018,42.4186047 33.2437126,42.5674419 33.0383234,42.5674419 C31.7179641,42.5674419 30.3682635,42.5674419 29.0185629,42.507907 C28.5197605,42.507907 28.0209581,42.6567442 27.551497,42.984186 C27.4634731,43.0437209 27.4047904,43.1032558 27.4047904,43.2223256 C27.0820359,44.6213953 26.8766467,45.8418605 25.5269461,46.2288372 C24.6467066,46.4967442 23.8251497,46.7646512 23.0329341,47.092093 C22.5341317,47.3004651 22.3874251,47.1516279 22.5928144,46.6455814 C23.3556886,44.8297674 23.9718563,42.984186 26.4071856,42.8948837 C26.4952096,42.8948837 26.5538922,42.8353488 26.5245509,42.7460465 C26.5245509,42.7162791 26.5245509,42.6865116 26.4952096,42.6567442 C26.348503,42.4483721 26.1137725,42.3590698 25.791018,42.3888372 C23.942515,42.6269767 21.9766467,42.7162791 20.157485,42.0018605 C17.9568862,41.1386047 15.7269461,40.3646512 13.4676647,39.6502326 C13.3502994,39.6204651 13.2916168,39.5013953 13.3502994,39.3823256 C13.3796407,39.3227907 13.408982,39.2930233 13.4383234,39.2632558 C13.7023952,39.1144186 14.0251497,39.0548837 14.4065868,39.0548837 C15.7856287,39.0548837 18.2796407,39.0251163 21.8592814,39.0251163 C22.9449102,39.0251163 23.5023952,39.6204651 24.3532934,39.8883721 C25.4095808,40.215814 26.4658683,40.6027907 27.4928144,41.0493023 C27.6101796,41.1088372 27.7275449,41.0493023 27.7862275,40.9302326 C27.7568862,41.0195349 27.7862275,40.96 27.7568862,40.9302326 Z" id="Path" fill="#FFFFFF"></path>
                        <path d="M220.94012,25.7786047 C220.588024,25.8381395 220.294611,25.9869767 220.05988,26.2251163 C217.947305,28.3386047 215.864072,29.7972093 213.81018,30.6604651 C211.756287,31.4939535 209.262275,32.3274419 207.912575,34.0539535 C207.79521,34.2027907 207.648503,34.2623256 207.472455,34.2027907 C207.120359,34.1432558 206.797605,34.1730233 206.504192,34.3218605 C206.386826,34.3813953 206.357485,34.5302326 206.416168,34.6493023 C206.445509,34.7386047 206.533533,34.7683721 206.621557,34.7683721 C207.501796,34.7683721 208.176647,35.2744186 208.939521,35.4232558 C210.171856,35.6911628 211.110778,36.1674419 212.313772,36.6139535 C213.428743,37.0306977 215.629341,37.1497674 216.450898,38.4893023 C216.509581,38.5488372 216.509581,38.6381395 216.48024,38.7274419 C215.629341,40.9302326 213.105988,40.4837209 211.433533,39.7693023 C209.467665,38.935814 207.472455,37.9832558 205.506587,36.9413953 C205.242515,36.7925581 204.91976,36.9116279 204.773054,37.1795349 C204.773054,37.1795349 204.773054,37.2093023 204.743713,37.2093023 C204.186228,38.5190698 203.599401,39.8883721 202.983234,41.3172093 C202.337725,42.775814 202.132335,43.3116279 200.430539,43.0437209 C199.990419,42.984186 199.78503,42.7460465 199.902395,42.3590698 C200.430539,40.215814 200.811976,38.0427907 201.017365,35.84 C201.046707,35.5423256 201.017365,35.1255814 200.9,34.5897674 C200.547904,32.7144186 201.662874,32.5655814 202.337725,31.255814 C202.719162,30.5413953 203.159281,29.5293023 203.628743,28.2195349 C204.068862,27.0586047 205.213174,24.32 207.061677,20.0632558 C207.501796,19.0809302 207.648503,18.4260465 208.91018,18.3665116 C210.054491,18.3069767 212.519162,18.9618605 212.753892,20.3609302 C212.812575,20.6586047 212.812575,20.8669767 212.724551,20.9860465 C211.404192,23.6353488 210.230539,26.344186 209.14491,29.1423256 C209.056886,29.3506977 209.174251,29.5888372 209.379641,29.6483721 C209.438323,29.6781395 209.467665,29.6781395 209.526347,29.6781395 C209.937126,29.6781395 210.523952,29.5888372 210.934731,29.3804651 C214.514371,27.4753488 218.005988,25.4809302 221.438922,23.3972093 C221.585629,23.307907 221.644311,23.0995349 221.556287,22.9209302 C221.556287,22.8911628 221.526946,22.8911628 221.526946,22.8613953 C220.529341,21.7897674 220.353293,20.6288372 220.94012,19.3786047 C221.908383,17.4139535 224.783832,18.932093 226.338922,19.1404651 C228.539521,19.4381395 230.74012,19.6167442 232.97006,19.7060465 C233.703593,19.735814 234.466467,19.8846512 235.229341,19.9144186 C235.317365,19.9144186 235.376048,19.9739535 235.376048,20.0632558 C235.258683,21.3134884 234.789222,22.295814 233.967665,23.0697674 C232.676647,24.2604651 228.539521,24.4986047 226.808383,24.5581395 C226.691018,24.5581395 226.573653,24.587907 226.456287,24.6176744 C226.309581,24.6772093 226.221557,24.7069767 226.133533,24.7367442 C225.928144,24.855814 225.84012,25.0939535 225.928144,25.332093 C225.986826,25.4213953 226.045509,25.5106977 226.162874,25.5404651 C226.368263,25.6297674 226.632335,25.6893023 226.95509,25.7190698 C228.392814,25.8381395 229.801198,25.8976744 231.121557,25.8976744 C231.297605,25.8976744 231.444311,26.0465116 231.444311,26.2251163 C231.444311,26.2548837 231.444311,26.2846512 231.444311,26.3144186 C231.209581,27.2967442 230.74012,27.9813953 230.035928,28.3386047 C229.008982,28.904186 227.952695,29.3506977 226.867066,29.6781395 C226.338922,29.8269767 225.957485,30.0651163 225.693413,30.3330233 C224.51976,31.5832558 224.51976,34.9469767 224.607784,36.5246512 C224.637126,36.8223256 224.783832,36.9711628 225.047904,36.9711628 C228.30479,37.12 231.502994,37.12 234.642515,36.9711628 C235.669461,36.9116279 237.782036,35.6316279 238.456886,37.2093023 C238.486228,37.2986047 238.486228,37.387907 238.456886,37.4772093 C237.811377,38.7869767 237.019162,39.6502326 236.138922,40.1265116 C234.847904,40.8111628 233.322156,41.2576744 231.620359,41.5255814 C229.18503,41.8530233 226.045509,41.5255814 223.316766,41.4660465 C221.585629,41.4362791 220.822754,40.5134884 220.05988,39.0846512 C219.561078,38.1618605 219.737126,37.1497674 220.089222,36.2567442 C220.822754,34.4409302 221.262874,32.6251163 221.409581,30.8390698 C221.526946,29.6186047 221.028144,28.4576744 220.705389,27.2669767 C220.676048,27.2074419 220.705389,27.147907 220.705389,27.0883721 L221.145509,25.9572093 C221.204192,25.8083721 221.145509,25.7190698 220.94012,25.7786047 Z M232.794012,20.8074419 C232.647305,20.8372093 232.559281,20.9562791 232.559281,21.1051163 C232.588623,21.224186 232.705988,21.3432558 232.823353,21.3432558 C233.087425,21.3432558 233.322156,21.2539535 233.527545,21.0455814 C233.64491,20.9265116 233.64491,20.8372093 233.468862,20.8074419 C233.263473,20.7776744 233.028743,20.7776744 232.794012,20.8074419 Z" id="Shape" fill="#FFFFFF" fill-rule="nonzero"></path>
                        <path d="M182.85509,32.1786047 C183.735329,29.6781395 186.816168,21.5516279 189.222156,21.0455814 C191.393413,20.5990698 194.650299,17.5925581 196.909581,19.0511628 C199.403593,20.6883721 200.723952,23.8734884 200.01976,26.7906977 C199.697006,28.1302326 199.550299,28.8148837 199.520958,28.8744186 C199.051497,31.6427907 198.611377,33.7265116 198.141916,35.1553488 C196.850898,39.144186 192.948503,43.8474419 188.488623,43.3711628 C184.527545,42.9544186 182.268263,39.2037209 182.18024,35.4827907 C182.150898,34.6195349 182.356287,33.5181395 182.85509,32.1786047 Z M195.32515,33.3693023 C195.647904,32.5655814 196.029341,31.7916279 196.176048,30.8986047 C196.44012,29.3804651 196.733533,27.8325581 197.056287,26.3144186 C197.202994,25.6 197.202994,25.064186 197.056287,24.7069767 C196.469461,23.3674419 194.679641,23.1293023 193.77006,24.3497674 C192.185629,26.4334884 190.953293,28.6362791 190.043713,30.9581395 C189.398204,32.5655814 187.725749,31.7618605 186.581437,31.4046512 C186.464072,31.3748837 186.405389,31.4046512 186.376048,31.5237209 C185.818563,32.9525581 185.671856,34.1432558 186.023952,35.7506977 C186.464072,37.655814 186.757485,38.935814 186.962874,39.68 C187.109581,40.215814 187.402994,40.6027907 187.901796,40.8706977 C187.98982,40.9302326 188.077844,40.9302326 188.165868,40.9302326 C188.694012,40.8409302 189.192814,40.6623256 189.603593,40.3646512 C192.185629,38.6381395 194.092814,36.2865116 195.32515,33.3693023 Z" id="Shape" fill="#FFFFFF" fill-rule="nonzero"></path>
                        <path d="M151.195808,37.4176744 C150.78503,35.572093 148.701796,34.4706977 147.088024,33.6074419 C145.00479,32.4762791 140.192814,30.0948837 140.54491,27.147907 C140.632934,26.5227907 140.955689,25.8381395 141.571856,25.064186 C145.532934,20.0037209 153.337725,18.8427907 159.117964,20.8372093 C159.323353,20.8967442 159.440719,21.1348837 159.382036,21.3432558 C158.531138,24.4093023 157.650898,27.7730233 153.543114,26.5525581 C150.697006,25.7190698 147.968263,25.8381395 145.298204,26.9693023 C143.479042,27.7432558 145.914371,29.6483721 146.823952,30.2139535 C149.22994,31.7023256 151.841317,32.8632558 153.249701,35.5125581 C154.658084,38.132093 152.57485,40.6623256 150.520958,41.8827907 C149.934132,42.24 148.936527,42.5674419 147.586826,42.8353488 C146.237126,43.1032558 144.740719,43.52 143.537725,43.4604651 C142.1,43.4009302 139.077844,42.2995349 139.958084,40.2753488 C140.897006,38.1023256 142.129341,36.9711628 143.919162,35.5125581 C144.153892,35.3339535 144.388623,35.304186 144.623353,35.4827907 C144.858084,35.6613953 144.916766,35.9590698 144.77006,36.1972093 C144.065868,37.4176744 143.156287,38.2213953 143.009581,39.7990698 C143.009581,39.9181395 143.038922,39.9776744 143.156287,40.0372093 C144.065868,40.4837209 146.295808,40.215814 146.823952,39.9181395 C148.320359,39.0846512 149.758084,38.9953488 151.078443,37.5962791 C151.195808,37.5962791 151.22515,37.5069767 151.195808,37.4176744 Z" id="Path" fill="#FFFFFF"></path>
                        <path d="M166.130539,30.6009302 C166.189222,30.452093 166.101198,30.2734884 165.92515,30.2437209 C165.807784,30.2139535 165.690419,30.2437209 165.602395,30.3627907 C163.25509,33.5181395 161.113174,36.6734884 159.205988,39.8288372 C158.736527,40.6027907 158.237725,41.9125581 157.709581,43.6986047 C157.68024,43.787907 157.592216,43.8176744 157.533533,43.8176744 C157.504192,43.8176744 157.504192,43.8176744 157.504192,43.787907 C156.8,43.3116279 156.037126,43.0139535 155.215569,42.8651163 C155.068862,42.8353488 155.039521,42.775814 155.098204,42.6269767 C155.655689,41.1981395 156.183832,39.7693023 156.653293,38.3404651 C157.621557,35.3637209 159.000599,31.8809302 159.70479,28.4874419 C160.056886,26.8502326 160.614371,25.5106977 161.142515,23.9925581 C161.230539,23.7544186 161.465269,23.6353488 161.7,23.7246512 C161.758683,23.7544186 161.788024,23.7544186 161.846707,23.8139535 C162.492216,24.3795349 162.433533,24.9153488 162.198802,25.7488372 C161.993413,26.5227907 161.876048,27.415814 161.905389,28.3981395 C161.905389,28.6065116 162.081437,28.7851163 162.316168,28.7851163 C162.404192,28.7851163 162.492216,28.7553488 162.550898,28.695814 C162.756287,28.5172093 162.961677,28.3088372 163.196407,28.0706977 C163.871257,27.2967442 165.191617,25.7786047 167.128144,23.575814 C167.71497,22.8911628 168.15509,22.504186 169.123353,22.5339535 C170.062275,22.5339535 170.942515,22.6530233 171.764072,22.8018605 C171.94012,22.8316279 172.057485,23.0102326 172.028144,23.1888372 C171.705389,24.9153488 171.147904,26.4930233 170.355689,27.9516279 C170.091617,28.4576744 170.208982,28.904186 170.766467,29.0530233 C170.854491,29.0827907 170.942515,29.0530233 170.971856,28.9637209 C171.089222,28.7255814 171.147904,28.5469767 171.323952,28.3683721 C172.438922,27.2669767 173.905988,25.6 175.72515,23.3376744 C176.693413,22.1469767 178.013772,21.0753488 179.715569,20.1227907 C179.803593,20.0632558 179.891617,20.0632558 179.979641,20.0632558 C180.566467,20.1525581 181.006587,20.5097674 181.534731,20.9265116 C183.324551,22.295814 181.3,24.4093023 181.094611,26.0465116 C180.947904,27.2669767 180.85988,28.3683721 180.478443,29.5888372 C179.451497,32.8930233 178.688623,36.2865116 178.248503,39.7097674 C178.131138,40.5134884 177.95509,41.1088372 177.661677,41.4362791 C177.07485,42.1506977 176.253293,42.3590698 175.167665,42.0911628 C174.874251,42.0018605 174.698204,41.7339535 174.727545,41.4362791 C174.815569,40.4539535 174.932934,39.5013953 175.079641,38.5786047 C175.461078,36.1972093 176.928144,34.292093 177.192216,31.9106977 C177.309581,30.987907 177.338922,30.0948837 177.338922,29.2018605 C177.338922,28.9339535 177.104192,28.7255814 176.84012,28.7255814 C176.693413,28.7255814 176.576048,28.7851163 176.488024,28.904186 C175.138323,30.5711628 173.583234,32.0297674 172.409581,33.815814 C171.441317,35.2744186 170.443713,36.6734884 169.416766,38.0725581 C169.064671,38.5190698 168.653892,38.9060465 168.15509,39.2037209 C166.218563,40.3944186 165.04491,41.3172093 162.726946,40.215814 C162.550898,40.1265116 162.492216,39.9181395 162.550898,39.7395349 C162.550898,39.7395349 162.550898,39.7395349 162.550898,39.7395349 C163.108383,38.6381395 163.92994,38.0130233 164.340719,36.7032558 C164.986228,34.5897674 165.602395,32.5655814 166.130539,30.6009302 Z M170.707784,30.3925581 C170.737126,30.3627907 170.737126,30.3032558 170.707784,30.2734884 C170.707784,30.2734884 170.707784,30.2734884 170.707784,30.2734884 L170.61976,30.184186 C170.590419,30.1544186 170.531737,30.1544186 170.502395,30.184186 L169.299401,31.4939535 C169.27006,31.5237209 169.27006,31.5832558 169.299401,31.6130233 L169.387425,31.7023256 C169.416766,31.732093 169.475449,31.732093 169.50479,31.7023256 L170.707784,30.3925581 Z" id="Shape" fill="#FFFFFF" fill-rule="nonzero"></path>
                        <path d="M91.9263473,39.3525581 C92.0143713,38.1023256 92.0730539,37.0902326 92.454491,35.84 C93.0706587,33.7860465 93.4814371,31.7916279 94.391018,29.2018605 C94.860479,27.892093 95.7700599,25.8976744 96.239521,24.1711628 C96.2982036,23.9330233 96.4742515,23.7544186 96.708982,23.6651163 C98.557485,23.1293023 104.308383,22.9209302 102.518563,26.7311628 C101.080838,29.7674419 100.435329,32.1786047 99.0856287,36.2567442 C98.9682635,36.584186 98.8215569,36.9116279 98.645509,37.2390698 C98.3814371,37.7451163 97.3838323,38.7869767 98.4694611,39.144186 C98.8215569,39.2632558 99.1736527,39.2037209 99.4670659,38.9953488 C102.01976,37.1795349 103.926946,35.6613953 105.159281,34.4409302 C105.775449,33.8455814 106.391617,32.9227907 106.949102,31.6725581 C108.68024,27.9218605 110.176647,24.8855814 111.467665,22.5934884 C112.113174,21.4325581 113.697605,21.4325581 114.900599,21.8790698 C114.988623,21.9088372 115.017964,21.9683721 114.988623,22.0576744 C114.284431,23.8437209 113.492216,25.5702326 112.670659,27.2669767 C111.614371,29.4102326 110.880838,31.0176744 110.499401,32.0893023 C109.707186,34.1730233 109.032335,36.2567442 108.416168,38.4 C108.357485,38.5786047 108.445509,38.7869767 108.621557,38.9060465 L109.560479,39.4716279 C109.619162,39.5013953 109.648503,39.5609302 109.648503,39.6502326 C109.619162,40.1265116 109.501796,40.5134884 109.267066,40.7516279 C107.946707,42.1209302 106.362275,42.5972093 104.513772,42.2102326 C103.692216,42.0316279 103.721557,41.6744186 103.809581,40.96 C103.897605,40.1265116 103.956287,39.3227907 104.073653,38.6083721 C104.102994,38.3404651 103.926946,38.1023256 103.662874,38.0725581 C103.545509,38.0725581 103.428144,38.0725581 103.34012,38.1618605 C100.259281,40.215814 95.9461078,43.5795349 92.4251497,40.8111628 C92.3371257,40.7516279 92.2491018,40.7218605 92.1610778,40.7516279 C91.808982,40.8409302 91.4862275,40.9897674 91.1341317,41.0493023 C89.1389222,41.3767442 87.2023952,41.972093 85.3832335,42.8353488 C83.6814371,43.6390698 81.451497,45.4251163 79.3976048,46.2288372 C78.0185629,46.7646512 77.5491018,44.4427907 77.754491,43.5497674 C77.9892216,42.5376744 78.9281437,41.9125581 79.3095808,40.9004651 C79.9550898,39.2037209 80.4245509,37.2390698 80.9820359,35.6911628 C81.7742515,33.3990698 82.5077844,31.1069767 83.3586826,28.8446512 C83.6814371,27.9813953 83.8281437,27.0883721 84.1508982,26.2548837 C84.7377246,24.8855814 85.0017964,23.1590698 85.7646707,22.0874419 C86.4688623,21.1051163 88.9041916,19.0809302 89.7257485,21.015814 C89.9898204,21.6409302 89.5497006,22.772093 89.402994,23.3674419 C88.0826347,28.3981395 86.8796407,33.6074419 85.0311377,38.4595349 C85.0017964,38.5488372 85.0017964,38.6381395 85.060479,38.7274419 C85.8233533,40.1860465 87.9652695,39.5311628 89.2269461,39.2930233 C89.9311377,39.1739535 90.7820359,39.2037209 91.7209581,39.4716279 C91.8676647,39.5013953 91.9263473,39.4716279 91.9263473,39.3525581 Z" id="Path" fill="#FFFFFF"></path>
                        <path d="M121.238323,33.815814 C120.328743,33.3693023 119.565868,34.56 119.037725,35.3339535 C118.71497,35.7804651 118.333533,36.2269767 117.922754,36.6139535 C116.397006,38.0725581 115.017964,39.6502326 113.756287,41.3767442 C112.817365,42.6567442 111.526347,43.4009302 109.883234,43.6093023 C109.619162,43.6390698 109.35509,43.4604651 109.296407,43.1925581 C109.091018,42.24 109.707186,41.2576744 110.02994,40.3944186 C110.382036,39.4418605 110.880838,39.0548837 111.526347,38.3404651 C112.553293,37.1795349 112.993413,35.7209302 114.108383,34.5302326 C115.311377,33.2204651 116.48503,31.9106977 117.629341,30.5711628 C118.568263,29.4697674 118.891018,28.6362791 118.128144,27.2669767 C117.130539,25.4809302 116.132934,23.9032558 116.279641,22.2065116 C116.279641,22.0874419 116.397006,21.9683721 116.543713,21.9981395 C116.602395,21.9981395 116.631737,22.027907 116.661078,22.0576744 C117.776048,22.9209302 118.802994,25.0344186 119.477844,26.2846512 C119.888623,27.0288372 120.358084,27.3265116 121.062275,26.7013953 C123.262874,24.7665116 125.727545,22.7423256 128.426946,20.6586047 C128.896407,20.3013953 129.424551,20.212093 129.952695,20.4204651 C131.478443,20.9860465 132.329341,22.027907 132.534731,23.575814 C132.593413,23.9925581 132.417365,24.3497674 132.006587,24.6176744 C130.334132,25.6893023 128.661677,26.7311628 126.95988,27.7730233 C125.639521,28.5767442 124.553892,29.8567442 123.233533,30.7497674 C122.910778,30.9581395 122.793413,31.3748837 122.969461,31.732093 C124.671257,35.5125581 126.108982,39.4418605 129.160479,42.3293023 C129.453892,42.5972093 129.453892,42.8651163 129.101796,43.1032558 C128.016168,43.8474419 127.106587,43.787907 126.402395,42.8651163 C125.199401,41.2874419 123.908383,39.6204651 123.204192,37.7153488 C122.793413,36.5246512 122.353293,34.3516279 121.238323,33.815814 Z" id="Path" fill="#FFFFFF"></path>
                        <path d="M232.794012,20.8074419 C233.028743,20.7776744 233.263473,20.7776744 233.468862,20.8074419 C233.64491,20.8372093 233.64491,20.9265116 233.527545,21.0455814 C233.322156,21.224186 233.087425,21.3432558 232.823353,21.3432558 C232.676647,21.3432558 232.559281,21.224186 232.559281,21.0753488 C232.588623,20.9562791 232.676647,20.8372093 232.794012,20.8074419 Z" id="Path" fill="#080705"></path>
                        <path d="M195.32515,33.3693023 C194.122156,36.2865116 192.185629,38.6381395 189.574251,40.3646512 C189.134132,40.6623256 188.664671,40.8409302 188.136527,40.9302326 C188.048503,40.96 187.960479,40.9302326 187.872455,40.8706977 C187.402994,40.6027907 187.08024,40.215814 186.933533,39.68 C186.728144,38.9655814 186.434731,37.655814 185.994611,35.7506977 C185.642515,34.1730233 185.789222,32.9525581 186.346707,31.5237209 C186.376048,31.4344186 186.464072,31.3748837 186.552096,31.4046512 C187.696407,31.7618605 189.368862,32.5655814 190.014371,30.9581395 C190.923952,28.6362791 192.185629,26.4334884 193.740719,24.3497674 C194.650299,23.1590698 196.469461,23.3674419 197.026946,24.7069767 C197.173653,25.064186 197.173653,25.6 197.026946,26.3144186 C196.704192,27.8325581 196.381437,29.3506977 196.146707,30.8986047 C196,31.7916279 195.647904,32.5655814 195.32515,33.3693023 Z" id="Path" fill="#080705"></path>
                        <path d="M170.61976,30.2139535 L170.707784,30.3032558 C170.737126,30.3330233 170.737126,30.3925581 170.707784,30.4223256 L169.50479,31.732093 C169.475449,31.7618605 169.416766,31.7618605 169.387425,31.732093 L169.299401,31.6427907 C169.27006,31.6130233 169.27006,31.5534884 169.299401,31.5237209 L170.502395,30.2139535 C170.561078,30.184186 170.590419,30.184186 170.61976,30.2139535 Z" id="Path" fill="#818181"></path>
                        <circle id="Oval" fill="#DEDCDC" transform="translate(208.047583, 34.408644) rotate(-67.101589) translate(-208.047583, -34.408644) " cx="208.047583" cy="34.4086445" r="1"></circle>
                        <path d="M35.7377246,42.8353488 L37.3808383,43.4902326 C37.4688623,43.52 37.5568862,43.5795349 37.6155689,43.6688372 C38.2904192,44.6213953 38.8479042,45.6334884 39.2586826,46.7348837 C39.3467066,46.9432558 39.2293413,47.1813953 39.0239521,47.2706977 C38.9065868,47.3302326 38.7892216,47.3004651 38.6718563,47.2409302 C37.7916168,46.6753488 36.8233533,46.347907 35.7964072,46.1990698 C35.6790419,46.1990698 35.5616766,46.1097674 35.5323353,45.9906977 C35.2095808,45.0381395 34.7694611,44.1451163 34.1826347,43.3116279 C33.742515,42.6567442 33.5958084,41.9125581 34.3586826,41.4660465 C35.0335329,41.0790698 36.0898204,40.6623256 37.5568862,40.2455814 C38.6131737,39.947907 39.6107784,39.2037209 40.9017964,39.2037209 C42.7796407,39.1739535 44.9215569,39.1739535 47.3862275,39.2632558 C47.8850299,39.2632558 48.5305389,39.2037209 49.088024,39.412093 C49.2053892,39.4418605 49.2640719,39.5609302 49.2347305,39.68 C49.2053892,39.7395349 49.1760479,39.7990698 49.088024,39.8288372 C46.6233533,40.6027907 44.2173653,41.4660465 41.8700599,42.3590698 C40.1095808,43.0437209 37.7329341,42.7460465 35.8550898,42.5376744 C35.7377246,42.5376744 35.6497006,42.5972093 35.6497006,42.7162791 C35.591018,42.7162791 35.6497006,42.8055814 35.7377246,42.8353488 Z" id="Path" fill="#FFFFFF"></path>
                        <path d="M31.1898204,50.8427907 C31.1017964,51.2 30.9550898,51.4976744 30.7790419,51.7655814 C30.7497006,51.8251163 30.6616766,51.8251163 30.6323353,51.7953488 C30.602994,51.7655814 30.602994,51.7655814 30.5736527,51.735814 C30.4562874,50.9916279 30.5443114,50.1581395 30.4562874,49.5032558 C30.1922156,47.9255814 29.8401198,46.3181395 29.4293413,44.6511628 C29.3413174,44.3237209 29.5467066,43.9962791 29.8694611,43.9069767 C29.9281437,43.9069767 29.957485,43.8772093 30.0161677,43.8772093 L32.1874251,43.8772093 C32.3047904,43.8772093 32.3634731,43.9367442 32.3634731,44.055814 C32.1874251,46.1395349 31.805988,48.4018605 31.1898204,50.8427907 Z" id="Path" fill="#FFFFFF"></path>
                        <path d="M105.658084,49.8306977 L210.993413,49.8306977 C211.286826,49.8306977 211.521557,50.0688372 211.521557,50.3665116 L211.521557,50.8130233 C211.521557,51.1106977 211.286826,51.3488372 210.993413,51.3488372 L105.658084,51.3488372 C105.364671,51.3488372 105.12994,51.1106977 105.12994,50.8130233 L105.12994,50.3665116 C105.100599,50.0986047 105.364671,49.8306977 105.658084,49.8306977 Z" id="Path" fill="#CF242A"></path>
                        <path d="M60.4724551,1.33953488 C60.9125749,1.33953488 61.2353293,1.69674419 61.2353293,2.11348837 L61.2353293,61.7376744 C61.2353293,62.184186 60.8832335,62.5116279 60.4724551,62.5116279 L2.17125749,62.5116279 C1.73113772,62.5116279 1.40838323,62.1544186 1.40838323,61.7376744 L1.40838323,2.11348837 C1.40838323,1.66697674 1.76047904,1.33953488 2.17125749,1.33953488 L60.4724551,1.33953488 Z M60.4724551,0.148837209 L2.17125749,0.148837209 C1.08562874,0.148837209 0.234730539,1.04186047 0.234730539,2.11348837 L0.234730539,61.7376744 C0.234730539,62.8390698 1.11497006,63.7023256 2.17125749,63.7023256 L60.4724551,63.7023256 C61.5580838,63.7023256 62.408982,62.8093023 62.408982,61.7376744 L62.408982,2.11348837 C62.408982,1.04186047 61.5287425,0.148837209 60.4724551,0.148837209 Z" id="Shape" fill="#000000" fill-rule="nonzero"></path>
                        <path d="M243.180838,1.33953488 C243.532934,1.33953488 243.826347,1.6372093 243.826347,1.9944186 L243.826347,61.8865116 C243.826347,62.2437209 243.532934,62.5413953 243.180838,62.5413953 L73.2946108,62.5413953 C72.942515,62.5413953 72.6491018,62.2437209 72.6491018,61.8865116 L72.6491018,1.96465116 C72.6491018,1.60744186 72.942515,1.30976744 73.2946108,1.30976744 L243.180838,1.30976744 L243.180838,1.33953488 Z M243.180838,0.148837209 L73.2946108,0.148837209 C72.297006,0.148837209 71.4754491,0.982325581 71.4754491,1.9944186 L71.4754491,61.8865116 C71.4754491,62.8986047 72.297006,63.732093 73.2946108,63.732093 L243.180838,63.732093 C244.178443,63.732093 245,62.8986047 245,61.8865116 L245,1.96465116 C244.970659,0.95255814 244.178443,0.148837209 243.180838,0.148837209 Z" id="Shape" fill="#000000" fill-rule="nonzero"></path>
                    </g>
                </g>
            </g>
        </g>
    </g>
</svg>