<svg width="190px" height="156px" viewBox="0 0 190 156" version="1.1" xmlns="http://www.w3.org/2000/svg" xmlns:xlink="http://www.w3.org/1999/xlink">
    <title>Lux Smoke - Logo</title>
    <defs>
        <linearGradient x1="-0.000226423639%" y1="49.9996926%" x2="99.9994663%" y2="49.9996926%" id="linearGradient-1">
            <stop stop-color="#FBCA2A" offset="0.56%"></stop>
            <stop stop-color="#FDF9CE" offset="25.28%"></stop>
            <stop stop-color="#F6EBBC" offset="29.68%"></stop>
            <stop stop-color="#E7D192" offset="38.41%"></stop>
            <stop stop-color="#D1AC58" offset="50.54%"></stop>
            <stop stop-color="#C2922E" offset="59.55%"></stop>
            <stop stop-color="#E5C977" offset="82.46%"></stop>
            <stop stop-color="#EED688" offset="87.08%"></stop>
            <stop stop-color="#FDF9CE" offset="100%"></stop>
        </linearGradient>
        <linearGradient x1="-0.000114509499%" y1="49.9997985%" x2="100.000115%" y2="49.9997985%" id="linearGradient-2">
            <stop stop-color="#FBCA2A" offset="0.56%"></stop>
            <stop stop-color="#FDF9CE" offset="25.28%"></stop>
            <stop stop-color="#F6EBBC" offset="29.68%"></stop>
            <stop stop-color="#E7D192" offset="38.41%"></stop>
            <stop stop-color="#D1AC58" offset="50.54%"></stop>
            <stop stop-color="#C2922E" offset="59.55%"></stop>
            <stop stop-color="#E5C977" offset="82.46%"></stop>
            <stop stop-color="#EED688" offset="87.08%"></stop>
            <stop stop-color="#FDF9CE" offset="100%"></stop>
        </linearGradient>
        <linearGradient x1="0.00102453185%" y1="50%" x2="100.002049%" y2="50%" id="linearGradient-3">
            <stop stop-color="#FBCA2A" offset="0.56%"></stop>
            <stop stop-color="#FDF9CE" offset="25.28%"></stop>
            <stop stop-color="#F6EBBC" offset="29.68%"></stop>
            <stop stop-color="#E7D192" offset="38.41%"></stop>
            <stop stop-color="#D1AC58" offset="50.54%"></stop>
            <stop stop-color="#C2922E" offset="59.55%"></stop>
            <stop stop-color="#E5C977" offset="82.46%"></stop>
            <stop stop-color="#EED688" offset="87.08%"></stop>
            <stop stop-color="#FDF9CE" offset="100%"></stop>
        </linearGradient>
        <linearGradient x1="0.000394679717%" y1="50.0008504%" x2="100.000395%" y2="50.0008504%" id="linearGradient-4">
            <stop stop-color="#FBCA2A" offset="0.56%"></stop>
            <stop stop-color="#FDF9CE" offset="25.28%"></stop>
            <stop stop-color="#F6EBBC" offset="29.68%"></stop>
            <stop stop-color="#E7D192" offset="38.41%"></stop>
            <stop stop-color="#D1AC58" offset="50.54%"></stop>
            <stop stop-color="#C2922E" offset="59.55%"></stop>
            <stop stop-color="#E5C977" offset="82.46%"></stop>
            <stop stop-color="#EED688" offset="87.08%"></stop>
            <stop stop-color="#FDF9CE" offset="100%"></stop>
        </linearGradient>
        <linearGradient x1="-0.000589118973%" y1="49.9996377%" x2="100.000393%" y2="49.9996377%" id="linearGradient-5">
            <stop stop-color="#FBCA2A" offset="0.56%"></stop>
            <stop stop-color="#FDF9CE" offset="25.28%"></stop>
            <stop stop-color="#F6EBBC" offset="29.68%"></stop>
            <stop stop-color="#E7D192" offset="38.41%"></stop>
            <stop stop-color="#D1AC58" offset="50.54%"></stop>
            <stop stop-color="#C2922E" offset="59.55%"></stop>
            <stop stop-color="#E5C977" offset="82.46%"></stop>
            <stop stop-color="#EED688" offset="87.08%"></stop>
            <stop stop-color="#FDF9CE" offset="100%"></stop>
        </linearGradient>
        <linearGradient x1="-0.000372044571%" y1="50.000472%" x2="100.001674%" y2="50.000472%" id="linearGradient-6">
            <stop stop-color="#FBCA2A" offset="0.56%"></stop>
            <stop stop-color="#FDF9CE" offset="25.28%"></stop>
            <stop stop-color="#F6EBBC" offset="29.68%"></stop>
            <stop stop-color="#E7D192" offset="38.41%"></stop>
            <stop stop-color="#D1AC58" offset="50.54%"></stop>
            <stop stop-color="#C2922E" offset="59.55%"></stop>
            <stop stop-color="#E5C977" offset="82.46%"></stop>
            <stop stop-color="#EED688" offset="87.08%"></stop>
            <stop stop-color="#FDF9CE" offset="100%"></stop>
        </linearGradient>
        <linearGradient x1="-0.00184274052%" y1="50.00047%" x2="99.997973%" y2="50.00047%" id="linearGradient-7">
            <stop stop-color="#FBCA2A" offset="0.56%"></stop>
            <stop stop-color="#FDF9CE" offset="25.28%"></stop>
            <stop stop-color="#F6EBBC" offset="29.68%"></stop>
            <stop stop-color="#E7D192" offset="38.41%"></stop>
            <stop stop-color="#D1AC58" offset="50.54%"></stop>
            <stop stop-color="#C2922E" offset="59.55%"></stop>
            <stop stop-color="#E5C977" offset="82.46%"></stop>
            <stop stop-color="#EED688" offset="87.08%"></stop>
            <stop stop-color="#FDF9CE" offset="100%"></stop>
        </linearGradient>
        <linearGradient x1="-0.000712514607%" y1="49.9992908%" x2="99.9995725%" y2="49.9992908%" id="linearGradient-8">
            <stop stop-color="#FBCA2A" offset="0.56%"></stop>
            <stop stop-color="#FDF9CE" offset="25.28%"></stop>
            <stop stop-color="#F6EBBC" offset="29.68%"></stop>
            <stop stop-color="#E7D192" offset="38.41%"></stop>
            <stop stop-color="#D1AC58" offset="50.54%"></stop>
            <stop stop-color="#C2922E" offset="59.55%"></stop>
            <stop stop-color="#E5C977" offset="82.46%"></stop>
            <stop stop-color="#EED688" offset="87.08%"></stop>
            <stop stop-color="#FDF9CE" offset="100%"></stop>
        </linearGradient>
        <linearGradient x1="0.000709975151%" y1="50.0003522%" x2="99.999503%" y2="50.0003522%" id="linearGradient-9">
            <stop stop-color="#FBCA2A" offset="0.56%"></stop>
            <stop stop-color="#FDF9CE" offset="25.28%"></stop>
            <stop stop-color="#F6EBBC" offset="29.68%"></stop>
            <stop stop-color="#E7D192" offset="38.41%"></stop>
            <stop stop-color="#D1AC58" offset="50.54%"></stop>
            <stop stop-color="#C2922E" offset="59.55%"></stop>
            <stop stop-color="#E5C977" offset="82.46%"></stop>
            <stop stop-color="#EED688" offset="87.08%"></stop>
            <stop stop-color="#FDF9CE" offset="100%"></stop>
        </linearGradient>
        <linearGradient x1="-0.00022073837%" y1="49.9998818%" x2="99.9998896%" y2="49.9998818%" id="linearGradient-10">
            <stop stop-color="#FBCA2A" offset="0.56%"></stop>
            <stop stop-color="#FDF9CE" offset="25.28%"></stop>
            <stop stop-color="#F6EBBC" offset="29.68%"></stop>
            <stop stop-color="#E7D192" offset="38.41%"></stop>
            <stop stop-color="#D1AC58" offset="50.54%"></stop>
            <stop stop-color="#C2922E" offset="59.55%"></stop>
            <stop stop-color="#E5C977" offset="82.46%"></stop>
            <stop stop-color="#EED688" offset="87.08%"></stop>
            <stop stop-color="#FDF9CE" offset="100%"></stop>
        </linearGradient>
        <linearGradient x1="-0.00021952692%" y1="49.999295%" x2="99.9998902%" y2="49.999295%" id="linearGradient-11">
            <stop stop-color="#FBCA2A" offset="0.56%"></stop>
            <stop stop-color="#FDF9CE" offset="25.28%"></stop>
            <stop stop-color="#F6EBBC" offset="29.68%"></stop>
            <stop stop-color="#E7D192" offset="38.41%"></stop>
            <stop stop-color="#D1AC58" offset="50.54%"></stop>
            <stop stop-color="#C2922E" offset="59.55%"></stop>
            <stop stop-color="#E5C977" offset="82.46%"></stop>
            <stop stop-color="#EED688" offset="87.08%"></stop>
            <stop stop-color="#FDF9CE" offset="100%"></stop>
        </linearGradient>
        <linearGradient x1="-8.52158945e-05%" y1="50.0003809%" x2="99.9995739%" y2="50.0003809%" id="linearGradient-12">
            <stop stop-color="#FBCA2A" offset="0.56%"></stop>
            <stop stop-color="#FDF9CE" offset="25.28%"></stop>
            <stop stop-color="#F6EBBC" offset="29.68%"></stop>
            <stop stop-color="#E7D192" offset="38.41%"></stop>
            <stop stop-color="#D1AC58" offset="50.54%"></stop>
            <stop stop-color="#C2922E" offset="59.55%"></stop>
            <stop stop-color="#E5C977" offset="82.46%"></stop>
            <stop stop-color="#EED688" offset="87.08%"></stop>
            <stop stop-color="#FDF9CE" offset="100%"></stop>
        </linearGradient>
        <linearGradient x1="-8.48291542e-05%" y1="49.9998484%" x2="100.001866%" y2="49.9998484%" id="linearGradient-13">
            <stop stop-color="#FBCA2A" offset="0.56%"></stop>
            <stop stop-color="#FDF9CE" offset="25.28%"></stop>
            <stop stop-color="#F6EBBC" offset="29.68%"></stop>
            <stop stop-color="#E7D192" offset="38.41%"></stop>
            <stop stop-color="#D1AC58" offset="50.54%"></stop>
            <stop stop-color="#C2922E" offset="59.55%"></stop>
            <stop stop-color="#E5C977" offset="82.46%"></stop>
            <stop stop-color="#EED688" offset="87.08%"></stop>
            <stop stop-color="#FDF9CE" offset="100%"></stop>
        </linearGradient>
        <linearGradient x1="8.62106126e-05%" y1="49.9990883%" x2="99.998362%" y2="49.9990883%" id="linearGradient-14">
            <stop stop-color="#FBCA2A" offset="0.56%"></stop>
            <stop stop-color="#FDF9CE" offset="25.28%"></stop>
            <stop stop-color="#F6EBBC" offset="29.68%"></stop>
            <stop stop-color="#E7D192" offset="38.41%"></stop>
            <stop stop-color="#D1AC58" offset="50.54%"></stop>
            <stop stop-color="#C2922E" offset="59.55%"></stop>
            <stop stop-color="#E5C977" offset="82.46%"></stop>
            <stop stop-color="#EED688" offset="87.08%"></stop>
            <stop stop-color="#FDF9CE" offset="100%"></stop>
        </linearGradient>
        <linearGradient x1="-0.000257272228%" y1="49.9999432%" x2="99.9998285%" y2="49.9999432%" id="linearGradient-15">
            <stop stop-color="#FBCA2A" offset="0.56%"></stop>
            <stop stop-color="#FDF9CE" offset="25.28%"></stop>
            <stop stop-color="#F6EBBC" offset="29.68%"></stop>
            <stop stop-color="#E7D192" offset="38.41%"></stop>
            <stop stop-color="#D1AC58" offset="50.54%"></stop>
            <stop stop-color="#C2922E" offset="59.55%"></stop>
            <stop stop-color="#E5C977" offset="82.46%"></stop>
            <stop stop-color="#EED688" offset="87.08%"></stop>
            <stop stop-color="#FDF9CE" offset="100%"></stop>
        </linearGradient>
        <linearGradient x1="0.000263989229%" y1="50.0007201%" x2="100.000528%" y2="50.0007201%" id="linearGradient-16">
            <stop stop-color="#FBCA2A" offset="0.56%"></stop>
            <stop stop-color="#FDF9CE" offset="25.28%"></stop>
            <stop stop-color="#F6EBBC" offset="29.68%"></stop>
            <stop stop-color="#E7D192" offset="38.41%"></stop>
            <stop stop-color="#D1AC58" offset="50.54%"></stop>
            <stop stop-color="#C2922E" offset="59.55%"></stop>
            <stop stop-color="#E5C977" offset="82.46%"></stop>
            <stop stop-color="#EED688" offset="87.08%"></stop>
            <stop stop-color="#FDF9CE" offset="100%"></stop>
        </linearGradient>
        <linearGradient x1="0.000262832812%" y1="49.9997611%" x2="100.000526%" y2="49.9997611%" id="linearGradient-17">
            <stop stop-color="#FBCA2A" offset="0.56%"></stop>
            <stop stop-color="#FDF9CE" offset="25.28%"></stop>
            <stop stop-color="#F6EBBC" offset="29.68%"></stop>
            <stop stop-color="#E7D192" offset="38.41%"></stop>
            <stop stop-color="#D1AC58" offset="50.54%"></stop>
            <stop stop-color="#C2922E" offset="59.55%"></stop>
            <stop stop-color="#E5C977" offset="82.46%"></stop>
            <stop stop-color="#EED688" offset="87.08%"></stop>
            <stop stop-color="#FDF9CE" offset="100%"></stop>
        </linearGradient>
    </defs>
    <g id="Home" stroke="none" stroke-width="1" fill="none" fill-rule="evenodd">
        <g id="Desktop-HD" transform="translate(-313.000000, -53.000000)">
            <g id="Menu-Bar" transform="translate(-990.000000, -90.000000)">
                <g id="Lux-Smoke---Logo" transform="translate(1294.000000, 122.000000)">
                    <rect id="Rectangle" x="0" y="0" width="207" height="199"></rect>
                    <g id="Group" transform="translate(9.000000, 21.000000)">
                        <g id="Group-3">
                            <path d="M89.9883252,23.6963144 C91.1203058,25.7878785 93.471652,27.3976715 94.4297568,27.9927608 L94.4203702,29.1057484 C93.3802442,28.5218787 90.2250019,25.8224349 89.9883252,23.6963144 Z M88.9245093,30.1366084 C90.102082,32.3120953 93.2510666,34.6480229 94.365168,35.4311533 L94.3555579,36.5475069 C93.2010047,35.8500944 89.1683377,32.3237637 88.9245093,30.1366084 Z M88.0014925,36.2477182 C89.112912,38.3011355 92.7140183,41.2227281 94.304155,42.4523999 L94.291863,43.886269 C92.4485113,42.3738625 88.2245362,38.2461593 88.0014925,36.2477182 Z M86.9463927,43.7830484 C88.0001515,45.7301036 92.1076879,48.435606 94.2411306,49.7503226 L94.2263802,51.4384286 C91.7673115,49.6215212 87.1553565,45.6603175 86.9463927,43.7830484 Z M86.0160007,51.873526 C87.3093416,53.8333716 92.0645542,56.3705794 94.1745304,57.4306104 L94.1604504,59.0576816 C91.6059512,57.5028648 86.4039806,53.7752539 86.0160007,51.873526 Z M85.0116333,57.5490897 C86.3317931,59.5499991 91.8372641,62.2979117 94.122904,63.3785868 L94.111059,64.7357137 C91.2805487,63.214107 85.4027421,59.4656275 85.0116333,57.5490897 Z M86.0660626,64.5802096 C87.3862225,65.9191606 91.2550707,67.2563165 94.0820052,68.0980134 L94.0723951,69.1780153 C90.8188168,67.9290457 86.6752984,65.9997176 86.0660626,64.5802096 Z M86.4609708,70.128767 C87.6675973,71.4930745 91.2816661,72.9765344 94.0312728,73.9602718 L94.0216627,75.0456592 C90.8731251,73.6364732 86.9774579,71.5511922 86.4609708,70.128767 Z M88.9694309,76.2605211 C89.571515,77.6876584 91.8732462,79.7199828 93.966684,81.3571517 L93.9559564,82.5874967 C91.5684048,80.4090927 88.9852987,77.6506336 88.9694309,76.2605211 Z M94.6764906,16.5630959 C94.1182107,16.0909738 92.9475662,14.987635 92.9473427,13.9251357 C93.3663878,14.949937 94.1635793,15.6599154 94.6729147,16.0481148 L94.6764906,16.5630959 Z M95.5887798,99.5327333 L95.5890033,99.5327333 C95.9378723,99.5327333 96.2286338,99.2894917 96.272885,98.9771371 L96.2733319,98.9771371 L96.2731085,98.9728736 C96.2764608,98.9470685 96.2782487,98.9208145 96.2782487,98.8952338 C96.2782487,93.3412909 95.7736066,87.9659645 95.522403,82.4391731 C97.8634686,80.2852279 100.331924,77.6192187 100.347121,76.2607454 C99.7611285,77.6513068 97.5610856,79.6158646 95.5125695,81.2294723 L95.4598256,74.9713852 C98.5779685,73.5642188 102.348257,71.5271821 102.855805,70.1289914 C101.673539,71.4661473 98.1776966,72.9179679 95.4506625,73.9012566 L95.4108812,69.1136146 C98.6374171,67.8637475 102.651758,65.975932 103.250713,64.5802096 C101.956255,65.8929067 98.2118907,67.2038086 95.401718,68.0477494 L95.3733347,64.6443859 C98.2617291,63.0693737 103.921409,59.4286027 104.305366,57.5488653 C103.016271,59.5019791 97.7383138,62.1679884 95.3619367,63.2982543 L95.3255077,58.9537878 C97.9331977,57.3430973 102.920841,53.7346388 103.300551,51.873526 C102.040734,53.7828832 97.4969438,56.2399829 95.3120983,57.3448924 L95.2611424,51.3107492 C97.757087,49.4420071 102.165889,45.6176828 102.370159,43.782824 C101.34389,45.6787176 97.4225214,48.2942386 95.2472859,49.6441849 L95.1978945,43.7422089 C97.1192444,42.1265817 101.098944,38.1855733 101.314613,36.2474939 C100.242081,38.2293299 96.8503851,41.0192039 95.185379,42.3173155 L95.136211,36.4339642 C96.4753676,35.5307837 100.158942,32.2239089 100.391819,30.1361596 C99.2714603,32.2061819 96.3656336,34.4220595 95.1268244,35.3061666 L95.0738571,28.99804 C96.2543352,28.2440806 99.1033953,25.7124825 99.32778,23.6958656 C98.2612821,25.667604 96.1101837,27.2107524 95.064247,27.8801157 L95.0199958,22.5923025 C95.656274,22.0744042 97.721105,20.2714091 97.721105,18.6340159 C97.0631482,20.2433601 95.6529216,21.3868651 95.0135146,21.8488896 L94.968593,16.4724413 C95.5463166,15.9751871 96.6373984,14.9106683 96.6373984,13.8849694 C96.2324331,14.8754387 95.4747995,15.5710559 94.9643467,15.9677822 L94.9350694,12.5015887 L94.9116028,16.0083973 L94.908027,16.5233784 L94.8981934,98.9766883 L94.9042276,98.9766883 C94.9491493,99.2894917 95.2401342,99.5327333 95.5887798,99.5327333 Z M91.7590424,18.7722417 C92.4330905,20.4210791 93.8960609,21.5802916 94.5117779,22.0196524 L94.5356914,22.7915632 C94.0098177,22.3719489 91.7590424,20.4812163 91.7590424,18.7722417 Z M148.01658,57.0688894 C147.961601,56.4026676 147.928971,54.8678218 148.609054,53.6069594 C147.531158,54.5292132 147.49607,56.787501 147.512608,57.4880549 L148.01658,57.0688894 Z M143.963799,60.4401649 C143.813389,59.4793155 143.600403,57.3363655 144.31602,55.5782489 C143.087268,56.8696287 143.035195,59.990482 143.212423,61.0657716 L143.963799,60.4401649 Z M138.968557,64.5963658 C138.851671,63.380382 138.673326,60.4635017 139.413527,58.6452479 C138.157956,59.9651256 138.050904,63.9330611 138.210029,65.2271336 L138.968557,64.5963658 Z M134.256925,68.5160569 C134.17401,66.8055116 134.108304,63.3307912 134.810288,61.6049872 C133.653053,62.8218686 133.290998,67.2608044 133.302173,69.310407 L134.256925,68.5160569 Z M129.322473,72.6222184 C128.982544,70.5894452 128.513883,66.9453083 129.182344,65.3025296 C128.091933,66.4489517 128.041647,71.0290304 128.210606,73.5467161 L129.322473,72.6222184 Z M124.129665,76.9424504 C123.612731,75.0144686 122.713628,71.1564855 123.255146,69.38872 C122.251673,70.6415043 122.652839,75.3764139 123.058698,77.8332893 L124.129665,76.9424504 Z M120.11756,80.2805157 C119.500502,78.2057811 118.344384,73.8559292 118.897077,72.0533829 C117.885558,73.3155917 118.628441,78.4173834 119.220468,81.0266213 L120.11756,80.2805157 Z M116.892812,82.96313 C115.869001,80.8917613 114.675336,78.1169216 114.80876,76.6677937 C114.233942,77.779435 115.203445,81.0180944 116.187698,83.5496925 L116.892812,82.96313 Z M112.957587,86.2372434 C112.079268,84.1447818 111.123175,81.4525186 111.333703,80.0592645 C110.709046,81.1159296 111.439414,84.2756027 112.252473,86.8238059 L112.957587,86.2372434 Z M108.999565,89.5302058 C108.926484,87.5203207 109.004259,85.3219457 109.567679,84.2504708 C108.710368,84.9990447 108.335127,87.7052203 108.215336,90.1829641 L108.999565,89.5302058 Z M152.401021,51.6385869 C151.762061,52.1854318 151.643611,53.398723 151.628861,54.063374 L151.967896,53.7815369 C151.952252,53.2389554 152.004772,52.3723509 152.401021,51.6385869 Z M149.335175,102.896828 C149.652756,103.220627 150.465815,103.970772 151.183444,103.973464 C150.49241,103.728427 149.947316,103.191007 149.685832,102.895257 L149.335175,102.896828 Z M149.636217,102.769149 C149.989556,102.419994 150.746966,101.759606 151.420567,101.757362 C150.776244,101.985345 150.258862,102.467789 149.979723,102.771617 L149.636217,102.769149 Z M136.722698,102.67266 C137.405016,101.831412 139.628302,99.7218964 141.048138,99.5812022 C139.643499,100.238673 138.145888,101.91152 137.506928,102.67827 L136.722698,102.67266 Z M131.532573,102.633616 C132.282384,101.690942 134.517739,99.4196394 136.061166,99.2675012 C134.536289,99.9803967 132.912181,101.782943 132.196117,102.638777 L131.532573,102.633616 Z M127.604053,102.604445 C128.818948,101.192566 130.918644,98.8492333 132.08169,98.7338954 C130.885344,99.2937551 129.253638,101.376568 128.359675,102.60983 L127.604053,102.604445 Z M122.764584,102.568317 C123.94685,101.165863 126.029113,98.4940197 127.177632,98.3802526 C125.995143,98.9338293 124.336618,101.343358 123.465674,102.573703 L122.764584,102.568317 Z M119.230972,102.542063 C120.439833,101.034369 122.560537,97.7463433 123.69587,97.6339226 C122.528801,98.1803187 120.863348,101.202215 119.968491,102.547449 L119.230972,102.542063 Z M116.178312,102.518727 C117.031152,100.895021 118.452554,98.4718048 119.270306,98.2146508 C118.491441,98.8083938 117.41064,101.090467 116.807215,102.523888 L116.178312,102.518727 Z M112.639559,102.492473 C113.507821,100.848796 114.913578,98.4706828 115.728201,98.2146508 C114.954029,98.8050279 113.88485,101.041774 113.267792,102.497185 L112.639559,102.492473 Z M107.871608,102.456794 C108.957996,101.458696 111.030873,99.6415638 111.918355,99.6480537 C110.993326,99.9642404 109.571255,101.551594 108.751938,102.463302 L107.871608,102.456794 Z M145.50879,102.737958 C145.930294,102.301739 147.146083,101.145219 148.215934,101.141404 C147.181395,101.507613 146.374146,102.328666 146.016561,102.741773 L145.50879,102.737958 Z M144.904471,100.285122 C143.603085,100.893675 142.584637,102.111005 142.137432,102.712826 L141.39522,102.707665 C141.907684,102.024165 143.571796,100.416392 144.904471,100.285122 Z M106.378466,109.10869 C105.913158,108.9018 104.248152,109.365171 103.114831,109.734746 L103.377209,109.983597 C104.317434,109.595622 105.778617,109.061119 106.378466,109.10869 Z M108.306297,110.711976 C107.814618,110.494091 106.014176,111.007052 104.858505,111.390091 L105.13407,111.651508 C106.085246,111.252538 107.670243,110.661263 108.306297,110.711976 Z M112.492502,114.657921 C111.904722,114.228658 109.636961,114.588359 108.392565,114.742741 L108.70724,115.041184 C109.720994,114.83564 111.671621,114.416923 112.492502,114.657921 Z M106.723536,113.158529 C107.69572,112.948722 109.965269,112.226851 110.76112,112.460444 C110.192783,112.045093 107.597161,112.69269 106.401262,112.853355 L106.723536,113.158529 Z M114.256738,116.635269 C113.663817,116.201743 111.529481,116.413569 110.302517,116.554712 L110.639094,116.873799 C111.631169,116.681045 113.427364,116.391579 114.256738,116.635269 Z M115.820056,118.551807 C115.024206,117.969508 112.855004,118.085519 112.045744,118.208486 L112.344551,118.49167 C113.093022,118.395854 114.751994,118.238555 115.820056,118.551807 Z M117.590326,120.570219 C116.884542,120.069599 114.92654,120.127717 114.181198,120.234528 L114.521351,120.557429 C115.189589,120.462959 116.645407,120.307006 117.590326,120.570219 Z M122.180603,126.938932 C121.891853,126.679085 121.309212,126.63847 120.935759,126.642733 L121.090415,126.789037 C121.38587,126.774901 121.809385,126.789711 122.180603,126.938932 Z M119.328637,125.118434 C119.712594,125.082756 120.404522,125.065926 120.99789,125.304904 C120.548897,124.900549 119.569113,124.892022 119.111851,124.912442 L119.328637,125.118434 Z M117.094177,122.997923 C117.574905,122.889766 118.492558,122.738077 119.293102,122.925444 C118.680514,122.529167 117.390302,122.608378 116.80118,122.719901 L117.094177,122.997923 Z M101.74081,108.431698 C102.53152,108.183295 103.775693,107.80654 104.362579,107.914248 C103.925432,107.662031 102.416422,107.925692 101.425464,108.132134 L101.74081,108.431698 Z M43.1531576,57.0688894 C43.2081363,56.4026676 43.2409894,54.8678218 42.5611306,53.6069594 C43.638803,54.5292132 43.673444,56.787501 43.6573527,57.4880549 L43.1531576,57.0688894 Z M47.2057153,60.4401649 C47.356795,59.4793155 47.5697817,57.3363655 46.8541643,55.5782489 C48.0829165,56.8696287 48.1343193,59.990482 47.9570912,61.0657716 L47.2057153,60.4401649 Z M52.2009569,64.5963658 C52.3178426,63.380382 52.4961882,60.4635017 51.7562103,58.6452479 C53.0117814,59.9651256 53.1190569,63.9330611 52.959708,65.2271336 L52.2009569,64.5963658 Z M56.9128123,68.5160569 C56.9959509,66.8055116 57.0614337,63.3307912 56.3590022,61.6049872 C57.5162373,62.8218686 57.8782923,67.2608044 57.8677883,69.310407 L56.9128123,68.5160569 Z M61.847488,72.6222184 C62.1874174,70.5894452 62.655407,66.9453083 61.9871697,65.3025296 C63.078028,66.4489517 63.1280899,71.0290304 62.9589075,73.5467161 L61.847488,72.6222184 Z M67.0402955,76.9424504 C67.5572295,75.0144686 68.4558858,71.1564855 67.9141443,69.38872 C68.9180647,70.6415043 68.5164518,75.3764139 68.1110396,77.8332893 L67.0402955,76.9424504 Z M71.0524013,80.2805157 C71.6690123,78.2057811 72.8253534,73.8559292 72.2731078,72.0533829 C73.2839564,73.3155917 72.5412967,78.4173834 71.9490462,81.0266213 L71.0524013,80.2805157 Z M74.2769258,82.96313 C75.3007369,80.8917613 76.4941775,78.1169216 76.360977,76.6677937 C76.9360187,77.779435 75.9662923,81.0180944 74.9818156,83.5496925 L74.2769258,82.96313 Z M78.2123743,86.2372434 C79.0904695,84.1447818 80.0465629,81.4525186 79.8358111,80.0592645 C80.4602442,81.1159296 79.7303235,84.2756027 78.9170407,86.8238059 L78.2123743,86.2372434 Z M82.1699485,89.5302058 C82.2428064,87.5203207 82.1650317,85.3219457 81.602282,84.2504708 C82.4591455,84.9990447 82.8348334,87.7052203 82.9546245,90.1829641 L82.1699485,89.5302058 Z M38.7689396,51.6385869 C39.4078997,52.1854318 39.5261263,53.398723 39.5406532,54.063374 L39.2020647,53.7815369 C39.217709,53.2389554 39.1647417,52.3723509 38.7689396,51.6385869 Z M41.8461837,102.896828 C41.5281564,103.220627 40.7153205,103.970772 39.9976917,103.973464 C40.6889486,103.728427 41.2340426,103.191007 41.4955267,102.895257 L41.8461837,102.896828 Z M41.5446947,102.769149 C41.1913558,102.419994 40.4341692,101.759606 39.7605681,101.757362 C40.4048919,101.985345 40.9224965,102.467789 41.2016364,102.771617 L41.5446947,102.769149 Z M54.4586604,102.67266 C53.7761197,101.831412 51.5528338,99.7218964 50.1332206,99.5812022 C51.5378599,100.238673 53.0352479,101.91152 53.6742079,102.67827 L54.4586604,102.67266 Z M59.6485625,102.633616 C58.8983041,101.690942 56.6633966,99.4196394 55.1197461,99.2675012 C56.6448469,99.9803967 58.2689542,101.782943 58.984348,102.638777 L59.6485625,102.633616 Z M63.5773063,102.604445 C62.3619637,101.192566 60.2627151,98.8492333 59.0992223,98.7338954 C60.2955682,99.2937551 61.9270507,101.376568 62.8214606,102.60983 L63.5773063,102.604445 Z M68.416775,102.568317 C67.2345089,101.165863 65.1522456,98.4940197 64.0037267,98.3802526 C65.1864397,98.9338293 66.8442941,101.343358 67.715908,102.573703 L68.416775,102.568317 Z M71.9501636,102.542063 C70.7408552,101.034369 68.6205985,97.7463433 67.485042,97.6339226 C68.6523342,98.1803187 70.3175637,101.202215 71.2126442,102.547449 L71.9501636,102.542063 Z M75.0026002,102.518727 C74.149983,100.895021 72.7285819,98.4718048 71.9110528,98.2146508 C72.6896945,98.8083938 73.7702723,101.090467 74.3741443,102.523888 L75.0026002,102.518727 Z M78.5417997,102.492473 C77.6735381,100.848796 76.2675579,98.4706828 75.4531576,98.2146508 C76.227106,98.8050279 77.2960623,101.041774 77.9135672,102.497185 L78.5417997,102.492473 Z M83.3097513,102.456794 C82.2233627,101.458696 80.1504861,99.6415638 79.2625573,99.6480537 C80.187362,99.9642404 81.6098806,101.551594 82.4289742,102.463302 L83.3097513,102.456794 Z M45.6723453,102.737958 C45.2510652,102.301739 44.0350521,101.145219 42.9652019,101.141404 C43.999964,101.507613 44.8069891,102.328666 45.1647978,102.741773 L45.6723453,102.737958 Z M46.2768877,100.285122 C47.5782743,100.893675 48.5960512,102.111005 49.0437032,102.712826 L49.7856924,102.707665 C49.2738986,102.024165 47.6091161,100.416392 46.2768877,100.285122 Z M84.7999875,109.10869 C85.2652953,108.9018 86.9303013,109.365171 88.0638464,109.734746 L87.8012448,109.983597 C86.8612427,109.595622 85.3996132,109.061119 84.7999875,109.10869 Z M82.8723799,110.711976 C83.3636125,110.494091 85.1642775,111.007052 86.3201716,111.390091 L86.044384,111.651508 C85.0929839,111.252538 83.5079875,110.661263 82.8723799,110.711976 Z M78.6859512,114.657921 C79.2735084,114.228658 81.541269,114.588359 82.785442,114.742741 L82.4709905,115.041184 C81.4572365,114.83564 79.5068327,114.416923 78.6859512,114.657921 Z M84.4551413,113.158529 C83.4825096,112.948722 81.2134081,112.226851 80.417334,112.460444 C80.986118,112.045093 83.5812925,112.69269 84.7771915,112.853355 L84.4551413,113.158529 Z M76.9217153,116.635269 C77.5146362,116.201743 79.6487494,116.413569 80.875937,116.554712 L80.53936,116.873799 C79.5472846,116.681045 77.7515364,116.391579 76.9217153,116.635269 Z M75.3583975,118.551807 C76.1544715,117.969508 78.3236727,118.085519 79.1331562,118.208486 L78.8339021,118.49167 C78.0856551,118.395854 76.4266833,118.238555 75.3583975,118.551807 Z M73.5881273,120.570219 C74.2939111,120.069599 76.25169,120.127717 76.9972551,120.234528 L76.6568787,120.557429 C75.9890884,120.462959 74.5330462,120.307006 73.5881273,120.570219 Z M68.9976274,126.938932 C69.2863774,126.679085 69.8694648,126.63847 70.2426943,126.642733 L70.0875918,126.789037 C69.792584,126.774901 69.369516,126.789711 68.9976274,126.938932 Z M71.8498163,125.118434 C71.4656357,125.082756 70.7741553,125.065926 70.1807874,125.304904 C70.6297803,124.900549 71.6093403,124.892022 72.0668258,124.912442 L71.8498163,125.118434 Z M74.0842768,122.997923 C73.6037717,122.889766 72.6858952,122.738077 71.8855748,122.925444 C72.4979395,122.529167 73.787928,122.608378 74.3770496,122.719901 L74.0842768,122.997923 Z M89.437644,108.431698 C88.6469337,108.183295 87.4025373,107.80654 86.8156506,107.914248 C87.253022,107.662031 88.761808,107.925692 89.752766,108.132134 L89.437644,108.431698 Z M106.999547,107.213246 C105.916064,106.741123 103.133604,106.741572 103.133604,106.741572 C103.133604,106.741572 103.856149,106.545004 104.450858,106.112151 C103.599135,106.029574 96.9560962,104.17654 96.9560962,103.338209 C96.9560962,103.05884 97.2035004,102.829959 97.5056599,102.829959 L152.614678,102.866086 L145.72647,102.926672 C146.052543,103.313301 146.889293,104.203242 147.97881,104.588973 C146.853981,104.58471 145.567568,103.307242 145.213112,102.930936 L141.857845,102.960107 C142.281584,103.53904 143.323274,104.816956 144.666901,105.44548 C143.296679,105.31062 141.575353,103.613538 141.117197,102.966839 L137.227117,103.001171 C137.840152,103.741667 139.373969,105.476446 140.810791,106.1494 C139.361901,106.005789 137.075814,103.811453 136.445346,103.007903 L131.922564,103.047396 C132.61762,103.88281 134.272569,105.737191 135.824266,106.463101 C134.255808,106.308046 131.974638,103.966732 131.260808,103.052781 L128.093721,103.080381 C128.981203,104.308707 130.635034,106.431237 131.844789,106.996258 C130.670793,106.880022 128.543161,104.49428 127.333629,103.087562 L123.204861,103.12324 C124.069099,104.343039 125.747291,106.791612 126.940956,107.350125 C125.783273,107.235685 123.677544,104.522329 122.500194,103.129523 L119.712147,103.153758 C120.602088,104.484182 122.283408,107.54602 123.459193,108.096231 C122.316262,107.983137 120.176561,104.65472 118.971723,103.159816 L116.55981,103.181358 C117.160777,104.612759 118.249847,106.918394 119.033406,107.515951 C118.211854,107.257002 116.780396,104.811346 115.928673,103.187192 L113.022175,103.212549 C113.637892,104.667511 114.713553,106.922881 115.491078,107.516176 C114.673549,107.258573 113.259299,104.862508 112.392378,103.217934 L108.502299,103.252266 C109.318934,104.161505 110.751956,105.764791 111.682125,106.082307 C110.78995,106.089038 108.702099,104.254628 107.619957,103.259896 C104.750112,103.429761 101.509944,103.760964 98.5929424,103.832994 C100.680793,103.864858 105.932378,104.331371 109.308653,107.980668 C109.308653,107.980668 109.457945,106.588312 109.153998,106.149176 C110.675523,108.108572 113.110231,108.905391 113.110231,108.905391 C113.110231,108.905391 112.812541,107.961819 112.918699,107.116308 C114.023861,108.787136 117.189384,109.927724 117.189384,109.927724 C117.189384,109.927724 116.637138,109.06269 116.637138,107.961595 C117.826332,109.53369 121.184057,110.242322 121.184057,110.242322 C121.184057,110.242322 120.503975,109.770649 120.291659,108.040357 C122.416609,110.085023 126.240983,110.478383 126.240983,110.478383 C126.240983,110.478383 125.253153,109.45605 125.125317,108.2367 C126.846866,110.006261 129.969479,109.908426 129.969479,109.908426 C129.969479,109.908426 129.321132,109.111608 129.236206,107.735856 C130.596594,109.111159 134.410016,109.338468 134.410016,109.338468 C134.410016,109.338468 133.538849,108.138641 133.581313,107.234563 C135.748502,109.06269 139.073821,108.424293 139.073821,108.424293 C139.073821,108.424293 138.297861,107.95419 138.170025,106.912111 C140.103443,107.953966 143.397026,107.580576 143.397026,107.580576 C143.397026,107.580576 142.504628,107.128425 142.164698,106.263616 C143.630574,106.873066 147.200392,106.558692 147.200392,106.558692 C147.200392,106.558692 146.47807,106.244542 146.180827,105.516837 C148.199395,105.949915 150.812673,105.536359 150.812673,105.536359 C150.812673,105.536359 150.196062,105.359538 149.877587,104.769609 C151.428837,105.083759 153.213634,104.711492 153.213634,104.711492 C153.213634,104.711492 152.211725,104.014304 152.747879,103.830302 C153.490986,103.574718 155.818865,103.314423 160.607601,103.754008 C157.05097,102.109883 153.491209,101.686454 152.747879,101.764992 C152.179765,101.825129 153.213634,100.883802 153.213634,100.883802 C153.213634,100.883802 151.428837,100.510861 149.877587,100.825235 C150.196285,100.234858 150.812673,100.058485 150.812673,100.058485 C150.812673,100.058485 148.199395,99.6456028 146.180827,100.078008 C146.478293,99.3507509 147.200392,99.0361524 147.200392,99.0361524 C147.200392,99.0361524 143.630797,98.7224514 142.164698,99.3312287 C142.504628,98.466195 143.397026,98.0147169 143.397026,98.0147169 C143.397026,98.0147169 140.103443,97.6408788 138.170025,98.6827339 C138.297638,97.6408788 139.073821,97.1712249 139.073821,97.1712249 C139.073821,97.1712249 135.748502,96.5321546 133.581313,98.360506 C133.538849,97.456428 134.410016,96.2570492 134.410016,96.2570492 C134.410016,96.2570492 130.596594,96.4841346 129.236206,97.8596616 C129.321132,96.4834614 129.969479,95.6870918 129.969479,95.6870918 C129.969479,95.6870918 126.846642,95.5888078 125.125317,97.3579196 C125.25293,96.1390186 126.240983,95.1171344 126.240983,95.1171344 C126.240983,95.1171344 122.416609,95.510046 120.291659,97.554712 C120.503975,95.8246445 121.184057,95.3531955 121.184057,95.3531955 C121.184057,95.3531955 117.826109,96.0613788 116.637138,97.6334738 C116.637138,96.5328278 117.189384,95.667794 117.189384,95.667794 C117.189384,95.667794 114.023861,96.8079332 112.918699,98.478761 C112.812318,97.6332494 113.110231,96.690127 113.110231,96.690127 C113.110231,96.690127 110.675523,97.4869454 109.153998,99.4463422 C109.457945,99.0067569 109.308653,97.6144004 109.308653,97.6144004 C107.242481,99.848005 98.132775,103.109552 96.7250067,101.70822 C96.4662045,101.451739 96.4809549,101.046262 96.7578599,100.806611 C114.899498,85.1177484 133.647242,69.7241871 152.026227,54.2390735 L152.255082,54.0420567 L152.261563,54.0429543 L155.064584,51.7110657 L152.33822,54.0523788 C152.907451,54.1205942 153.917182,54.1706337 154.79796,53.8468351 C154.115866,54.4228511 152.674797,54.3952508 151.997173,54.3452112 L148.427803,57.4113126 C149.127999,57.5181235 150.796805,57.686418 152.226028,57.1608904 C151.128688,58.0874077 148.648388,57.913279 147.927854,57.8408002 L144.420167,60.8534961 C145.413136,61.0713814 147.751073,61.4723711 149.740587,60.9517801 C148.218168,61.9945329 144.75585,61.7510668 143.677284,61.4916689 L139.472752,65.1023713 C140.701057,65.3065686 143.945919,65.7560271 146.023042,65.2129969 C144.453243,66.2878378 139.972924,66.0077957 138.725399,65.7441343 L134.802913,69.1136146 C136.574301,69.3323975 140.473097,69.7226163 142.446296,69.2065132 C141.000982,70.1960848 135.969535,70.1262987 133.851513,69.9304039 L129.935955,73.2936012 C132.052189,73.7767186 136.110781,74.5744346 137.988774,74.0827902 C136.627268,75.0160393 131.462173,74.6316547 128.819619,74.2526555 L124.816676,77.6907999 C126.76328,78.3121432 131.068383,79.5653763 133.088069,79.2023089 C131.609454,80.0478205 126.267801,79.2014114 123.739898,78.6152977 L120.855973,81.0925927 C122.923486,81.8072834 127.786868,83.366588 129.850135,82.995667 C128.358334,83.8476859 122.619092,82.6308045 119.955976,81.8656255 L117.703189,83.8012366 C119.865686,84.9418246 122.906948,86.3752449 124.535748,86.3747961 C123.250229,86.8249278 119.663426,85.5669825 116.989583,84.414053 L113.80417,87.149624 C116.01494,88.1643276 119.008375,89.3717846 120.589349,89.292574 C119.354339,89.7965599 115.806647,88.7665976 113.087211,87.7651331 L108.906593,91.3558646 C111.167426,91.6233406 113.774892,91.7822106 115.05393,91.3262447 C114.124879,92.0943408 111.068196,92.0409354 108.277914,91.9119096 C104.743408,95.1954475 101.413843,98.5258834 97.7430071,101.70104 C97.7345144,101.709567 97.7262453,101.718318 97.7175291,101.726396 C105.725873,94.6198803 114.342782,95.9871048 114.342782,95.9871048 C114.342782,95.9871048 113.00519,94.3400626 111.468244,93.8995798 C116.326263,94.4111951 119.148951,93.4151161 119.148951,93.4151161 C119.148951,93.4151161 117.194748,92.4284615 116.898622,91.4963344 C121.663669,92.0790821 124.809748,90.8334784 124.809748,90.8334784 C124.809748,90.8334784 122.309557,89.9798887 121.354581,88.7977881 C125.57498,89.7305885 129.694809,87.6556295 129.694809,87.6556295 C129.694809,87.6556295 127.388831,87.2326493 126.053027,86.0195825 C130.50161,86.3395665 134.825709,83.2353183 134.825709,83.2353183 C134.825709,83.2353183 132.288195,83.227689 131.283828,82.1205356 C134.805148,82.3260792 138.730986,78.9132912 138.730986,78.9132912 C138.730986,78.9132912 136.292479,79.0272826 134.914211,77.8104012 C138.743278,77.2853224 141.981212,74.3017975 141.981212,74.3017975 C141.981212,74.3017975 140.451418,74.2378456 139.354972,73.2016002 C142.921438,73.1544778 146.598308,69.8994377 146.598308,69.8994377 C146.598308,69.8994377 144.989621,69.76929 143.773161,68.6448583 C146.392473,68.4622027 149.738576,65.1010249 149.738576,65.1010249 C149.738576,65.1010249 148.12609,65.0099215 146.953658,64.32328 C149.76316,63.4845002 153.147033,60.1666302 153.147033,60.1666302 C153.147033,60.1666302 151.762732,60.3708275 150.67679,60.1246688 C150.67679,60.1246688 154.635258,57.958382 156.043697,56.1376599 C156.043697,56.1376599 154.154977,56.261749 153.411646,56.0041462 C156.445533,54.5918188 158.073216,52.7100619 158.073216,52.7100619 C158.073216,52.7100619 156.932296,52.9351277 156.168405,52.5561285 C155.952736,52.4488688 161.755003,46.8282813 164.682061,45.0223691 C158.45628,44.9240851 153.824881,50.8027242 153.654804,50.0164523 C153.484951,49.2297316 153.654804,48.2468917 153.654804,48.2468917 C153.654804,48.2468917 151.487615,49.5840476 149.702818,52.2576863 C149.490278,51.5499518 149.787744,49.8201087 149.787744,49.8201087 C147.705481,50.9602479 145.028509,54.4201584 145.028509,54.4201584 C144.858656,53.3978254 145.198362,52.1394313 145.198362,52.1394313 C145.198362,52.1394313 141.332195,54.9705936 140.18457,57.4873818 C139.546728,56.3467938 139.589414,54.8527874 139.589414,54.8527874 C139.589414,54.8527874 135.679891,57.6442322 135.254811,60.0427654 C134.15032,58.8238645 134.15032,57.3300825 134.15032,57.3300825 C134.15032,57.3300825 130.325946,60.4363502 129.964562,63.7194393 C128.944774,62.6183445 129.008692,61.2030999 129.008692,61.2030999 C129.008692,61.2030999 125.514861,63.9283489 124.616652,67.412045 C123.427011,66.0358448 123.761353,63.7975279 123.761353,63.7975279 C123.761353,63.7975279 119.745448,67.1201102 119.660521,70.3836771 C118.555806,69.3617929 118.768346,67.0218262 118.768346,67.0218262 C118.768346,67.0218262 115.050354,70.7379931 115.007444,74.8663694 C113.818026,73.5292135 113.5628,71.3662926 113.5628,71.3662926 C113.5628,71.3662926 110.970754,74.9841756 111.608373,78.9552526 C110.418285,77.9724127 109.716971,75.5934017 109.716971,75.5934017 C109.716971,75.5934017 108.102474,78.3852952 108.31479,82.8287188 C107.337688,82.4748516 106.445066,80.5874849 106.445066,80.5874849 C106.445066,80.5874849 105.127588,83.1024779 105.255202,87.6248877 C104.915049,86.1705988 103.257865,84.7943986 103.257865,84.7943986 C103.257865,84.7943986 104.748548,91.5335835 96.9069282,98.9769127 C97.2468576,86.7091412 105.39533,80.8791953 105.39533,80.8791953 C105.39533,80.8791953 104.237872,81.5187144 101.645379,81.3221464 C105.129823,78.7265965 106.192522,74.5982202 106.192522,74.5982202 C106.192522,74.5982202 105.681845,75.226744 102.367925,75.3052815 C106.787007,72.9067483 108.062022,68.2279368 108.062022,68.2279368 C108.062022,68.2279368 106.956637,69.3676271 103.302786,69.5249264 C108.911734,66.9298252 109.506666,61.7003541 109.506666,61.7003541 C109.506666,61.7003541 107.08492,63.7041806 104.619817,64.0192279 C109.209647,60.5593174 109.719653,53.9529729 109.719653,53.9529729 C109.719653,53.9529729 108.402175,55.9581457 105.427736,56.3515061 C108.742328,53.5991056 108.422959,47.5826894 108.422959,47.5826894 C108.422959,47.5826894 107.627109,49.3374401 104.147581,49.7967719 C107.581517,46.9256677 106.744767,40.1115356 106.744767,40.1115356 C106.744767,40.1115356 106.278119,41.7814658 103.420119,42.5978063 C106.607097,38.2728621 106.139778,32.0995954 106.139778,32.0995954 C106.139778,32.0995954 105.291631,34.1038707 102.018832,34.7727852 C105.290513,31.3914121 104.270948,26.6726588 104.270948,26.6726588 C104.270948,26.6726588 103.37922,28.4417705 100.744488,29.1889981 C103.20892,26.3971046 102.784064,20.2238379 102.784064,20.2238379 C102.784064,20.2238379 102.042969,22.051965 100.20364,22.7305284 C102.24344,19.5060058 101.042848,14.6597973 101.042848,14.6597973 C101.042848,14.6597973 100.587821,16.6743947 98.3348106,17.6969521 C100.204758,15.8095854 99.5671386,10.8947128 99.5671386,10.8947128 C99.5671386,10.8947128 99.1742418,11.9661878 97.5702487,12.7430352 C97.0264958,5.06252296 98.0040443,0.175699458 98.0040443,0.175699458 C98.0040443,0.175699458 92.9433198,4.90320417 93.6075343,12.7430352 C92.0033178,11.9661878 91.6101975,10.8947128 91.6101975,10.8947128 C91.6101975,10.8947128 90.9725784,15.8095854 92.8425255,17.6969521 C90.5895153,16.6746191 90.1344882,14.6597973 90.1344882,14.6597973 C90.1344882,14.6597973 88.9338959,19.5060058 90.9739194,22.7305284 C89.1345906,22.051965 88.3932718,20.2238379 88.3932718,20.2238379 C88.3932718,20.2238379 87.9688628,26.3971046 90.4332953,29.1889981 C87.7985629,28.4417705 86.9063878,26.6726588 86.9063878,26.6726588 C86.9063878,26.6726588 85.886823,31.3916365 89.1585041,34.7727852 C85.8859291,34.1038707 85.0377817,32.0995954 85.0377817,32.0995954 C85.0377817,32.0995954 84.5704625,38.2728621 87.7576641,42.5978063 C84.8992174,41.7814658 84.4330157,40.1115356 84.4330157,40.1115356 C84.4330157,40.1115356 83.5960429,46.9256677 87.0297547,49.7967719 C83.5500038,49.3376645 82.7543768,47.5826894 82.7543768,47.5826894 C82.7543768,47.5826894 82.4354555,53.5991056 85.7495997,56.3515061 C82.7751614,55.9581457 81.4576834,53.9529729 81.4576834,53.9529729 C81.4576834,53.9529729 81.9679128,60.5593174 86.5575188,64.0192279 C84.0921924,63.7039562 81.6706701,61.7003541 81.6706701,61.7003541 C81.6706701,61.7003541 82.2660495,66.9300496 87.8747732,69.5249264 C84.2206995,69.3676271 83.1155378,68.2279368 83.1155378,68.2279368 C83.1155378,68.2279368 84.390329,72.9067483 88.809635,75.3052815 C85.4957142,75.2265196 84.9850379,74.5982202 84.9850379,74.5982202 C84.9850379,74.5982202 86.0475129,78.7268209 89.5317336,81.3221464 C86.9396879,81.5187144 85.7822294,80.8791953 85.7822294,80.8791953 C85.7822294,80.8791953 93.9304785,86.7091412 94.2704079,98.9769127 C86.4287881,91.5338079 87.9192479,84.7943986 87.9192479,84.7943986 C87.9192479,84.7943986 86.262064,86.1705988 85.9223581,87.6248877 C86.0499713,83.1024779 84.7322698,80.5874849 84.7322698,80.5874849 C84.7322698,80.5874849 83.8398713,82.4748516 82.8623228,82.8287188 C83.0748625,78.3855196 81.4601418,75.5934017 81.4601418,75.5934017 C81.4601418,75.5934017 80.7588279,77.9724127 79.5689632,78.9552526 C80.2061353,74.9839512 77.6145366,71.3662926 77.6145366,71.3662926 C77.6145366,71.3662926 77.3590867,73.5292135 76.1694454,74.8663694 C76.1269822,70.7377687 72.4085432,67.0218262 72.4085432,67.0218262 C72.4085432,67.0218262 72.6215298,69.3617929 71.5168151,70.3836771 C71.4314416,67.1201102 67.4159834,63.7975279 67.4159834,63.7975279 C67.4159834,63.7975279 67.750549,66.0358448 66.5604608,67.412045 C65.662475,63.9281245 62.1679737,61.2030999 62.1679737,61.2030999 C62.1679737,61.2030999 62.232339,62.6183445 61.2123273,63.7194393 C60.8511662,60.4363502 57.0267926,57.3300825 57.0267926,57.3300825 C57.0267926,57.3300825 57.0267926,58.8240889 55.9223013,60.0427654 C55.4974454,57.6442322 51.5879218,54.8527874 51.5879218,54.8527874 C51.5879218,54.8527874 51.6303851,56.3467938 50.9929894,57.4873818 C49.8453645,54.9705936 45.9791981,52.1394313 45.9791981,52.1394313 C45.9791981,52.1394313 46.3191275,53.3978254 46.149051,54.4201584 C46.149051,54.4201584 43.4718554,50.9602479 41.3898156,49.8201087 C41.3898156,49.8201087 41.6868348,51.5501762 41.4747421,52.2576863 C39.689945,49.5840476 37.5227552,48.2468917 37.5227552,48.2468917 C37.5227552,48.2468917 37.6926082,49.2297316 37.5227552,50.0164523 C37.3529023,50.8027242 32.7210566,44.9240851 26.4954984,45.0223691 C29.4221097,46.8282813 35.2248234,52.4488688 35.0089313,52.5561285 C34.2448165,52.9351277 33.1038962,52.7100619 33.1038962,52.7100619 C33.1038962,52.7100619 34.7320263,54.5915944 37.7654662,56.0041462 C37.022136,56.261749 35.1334157,56.1376599 35.1334157,56.1376599 C36.5423013,57.9581576 40.5003224,60.1246688 40.5003224,60.1246688 C39.4143809,60.3708275 38.0300792,60.1666302 38.0300792,60.1666302 C38.0300792,60.1666302 41.4139526,63.4845002 44.2234548,64.32328 C43.0512458,65.0099215 41.4387601,65.1010249 41.4387601,65.1010249 C41.4387601,65.1010249 44.78464,68.4624271 47.4041751,68.6448583 C46.1877149,69.76929 44.5790285,69.8994377 44.5790285,69.8994377 C44.5790285,69.8994377 48.2554513,73.1544778 51.8223636,73.2016002 C50.7256945,74.2378456 49.1963473,74.3017975 49.1963473,74.3017975 C49.1963473,74.3017975 52.4342813,77.2853224 56.2631247,77.8104012 C54.8850808,79.0272826 52.4463498,78.9132912 52.4463498,78.9132912 C52.4463498,78.9132912 56.3726352,82.3260792 59.8939554,82.1205356 C58.8893645,83.227689 56.352074,83.2353183 56.352074,83.2353183 C56.352074,83.2353183 60.6759495,86.3395665 65.1245328,86.0195825 C63.7887286,87.2326493 61.4825276,87.6556295 61.4825276,87.6556295 C61.4825276,87.6556295 65.602356,89.7303641 69.8227552,88.7977881 C68.8677793,89.9798887 66.3675883,90.8334784 66.3675883,90.8334784 C66.3675883,90.8334784 69.5136675,92.0790821 74.2787137,91.4963344 C73.982812,92.4286859 72.0286089,93.4151161 72.0286089,93.4151161 C72.0286089,93.4151161 74.851297,94.4111951 79.7088684,93.8995798 C78.1719225,94.340287 76.8347774,95.9871048 76.8347774,95.9871048 C76.8347774,95.9871048 85.1182384,94.6739589 92.9909234,101.320694 C89.4915053,98.2608757 86.286201,95.0652997 82.8927175,91.9119096 C80.1026591,92.0411598 77.0457526,92.0945652 76.1164781,91.3262447 C77.3959626,91.7822106 80.0034292,91.6233406 82.2642615,91.3558646 L78.0836437,87.7651331 C75.3642083,88.7665976 71.8162927,89.7965599 70.5812828,89.292574 C72.1624798,89.3717846 75.1559149,88.1643276 77.3666853,87.149624 L74.1810483,84.4142774 C71.506758,85.5672069 67.9201785,86.8251522 66.6344363,86.3750205 C68.2632368,86.3754693 71.3042754,84.942049 73.4672188,83.801461 L71.2142086,81.8658499 C68.5506459,82.6312533 62.8114036,83.8481347 61.3200498,82.9958913 C63.3835399,83.3668124 68.246475,81.8075078 70.3146584,81.0928171 L67.4302868,78.6155221 C64.902383,79.2016357 59.5609542,80.0480449 58.0818924,79.2025333 C60.1020253,79.5653763 64.407351,78.3123676 66.3537319,77.6910243 L62.3505656,74.2528799 C59.7084581,74.6318791 54.5433634,75.0162637 53.1814108,74.0830146 C55.0596271,74.5746589 59.118219,73.776943 61.2344529,73.2938256 L57.3191185,69.9306283 C55.2010967,70.1265231 50.1694261,70.1963092 48.7238879,69.2067376 C50.6973112,69.7226163 54.5961072,69.3326219 56.3677184,69.113839 L52.4450088,65.7443587 C51.1970365,66.0080201 46.7171645,66.2880622 45.1473655,65.2132213 C47.224265,65.7562515 50.4695741,65.306793 51.6976558,65.1025957 L47.4929009,61.4918933 C46.4147815,61.7512912 42.9522394,61.9949816 41.4298204,60.9520045 C43.4191116,61.4728199 45.7577187,61.0716058 46.7502411,60.8537205 L43.2425539,57.8410246 C42.5224667,57.9135034 40.0414959,58.0876321 38.9443799,57.1611148 C40.3736032,57.6866424 42.0426321,57.5183479 42.7423816,57.411537 L39.1732344,54.3454356 C38.495387,54.3954752 37.0547656,54.4230755 36.3726719,53.8470595 C37.2527784,54.1708581 38.2627331,54.1208186 38.832411,54.0526032 L36.1053769,51.7112901 L38.9088448,54.0431787 L38.9151026,54.0422811 L39.1439571,54.2392979 C57.5229421,69.7244115 76.2709102,85.1179728 94.4127715,100.806835 C94.6899,101.046711 94.7044269,101.451964 94.4454011,101.708445 C93.0273524,103.119875 83.9259152,99.8388049 81.8684594,97.6146248 C81.8684594,97.6146248 81.7191676,99.0069813 82.0228915,99.4465666 C80.5013665,97.4871698 78.0668819,96.6903514 78.0668819,96.6903514 C78.0668819,96.6903514 78.364348,97.6334738 78.2581899,98.4789854 C77.1532517,96.8081576 73.9875053,95.6680184 73.9875053,95.6680184 C73.9875053,95.6680184 74.5397509,96.5330522 74.5397509,97.6336982 C73.3505567,96.0616032 69.9930552,95.3534199 69.9930552,95.3534199 C69.9930552,95.3534199 70.6726905,95.8250933 70.8852302,97.5549364 C68.7605037,95.5102704 64.9361301,95.1173588 64.9361301,95.1173588 C64.9361301,95.1173588 65.9239592,96.139243 66.0513489,97.358144 C64.3300232,95.5890322 61.207187,95.6873162 61.207187,95.6873162 C61.207187,95.6873162 61.8553102,96.4836858 61.9404601,97.859886 C60.5805189,96.4841346 56.7666494,96.2572736 56.7666494,96.2572736 C56.7666494,96.2572736 57.6378163,97.4566524 57.5955765,98.3607304 C55.4283868,96.532379 52.103068,97.1714493 52.103068,97.1714493 C52.103068,97.1714493 52.8788044,97.6411032 53.0064176,98.6829583 C51.0729991,97.6411032 47.7796395,98.0149413 47.7796395,98.0149413 C47.7796395,98.0149413 48.6718146,98.4664194 49.0119675,99.3314531 C47.5460917,98.7224514 43.976274,99.0363768 43.976274,99.0363768 C43.976274,99.0363768 44.6985961,99.3511997 44.9958388,100.078232 C42.9772704,99.6458272 40.3637696,100.05871 40.3637696,100.05871 C40.3637696,100.05871 40.9803806,100.235082 41.2988549,100.825459 C39.7476056,100.51131 37.9628085,100.884026 37.9628085,100.884026 C37.9628085,100.884026 38.9969002,101.825353 38.4287867,101.765216 C37.6850095,101.686454 34.1252489,102.109883 30.5688407,103.754233 C35.3575769,103.314647 37.6854565,103.574943 38.4287867,103.830526 C38.964941,104.014528 37.9628085,104.711716 37.9628085,104.711716 C37.9628085,104.711716 39.7476056,105.084208 41.2988549,104.769834 C40.9801571,105.359762 40.3637696,105.536584 40.3637696,105.536584 C40.3637696,105.536584 42.9772704,105.949915 44.9958388,105.517061 C44.6983726,106.244767 43.976274,106.558917 43.976274,106.558917 C43.976274,106.558917 47.5460917,106.873066 49.0119675,106.26384 C48.6718146,107.128874 47.7796395,107.580801 47.7796395,107.580801 C47.7796395,107.580801 51.0729991,107.95419 53.0064176,106.912335 C52.8788044,107.95419 52.103068,108.424517 52.103068,108.424517 C52.103068,108.424517 55.4283868,109.062914 57.5955765,107.234787 C57.6378163,108.138865 56.7666494,109.338693 56.7666494,109.338693 C56.7666494,109.338693 60.5805189,109.111159 61.9404601,107.73608 C61.8555336,109.111832 61.207187,109.90865 61.207187,109.90865 C61.207187,109.90865 64.3300232,110.006485 66.0513489,108.236925 C65.9239592,109.456275 64.9361301,110.478608 64.9361301,110.478608 C64.9361301,110.478608 68.7605037,110.085247 70.8852302,108.040581 C70.6726905,109.771098 69.9930552,110.242547 69.9930552,110.242547 C69.9930552,110.242547 73.3505567,109.533915 74.5397509,107.961819 C74.5397509,109.062914 73.9875053,109.927948 73.9875053,109.927948 C73.9875053,109.927948 77.1532517,108.78736 78.2581899,107.116532 C78.364348,107.962044 78.0668819,108.905615 78.0668819,108.905615 C78.0668819,108.905615 80.5013665,108.108797 82.0228915,106.1494 C81.7191676,106.588536 81.8684594,107.980893 81.8684594,107.980893 C85.2460751,104.329575 90.50146,103.865307 92.5868521,103.833219 C89.6705214,103.76074 86.4307995,103.429761 83.5618488,103.26012 C82.4797066,104.254853 80.3914091,106.089263 79.499681,106.082531 C80.4294025,105.765015 81.8624252,104.16173 82.6797308,103.252491 L78.7896509,103.218158 C77.9220599,104.862732 76.5078104,107.259022 75.6902813,107.5164 C76.4680291,106.923106 77.54369,104.667735 78.1596305,103.212773 L75.2526864,103.187417 C74.4014101,104.811571 72.9697284,107.257227 72.1481764,107.516176 C72.931288,106.918618 74.0210289,104.613208 74.6219955,103.181582 L72.2098599,103.160041 C71.0047978,104.654945 68.8650974,107.983361 67.7226127,108.096455 C68.8979505,107.546244 70.5797184,104.484406 71.4696585,103.153982 L68.681388,103.129748 C67.5038153,104.522553 65.3983089,107.235909 64.2408504,107.350349 C65.4345144,106.792061 67.1122595,104.343263 67.9769452,103.123465 L63.8481771,103.087786 C62.6386452,104.494504 60.5110133,106.880247 59.3370164,106.996482 C60.5458779,106.431461 62.1999329,104.308931 63.0878616,103.080606 L59.9203273,103.053005 C59.2071683,103.967181 56.9253278,106.308494 55.3573167,106.463325 C56.9092365,105.737639 58.5637385,103.883034 59.2592417,103.04762 L54.7364594,103.008127 C54.1053216,103.811677 51.8199052,106.006013 50.3705677,106.149624 C51.8071662,105.476895 53.3414302,103.742115 53.9542418,103.001395 L50.0643854,102.967063 C49.6064529,103.613763 47.8844567,105.310845 46.5140114,105.445705 C47.8580848,104.817181 48.8995516,103.539264 49.3232901,102.960331 L45.9684705,102.93116 C45.6135672,103.307467 44.3276015,104.584934 43.202549,104.589198 C44.2916194,104.203467 45.1290393,103.313525 45.4548888,102.926897 L38.5666805,102.866311 L93.675699,102.830184 C93.9778585,102.830184 94.2250393,103.059064 94.2250393,103.338433 C94.2250393,104.420903 87.4432126,106.043038 86.7258073,106.112375 C87.3202927,106.545453 88.0430618,106.741797 88.0430618,106.741797 C88.0430618,106.741797 85.2603785,106.741348 84.1768953,107.21347 L85.4941498,107.803398 C85.4941498,107.803398 82.7322512,107.921204 82.3279564,108.451893 C82.3279564,108.451893 83.4755814,108.80576 83.6454344,108.96306 C83.8157343,109.120359 81.5850732,109.218643 79.9915842,110.083677 L81.45746,110.574872 C81.45746,110.574872 78.4827981,111.046994 77.5479363,112.010088 L79.1302508,112.541674 C79.1302508,112.541674 77.1116824,112.935034 75.9008095,114.055651 L77.1970559,114.547295 C77.1970559,114.547295 75.0086345,115.628419 74.3497838,116.395169 L75.4654496,116.852033 C75.4654496,116.852033 73.3831863,117.59926 72.4060848,118.582549 L73.6384127,118.857654 C73.6384127,118.857654 71.5561495,119.977822 70.9612171,120.72505 L72.2154472,121.098439 C72.2154472,121.098439 70.0265788,122.337311 69.4960118,123.104061 L70.6646449,123.26136 C70.6646449,123.26136 69.1348507,124.047183 67.9452095,125.423384 L69.0928345,125.600205 L67.3505006,126.956434 L68.2004359,127.074689 C68.2004359,127.074689 65.6933167,128.686951 65.65063,131.557157 C67.1384079,129.585868 69.4081799,127.899332 69.4081799,127.899332 L69.5315468,128.686053 L71.0059152,127.080972 L71.1918595,128.143472 C72.6845542,127.049557 73.5414177,125.638127 73.5414177,125.638127 L73.7059069,126.720149 C74.5372925,126.232319 75.8865061,124.213458 75.8865061,124.213458 L76.2838727,125.375588 C77.0942501,124.828743 78.3156271,122.907493 78.3156271,122.907493 L78.606612,124.049652 C79.6737803,123.149837 80.491086,121.226792 80.491086,121.226792 L80.9796367,122.261467 C81.8112458,121.65628 82.9906065,119.635848 82.9906065,119.635848 L83.5153627,120.837919 C84.7320464,119.722464 85.1671828,117.856639 85.1671828,117.856639 L85.7344024,119.323493 C86.7796686,118.463172 87.3042013,115.712791 87.3042013,115.712791 L87.8282871,117.072386 C88.7707476,115.601717 88.8876333,113.538426 89.0570393,113.696398 C89.2262218,113.85482 89.6028037,114.917992 89.6028037,114.917992 C90.1782923,114.547071 90.3195385,111.992136 90.3195385,111.992136 L90.9504529,113.21373 C91.465599,112.213387 91.4790085,109.638257 91.4790085,109.638257 C91.4790085,109.638257 91.6875253,110.308294 92.1523861,110.860973 C92.6351261,106.797222 94.280018,104.971338 94.5850829,104.664369 L90.3749642,108.495425 C90.6053832,109.410947 90.899944,110.805772 90.6297436,111.211923 C90.74283,110.667771 90.3269137,109.519105 90.053808,108.788482 L88.6540855,110.068867 C89.0615091,111.115434 89.5728559,112.652973 89.3527175,113.084928 C89.4005445,112.529781 88.8123169,111.180957 88.3867905,110.313455 L86.877781,111.69347 C87.2990611,112.760232 87.8653866,114.422982 87.6327327,114.878723 C87.6834651,114.289917 87.0337775,112.827326 86.5970766,111.94995 L85.3061941,113.130256 C85.4872216,114.235614 86.2050739,116.63325 85.7598803,117.161919 C86.0068376,116.42434 85.2121045,114.328961 84.9785567,113.430493 L83.2780156,114.985534 C83.4530088,116.13622 83.8566331,118.231823 83.3960187,118.777995 C83.6507981,118.017304 83.1857139,116.215431 82.9570829,115.278816 L81.3316347,116.765193 C81.492548,117.899049 81.735259,119.872358 81.2703982,120.423466 C81.5283065,119.654697 81.2040214,117.994864 80.9894703,117.077996 L79.5564477,118.388449 C79.6947884,119.136574 79.8335762,121.142645 79.210037,121.883365 C79.5416973,120.892896 79.3608933,119.358947 79.2522768,118.66692 L77.3809888,120.378363 C77.5012268,121.067024 77.5769901,122.878098 77.0406124,123.534671 C77.3188583,122.658193 77.1405127,121.31251 77.0341311,120.69543 L74.7122858,122.818858 C74.8363231,123.363459 74.9306362,124.556106 74.5068978,125.12539 C74.7046871,124.383997 74.5343871,123.535568 74.4141491,123.091719 L72.3584812,124.971457 C72.3830652,125.394437 72.3806068,126.300535 71.9468113,126.719027 C72.2006968,126.168367 72.1783477,125.528399 72.1372254,125.173186 L70.5001557,126.670558 C70.5064134,127.015898 70.4668556,127.555114 70.1879391,127.824161 C70.3470645,127.479494 70.360474,127.087928 70.3425947,126.814618 L69.4260592,127.652949 C77.7479606,119.755 85.8264805,111.712319 94.3908694,104.026645 L94.3924338,104.024626 L94.4112071,104.008021 C94.5350209,103.896946 94.7348217,103.899863 94.8552832,104.014752 C96.0022377,105.134921 92.9842186,123.730117 89.3440014,126.100825 C84.1114126,129.50733 107.066818,129.50733 101.834899,126.100825 C98.1473019,123.699375 95.2043757,105.052344 96.3254053,104.014752 C96.4460903,103.899863 96.645891,103.896946 96.7697049,104.008021 L96.7882546,104.024626 L96.7884781,104.024626 L96.7900426,104.026645 C105.354431,111.712543 113.432951,119.755 121.754853,127.652949 L120.838317,126.814618 C120.820438,127.087928 120.833847,127.479269 120.992526,127.824161 C120.713386,127.555114 120.674052,127.015898 120.680533,126.670558 L119.04324,125.173186 C119.002341,125.528399 118.980215,126.168367 119.233877,126.719027 C118.800082,126.30031 118.797623,125.394437 118.822431,124.971457 L116.766763,123.091719 C116.646301,123.535568 116.476225,124.383997 116.673791,125.12539 C116.249829,124.556106 116.344142,123.363459 116.46885,122.818858 L114.146334,120.69543 C114.040176,121.31251 113.86183,122.658193 114.139853,123.534671 C113.603475,122.878098 113.679238,121.067024 113.7997,120.378363 L111.928412,118.66692 C111.819572,119.358723 111.638544,120.892896 111.970428,121.883365 C111.346889,121.142869 111.486124,119.136799 111.624017,118.388449 L110.191218,117.077996 C109.97622,117.994864 109.652158,119.654921 109.909843,120.423466 C109.444983,119.872133 109.68747,117.899049 109.848607,116.765193 L108.223382,115.278816 C107.994528,116.215431 107.529443,118.017304 107.784223,118.777995 C107.323832,118.232047 107.727233,116.13622 107.902673,114.985534 L106.202132,113.430493 C105.968584,114.328961 105.173627,116.424116 105.420808,117.161919 C104.975391,116.633025 105.693467,114.23539 105.874494,113.130256 L104.583165,111.94995 C104.146687,112.827326 103.497,114.289917 103.547509,114.878723 C103.315302,114.422758 103.881627,112.760008 104.302907,111.69347 L102.793674,110.313455 C102.367925,111.180732 101.780144,112.529781 101.827747,113.084928 C101.607609,112.652973 102.118732,111.115434 102.52638,110.068867 L101.126657,108.788482 C100.853551,109.519105 100.437859,110.667771 100.550721,111.211923 C100.280521,110.805548 100.575529,109.410947 100.805501,108.495425 L96.5705746,104.641481 C96.8021111,104.867893 98.529471,106.67964 99.025844,110.860973 C99.4907047,110.308294 99.6992216,109.638257 99.6992216,109.638257 C99.6992216,109.638257 99.712631,112.213163 100.227777,113.21373 L100.858915,111.992136 C100.858915,111.992136 100.999714,114.547071 101.575426,114.917992 C101.575426,114.917992 101.952008,113.854595 102.121414,113.696398 C102.290373,113.53865 102.407482,115.601941 103.350166,117.072386 L103.874252,115.712791 C103.874252,115.712791 104.398338,118.463172 105.443828,119.323493 L106.010824,117.856639 C106.010824,117.856639 106.44596,119.722464 107.662644,120.837919 L108.1874,119.635848 C108.1874,119.635848 109.366984,121.65628 110.198593,122.261467 L110.686921,121.226792 C110.686921,121.226792 111.50445,123.149837 112.571618,124.049652 L112.862603,122.907493 C112.862603,122.907493 114.083756,124.828743 114.89391,125.375588 L115.2915,124.213458 C115.2915,124.213458 116.640938,126.232544 117.4721,126.720149 L117.636365,125.638127 C117.636365,125.638127 118.493229,127.049557 119.986371,128.143472 L120.172091,127.080972 L121.646013,128.686053 L121.76938,127.899332 C121.76938,127.899332 124.039375,129.585868 125.52693,131.557157 C125.484466,128.686951 122.977124,127.074689 122.977124,127.074689 L123.827059,126.956434 L122.084949,125.600205 L123.232127,125.423384 C122.042485,124.047183 120.512915,123.26136 120.512915,123.26136 L121.681548,123.104061 C121.150534,122.337311 118.962112,121.098439 118.962112,121.098439 L120.215896,120.72505 C119.621187,119.977822 117.538923,118.857654 117.538923,118.857654 L118.771251,118.582549 C117.793926,117.59926 115.711663,116.852033 115.711663,116.852033 L116.827329,116.395169 C116.168702,115.628419 113.98028,114.547295 113.98028,114.547295 L115.276303,114.055651 C114.065654,112.935034 112.047085,112.541674 112.047085,112.541674 L113.628953,112.010088 C112.694091,111.04677 109.719429,110.574872 109.719429,110.574872 L111.185752,110.083677 C109.592039,109.218643 107.361602,109.120359 107.531678,108.96306 C107.701531,108.80576 108.848933,108.451893 108.848933,108.451893 C108.445308,107.921204 105.683186,107.803398 105.683186,107.803398 L106.999547,107.213246 Z" id="Shape" fill="url(#linearGradient-1)"></path>
                            <g id="Group" transform="translate(-0.000000, 114.664653)">
                                <g transform="translate(0.000000, 5.609817)">
                                    <polygon id="Path" fill="url(#linearGradient-2)" points="0.0911842242 32.3076074 4.70403321 31.1115945 4.70403321 3.97332095 0.854181629 1.18232496 0.948271233 0.196567976 11.6550424 4.10414188 11.2056025 5.3825069 7.79222833 4.6725285 7.79222833 31.0397888 16.4828895 31.8002556 18.2366213 26.5099741 19.6084075 26.5099741 19.1515925 33.612002 0.0911842242 33.612002"></polygon>
                                    <path d="M0.948271233,0.196567976 L11.6550424,4.10414188 L11.2056025,5.3825069 L7.79222833,4.6725285 L7.79222833,31.0397888 L16.4828895,31.8002556 L18.2366213,26.5099741 L19.6084075,26.5099741 L19.1515925,33.612002 L0.0911842242,33.612002 L0.0911842242,32.3076074 L4.70403321,31.1115945 L4.70403321,3.97332095 L0.854181629,1.18232496 L0.948271233,0.196567976 Z M0.899550251,0.118928114 L0.892622038,0.19095816 L0.798532434,1.17671515 L0.795403563,1.2088033 L0.82132849,1.22765228 L4.64816053,4.00181882 L4.64816053,31.0680623 L0.0771043072,32.2533044 L0.0350880471,32.2640752 L0.0350880471,32.3076074 L0.0350880471,33.612002 L0.0350880471,33.6681001 L0.0909607334,33.6681001 L19.151369,33.6681001 L19.2036658,33.6681001 L19.2070182,33.6155923 L19.6638332,26.5135644 L19.6676326,26.4538759 L19.6079606,26.4538759 L18.2361744,26.4538759 L18.195946,26.4538759 L18.1832071,26.4922471 L16.4433316,31.7405671 L7.84765404,30.9884029 L7.84765404,4.74119266 L11.1937575,5.43725871 L11.2415845,5.44713199 L11.2578993,5.4009071 L11.7073392,4.12254208 L11.7256655,4.07003419 L11.6735921,4.05096082 L0.966820965,0.143386914 L0.899550251,0.118928114 Z" id="Shape" fill="url(#linearGradient-3)" fill-rule="nonzero"></path>
                                </g>
                                <g transform="translate(42.910223, 20.644125)">
                                    <polygon id="Path" fill="url(#linearGradient-4)" points="0.144598512 17.4880425 4.34912991 16.4883732 10.2425809 9.43279454 4.57239716 2.19635542 1.22763467 1.19668609 1.22763467 0.107259695 10.5939083 0.107259695 10.5939083 1.19668609 7.59913233 1.89387411 11.8999882 7.76780095 16.0410483 2.19635542 12.7912693 1.19668609 12.7912693 0.107259695 22.1255838 0.107259695 22.1255838 1.19668609 18.3027746 2.19635542 12.9825774 8.91871094 19.0038651 16.4883732 22.7949386 17.4880425 22.7949386 18.5774689 12.472795 18.5774689 12.472795 17.4880425 15.7225739 16.6703556 11.2949988 10.7053254 6.61130323 16.6396138 10.2756575 17.4880425 10.2756575 18.5774689 0.144822003 18.5774689 0.144822003 17.4880425"></polygon>
                                    <path d="M22.1255838,0.107484087 L22.1255838,1.19691049 L18.3027746,2.19657982 L12.9825774,8.91893534 L19.0038651,16.4885976 L22.7949386,17.4882669 L22.7949386,18.5776933 L12.472795,18.5776933 L12.472795,17.4882669 L15.7225739,16.67058 L11.2949988,10.7055497 L6.61130323,16.6398382 L10.2756575,17.4882669 L10.2756575,18.5776933 L0.144822003,18.5776933 L0.144822003,17.4882669 L4.3493534,16.4885976 L10.2428044,9.43301894 L4.57262065,2.19657982 L1.22785816,1.19691049 L1.22785816,0.107484087 L10.5941318,0.107484087 L10.5941318,1.19691049 L7.59935582,1.8940985 L11.9002117,7.76802535 L16.0412718,2.19657982 L12.7914928,1.19691049 L12.7914928,0.107484087 L22.1255838,0.107484087 Z M22.1814565,0.0513859207 L22.1255838,0.0513859207 L12.7910458,0.0513859207 L12.7351732,0.0513859207 L12.7351732,0.107484087 L12.7351732,1.19691049 L12.7351732,1.23842313 L12.774731,1.25054033 L15.9485231,2.22687283 L11.8999882,7.67378043 L7.6941159,1.92955254 L10.6062003,1.2516623 L10.6495575,1.24156463 L10.6495575,1.19691049 L10.6495575,0.107484087 L10.6495575,0.0513859207 L10.5936848,0.0513859207 L1.22741117,0.0513859207 L1.17153849,0.0513859207 L1.17153849,0.107484087 L1.17153849,1.19691049 L1.17153849,1.23864752 L1.21154333,1.25054033 L4.53932053,2.24504863 L10.1706168,9.43167258 L4.31828819,16.4381092 L0.13185954,17.4335151 L0.0889493167,17.4438371 L0.0889493167,17.4882669 L0.0889493167,18.5776933 L0.0889493167,18.6337915 L0.144822003,18.6337915 L10.2756575,18.6337915 L10.3315302,18.6337915 L10.3315302,18.5776933 L10.3315302,17.4882669 L10.3315302,17.4436128 L10.288173,17.4335151 L6.70986265,16.6050574 L11.2934344,10.7975507 L15.6275904,16.6364723 L12.4591621,17.4337395 L12.4169223,17.4442859 L12.4169223,17.4880425 L12.4169223,18.5774689 L12.4169223,18.6335671 L12.472795,18.6335671 L22.7949386,18.6335671 L22.8508113,18.6335671 L22.8508113,18.5774689 L22.8508113,17.4880425 L22.8508113,17.4447347 L22.809242,17.4337395 L19.0360477,16.4387824 L13.0540944,8.91871094 L18.3349573,2.2459462 L22.1396637,1.25098912 L22.1814565,1.23999388 L22.1814565,1.19668609 L22.1814565,0.107259695 L22.1814565,0.0513859207 Z" id="Shape" fill="url(#linearGradient-5)" fill-rule="nonzero"></path>
                                </g>
                                <g transform="translate(74.422418, 20.419733)">
                                    <path d="M0.11085141,17.9487206 L0.513805224,12.5632966 L1.62790659,12.5632966 L2.46465594,16.0353244 C2.89733403,17.1240776 4.32186404,17.419154 5.4987663,17.419154 C7.82061166,17.419154 9.74062065,16.4176895 9.74062065,14.358438 C9.74062065,12.356631 7.20198928,11.0910564 4.81734302,9.64955786 C2.71228369,8.38398322 0.76143297,7.02977347 0.76143297,4.9694 C0.76143297,2.20376038 3.30006435,0.172109176 6.45865906,0.172109176 C8.50203494,0.172109176 10.2358761,0.584318505 11.6297879,1.26198436 L11.6297879,5.94102025 L10.4837274,5.94102025 L9.70977893,2.99743725 C8.93583048,2.26232687 7.82061166,1.76170683 6.30355648,1.76170683 C4.47719011,1.76170683 3.0524366,2.49793917 3.0524366,4.11603469 C3.0524366,5.70563234 5.06497077,6.9126405 7.20176578,8.14837092 C9.58641204,9.56114715 12.1250434,11.0322655 12.1250434,13.2396161 C12.1250434,16.7414881 9.24491818,19.1555044 5.34321674,19.1555044 C4.10507801,19.1557288 1.38027884,19.0374739 0.11085141,17.9487206 Z" id="Path" fill="url(#linearGradient-6)"></path>
                                    <path d="M6.45888255,0.172109176 C8.50225843,0.172109176 10.2360996,0.584318505 11.6300114,1.26198436 L11.6300114,5.94102025 L10.4839509,5.94102025 L9.71000242,2.99743725 C8.93605397,2.26232687 7.82083515,1.76170683 6.30377997,1.76170683 C4.4774136,1.76170683 3.05266009,2.49793917 3.05266009,4.11603469 C3.05266009,5.70563234 5.06519426,6.9126405 7.20198928,8.14837092 C9.58663553,9.56114715 12.1252669,11.0322655 12.1252669,13.2396161 C12.1252669,16.7414881 9.24514167,19.1555044 5.34344024,19.1555044 C4.10485452,19.1555044 1.38005535,19.0372495 0.110627919,17.9484963 L0.513581733,12.5630722 L1.6276831,12.5630722 L2.46443245,16.0351 C2.89711053,17.1238532 4.32164055,17.4189296 5.49854281,17.4189296 C7.82038817,17.4189296 9.74039716,16.4174651 9.74039716,14.3582136 C9.74039716,12.3564066 7.20176578,11.090832 4.81711953,9.64933347 C2.7120602,8.38375882 0.761209479,7.02954908 0.761209479,4.96917561 C0.76143297,2.20376038 3.30028784,0.172109176 6.45888255,0.172109176 Z M6.45888255,0.116011009 C4.90405743,0.116011009 3.45918976,0.60406506 2.39023352,1.49041609 C1.3040685,2.39112826 0.705783774,3.62663428 0.705783774,4.9694 C0.705783774,7.06724705 2.72278775,8.45556448 4.7887362,9.69757789 C5.04284518,9.85106247 5.2985186,10.0027519 5.55307455,10.1535438 C7.67802456,11.412611 9.68497146,12.6018922 9.68497146,14.358438 C9.68497146,16.5738668 7.5226985,17.3630558 5.49898979,17.3630558 C4.76348175,17.3630558 3.00036326,17.2315617 2.51672929,16.0144559 L1.68243833,12.5500575 L1.67215776,12.5071985 L1.62813008,12.5071985 L0.514028715,12.5071985 L0.462178862,12.5071985 L0.458379519,12.5590332 L0.0554257049,17.9444572 L0.0531907974,17.9727307 L0.074645909,17.9911309 C1.31278464,19.0531814 3.9072887,19.2116026 5.34366373,19.2116026 C7.256968,19.2116026 8.99371458,18.6225718 10.2340882,17.5533408 C11.4896592,16.4706462 12.1813631,14.9387174 12.1813631,13.2396161 C12.1813631,11.0318167 9.71693063,9.57236678 7.33362532,8.16093691 L7.23059609,8.0999021 C5.2982951,6.98242662 3.10875627,5.7161788 3.10875627,4.1158103 C3.10875627,2.67655573 4.30331431,1.8175806 6.30400346,1.8175806 C7.67981249,1.8175806 8.80888774,2.2246289 9.66038748,3.02705708 L10.4303131,5.95515699 L10.4412641,5.99689403 L10.4843979,5.99689403 L11.6304584,5.99689403 L11.6863311,5.99689403 L11.6863311,5.94079586 L11.6863311,1.26175997 L11.6863311,1.22653032 L11.6548189,1.21127162 C10.1589953,0.484463768 8.41085072,0.116011009 6.45888255,0.116011009 Z" id="Shape" fill="url(#linearGradient-7)" fill-rule="nonzero"></path>
                                </g>
                                <g transform="translate(86.267428, 20.419733)">
                                    <polygon id="Path" fill="url(#linearGradient-8)" points="14.6102605 18.8606524 7.36513752 5.02908845 5.84808234 16.7715567 9.65614115 17.743177 9.65614115 18.802086 0.0572136309 18.802086 0.0572136309 17.743177 3.803589 16.7715567 6.52838817 0.467409925 7.79893306 0.172333568 15.8488462 15.5059821 23.496923 0.172333568 24.8280339 0.467409925 27.6773174 16.7715567 31.4236928 17.743177 31.4236928 18.802086 21.1122768 18.802086 21.1122768 17.743177 24.8586521 16.7715567 22.9397606 4.7340121 15.9719896 19.1557288"></polygon>
                                    <path d="M23.496923,0.172109176 L24.8280339,0.467185533 L27.6773174,16.7713323 L31.4236928,17.7429526 L31.4236928,18.8018616 L21.1125003,18.8018616 L21.1125003,17.7429526 L24.8588756,16.7713323 L22.9399841,4.7337877 L15.9722131,19.1555044 L14.6102605,18.8604281 L7.36513752,5.02886406 L5.84808234,16.7713323 L9.65614115,17.7429526 L9.65614115,18.8018616 L0.0572136309,18.8018616 L0.0572136309,17.7429526 L3.803589,16.7713323 L6.52838817,0.467185533 L7.79893306,0.172109176 L15.8488462,15.5057577 L23.496923,0.172109176 Z M7.82798685,0.10770848 L7.78597059,0.117357365 L6.5154257,0.412433722 L6.47899671,0.420960643 L6.47273897,0.457985433 L3.75397405,16.7262294 L0.0426867324,17.6886495 L0.000893962982,17.6994204 L0.000893962982,17.7429526 L0.000893962982,18.8018616 L0.000893962982,18.8579597 L0.0567666494,18.8579597 L9.65569417,18.8579597 L9.71156686,18.8579597 L9.71156686,18.8018616 L9.71156686,17.7429526 L9.71156686,17.6994204 L9.6695506,17.6886495 L5.90954229,16.7293709 L7.39754368,5.21196848 L14.5606456,18.886682 L14.5727141,18.9097944 L14.598192,18.9154043 L15.9601446,19.2104806 L16.0030548,19.2196807 L16.022275,19.1799632 L22.9127182,4.91846287 L24.7956277,16.7298197 L21.0984203,17.6886495 L21.0566276,17.6994204 L21.0566276,17.7429526 L21.0566276,18.8018616 L21.0566276,18.8579597 L21.1125003,18.8579597 L31.4236928,18.8579597 L31.4795655,18.8579597 L31.4795655,18.8018616 L31.4795655,17.7429526 L31.4795655,17.6994204 L31.4377727,17.6886495 L27.7262619,16.726005 L24.8832361,0.457312255 L24.8767549,0.420287465 L24.8403259,0.412209329 L23.509215,0.117132972 L23.4667518,0.10770848 L23.4473081,0.146752804 L15.8477288,15.3827905 L7.84832451,0.145630841 L7.82798685,0.10770848 Z" id="Shape" fill="url(#linearGradient-9)" fill-rule="nonzero"></path>
                                </g>
                                <g transform="translate(115.991697, 20.419733)" fill-rule="nonzero" id="Shape">
                                    <path d="M0.177451652,9.64955786 C0.177451652,4.38126682 4.82114236,0.172109176 10.3015824,0.172109176 C15.7820225,0.172109176 20.4268307,4.41021348 20.4268307,9.67828012 C20.4268307,14.9463468 15.7820225,19.1557288 10.3015824,19.1557288 C4.82114236,19.1557288 0.177451652,14.9176245 0.177451652,9.64955786 Z M17.5169811,10.7670333 C17.5169811,6.35322958 14.575396,1.84989315 9.6210531,1.84989315 C5.4408822,1.84989315 3.08707767,4.7337877 3.08707767,8.55945828 C3.08707767,12.974384 6.02866286,17.477496 10.9830057,17.477496 C15.1631766,17.4777204 17.5169811,14.5938259 17.5169811,10.7670333 Z" fill="url(#linearGradient-10)"></path>
                                    <path d="M10.3015824,0.172109176 C15.7820225,0.172109176 20.4268307,4.41021348 20.4268307,9.67828012 C20.4268307,14.9463468 15.7820225,19.1557288 10.3015824,19.1557288 C4.82114236,19.1557288 0.177451652,14.9176245 0.177451652,9.64955786 C0.177451652,4.38149122 4.82114236,0.172109176 10.3015824,0.172109176 Z M10.9830057,17.4777204 C15.1631766,17.4777204 17.5169811,14.5938259 17.5169811,10.7670333 C17.5169811,6.35322958 14.575396,1.84989315 9.6210531,1.84989315 C5.4408822,1.84989315 3.08707767,4.7337877 3.08707767,8.55945828 C3.08707767,12.974384 6.02888635,17.4777204 10.9830057,17.4777204 Z M10.3015824,0.116011009 C7.62058744,0.116011009 5.07949766,1.10266557 3.14652621,2.89399223 C1.19589898,4.70192394 0.121578966,7.10090595 0.121578966,9.64955786 C0.121578966,12.1997805 1.19589898,14.6039236 3.14630272,16.4194846 C5.08128559,18.2202358 7.62237537,19.2120514 10.3015824,19.2120514 C12.9828009,19.2120514 15.5241142,18.2253968 17.4573091,16.4340701 C19.4083833,14.6261384 20.4827033,12.226932 20.4827033,9.67850451 C20.4827033,7.12828185 19.4083833,4.72413882 17.4573091,2.90857775 C15.5221028,1.1076022 12.9807895,0.116011009 10.3015824,0.116011009 Z M10.9830057,17.4216223 C6.07559592,17.4216223 3.14295035,12.9158175 3.14295035,8.55968268 C3.14295035,4.51792196 5.68582806,1.90621571 9.6210531,1.90621571 C14.5284629,1.90621571 17.4611085,6.41157167 17.4611085,10.7672577 C17.4611085,14.8096916 14.9184542,17.4216223 10.9830057,17.4216223 Z" fill="url(#linearGradient-11)"></path>
                                </g>
                                <g transform="translate(134.541429, 11.219633)" fill-rule="nonzero" id="Shape">
                                    <path d="M0.273552673,26.6977907 L4.88640166,25.5017778 L4.88640166,9.37220852 L1.29937519,10.0249668 L1.29937519,8.71945025 L12.1292897,4.78023699 L12.1292897,6.08575352 L7.97437329,8.54823865 L7.97437329,25.5017778 L12.968274,26.6977907 L12.968274,28.0021853 L0.273552673,28.0021853 L0.273552673,26.6977907 Z M18.1514714,24.7047351 C15.4838858,22.1314 12.6623152,19.3778775 11.024128,17.4579739 L8.66048988,17.4579739 L19.2604325,4.21947971 L14.9501899,5.01203461 L14.9501899,3.70651807 L24.7089133,0.210929107 L25.1668459,1.51644564 L21.2714022,3.91004222 L12.9684975,15.9074206 L26.4999682,28.5095371 L26.1191399,29.668974 C23.4888774,28.4729611 20.2102681,26.6612147 18.1514714,24.7047351 Z" fill="url(#linearGradient-12)"></path>
                                    <path d="M24.7086898,0.2111535 L25.1666224,1.51667004 L21.2711787,3.91026662 L12.968274,15.9076449 L26.4997447,28.5097615 L26.1189165,29.6691984 C23.4888774,28.4731855 20.2102681,26.6614391 18.1514714,24.7049595 C15.4838858,22.1316244 12.6623152,19.3781019 11.024128,17.4581983 L8.66048988,17.4581983 L19.2604325,4.2197041 L14.9501899,5.012259 L14.9501899,3.70674247 L24.7086898,0.2111535 Z M12.1295132,4.78023699 L12.1295132,6.08575352 L7.97459678,8.54823865 L7.97459678,25.5017778 L12.9684975,26.6977907 L12.9684975,28.0021853 L0.273776163,28.0021853 L0.273776163,26.6977907 L4.88662515,25.5017778 L4.88662515,9.37220852 L1.29959869,10.0249668 L1.29959869,8.71945025 L12.1295132,4.78023699 Z M24.7426604,0.139347846 L24.6899166,0.15819683 L14.9311932,3.6537858 L14.8940938,3.66702496 L14.8940938,3.70651807 L14.8940938,5.01203461 L14.8940938,5.07935241 L14.9600235,5.06723521 L19.1225387,4.30183182 L8.61668569,17.4227442 L8.54360422,17.5140721 L8.66026639,17.5140721 L10.9982031,17.5140721 C12.6542695,19.4512539 15.5379706,22.2615477 18.112584,24.7453501 C20.5613721,27.0725265 24.511124,28.9996107 26.0956734,29.7201356 L26.1522166,29.7459407 L26.1716603,29.6867011 L26.5524885,28.5272641 L26.563663,28.4931565 L26.5372911,28.4686977 L13.0413555,15.8997912 L21.3098426,3.95222804 L25.1952292,1.56491446 L25.2336696,1.54112884 L25.2186957,1.49826984 L24.7607632,0.192753301 L24.7426604,0.139347846 Z M12.1853859,4.7003532 L12.1105165,4.72750471 L1.28060197,8.66671798 L1.243726,8.68018154 L1.243726,8.71945025 L1.243726,10.0249668 L1.243726,10.0920602 L1.30965577,10.0801674 L4.83075246,9.43952632 L4.83075246,25.45847 L0.259696246,26.6437121 L0.217679986,26.6544829 L0.217679986,26.6980151 L0.217679986,28.0024097 L0.217679986,28.0585079 L0.273552673,28.0585079 L12.968274,28.0585079 L13.0241467,28.0585079 L13.0241467,28.0024097 L13.0241467,26.6980151 L13.0241467,26.6538098 L12.9812365,26.6434877 L8.03024598,25.4577969 L8.03024598,8.58055119 L12.1576731,6.13444673 L12.1851624,6.11806607 L12.1851624,6.08597791 L12.1851624,4.78046138 L12.1851624,4.7003532 L12.1853859,4.7003532 Z" fill="url(#linearGradient-13)"></path>
                                </g>
                                <g transform="translate(162.924754, 0.000000)">
                                    <polygon id="Path" fill="url(#linearGradient-14)" points="0.330989794 37.8891506 7.45386335 36.6487079 7.45386335 10.4820547 0.133870957 13.1186685 0.528108632 11.4310112 23.968265 0.19522162 22.8852289 8.44075456 21.0619914 8.44075456 21.3107366 3.62416596 10.2870555 10.9357766 10.2870555 23.0388439 16.2493416 22.804578 18.5790092 18.359808 19.8600581 17.5852045 18.7146681 30.2997418 16.397516 30.7684981 16.989543 25.568198 10.287279 25.3339321 10.287279 36.250411 22.0154029 37.2336996 24.2827165 30.3942111 26.05768 30.3942111 25.465653 39.5759103 0.330989794 39.5759103"></polygon>
                                    <path d="M23.968265,0.194997228 L22.8852289,8.44053017 L21.0619914,8.44053017 L21.3107366,3.62394157 L10.2870555,10.9355522 L10.2870555,23.0386195 L16.2493416,22.8043536 L18.5790092,18.3595836 L19.8600581,17.5849801 L18.7146681,30.2995174 L16.397516,30.7682737 L16.989543,25.5679737 L10.287279,25.3337077 L10.287279,36.2501866 L22.0154029,37.2334752 L24.2827165,30.3939867 L26.05768,30.3939867 L25.465653,39.5756859 L0.330989794,39.5756859 L0.330989794,37.889375 L7.45386335,36.6489323 L7.45386335,10.4820547 L0.133870957,13.1186685 L0.528108632,11.4310112 L23.968265,0.194997228 Z M24.0371002,0.0998547368 L23.944128,0.144284485 L0.503971631,11.3800741 L0.479834631,11.3917425 L0.473800381,11.4179965 L0.0795627054,13.1056537 L0.0560961771,13.2061816 L0.15286767,13.1714008 L7.39799066,10.5617141 L7.39799066,36.6015855 L0.321603183,37.83395 L0.275340599,37.8420281 L0.275340599,37.8891506 L0.275340599,39.5754615 L0.275340599,39.6315597 L0.331213285,39.6315597 L25.4654295,39.6315597 L25.5177263,39.6315597 L25.5210787,39.5790518 L26.1131057,30.3973526 L26.116905,30.3376642 L26.057233,30.3376642 L24.2822695,30.3376642 L24.2420412,30.3376642 L24.2293022,30.3760353 L21.975845,37.1735624 L10.3429282,36.1983519 L10.3429282,25.391601 L16.9269656,25.6218279 L16.3416433,30.7617663 L16.3329272,30.8382842 L16.4082436,30.8230255 L18.7253956,30.3542692 L18.7662944,30.3459667 L18.7700938,30.3042297 L19.9154838,17.5896924 L19.9253174,17.4795156 L19.8310043,17.5365113 L18.5499554,18.3111148 L18.5365459,18.3191929 L18.5293942,18.3331053 L16.2149241,22.749153 L10.3429282,22.980053 L10.3429282,10.9656209 L21.2490531,3.73187444 L21.0061187,8.43761306 L21.0029898,8.49662834 L21.0617679,8.49662834 L22.8850054,8.49662834 L22.9339498,8.49662834 L22.9404311,8.44793513 L24.0234672,0.202402186 L24.0371002,0.0998547368 Z" id="Shape" fill="url(#linearGradient-15)" fill-rule="nonzero"></path>
                                </g>
                                <g transform="translate(16.761806, 11.444026)">
                                    <path d="M4.78471337,20.7863903 L4.78471337,4.63079147 L0.202929597,1.40200538 L0.202929597,0.0964888468 L12.1567791,4.33571511 L12.1567791,5.64123165 L7.87290849,5.22991989 L7.87290849,20.0611532 C7.87290849,23.7209976 10.8839993,26.0766718 14.657864,26.0766718 C17.5169811,26.0766718 19.9566061,24.4096587 19.9566061,20.4966994 L19.9566061,9.52457114 L15.9921038,6.90837704 L15.9921038,5.80122362 L25.6006414,9.28626613 L25.6006414,10.5917827 L22.7397364,10.323409 L22.7397364,20.2058865 C22.7397364,25.8951382 18.3944058,28.1413088 13.3234008,28.1413088 C8.6359059,28.1415332 4.78471337,26.0037442 4.78471337,20.7863903 Z" id="Path" fill="url(#linearGradient-16)"></path>
                                    <path d="M0.202706106,0.0964888468 L12.1567791,4.3359395 L12.1567791,5.64145604 L7.87290849,5.23014428 L7.87290849,20.0613776 C7.87290849,23.721222 10.8839993,26.0768962 14.657864,26.0768962 C17.5169811,26.0768962 19.9566061,24.4098831 19.9566061,20.4969238 L19.9566061,9.52479554 L15.9921038,6.90860143 L15.9921038,5.80144801 L25.6006414,9.28649052 L25.6006414,10.5920071 L22.7397364,10.3236334 L22.7397364,20.2061109 C22.7397364,25.8953626 18.3944058,28.1415332 13.3234008,28.1415332 C8.63568241,28.1415332 4.78448988,26.0037442 4.78448988,20.7863903 L4.78448988,4.63079147 L0.202706106,1.40200538 L0.202706106,0.0964888468 Z M0.147056911,0.0172782354 L0.147056911,0.0964888468 L0.147056911,1.40200538 L0.147056911,1.43117643 L0.17074693,1.44800588 L4.72884069,4.66018691 L4.72884069,20.7866147 C4.72884069,23.2666025 5.58123439,25.177306 7.26233178,26.4653199 C8.74161702,27.5987273 10.8375132,28.1978557 13.3236243,28.1978557 C16.0379194,28.1978557 18.3349573,27.5599074 19.9664397,26.3526748 C21.843762,24.9636842 22.7956091,22.8956814 22.7956091,20.2063353 L22.7956091,10.3853414 L25.5955011,10.6478808 L25.6565141,10.653715 L25.6565141,10.5922315 L25.6565141,9.28671492 L25.6565141,9.24722181 L25.6196381,9.23375825 L16.0111005,5.74871574 L15.9362311,5.72156422 L15.9362311,5.80144801 L15.9362311,6.90860143 L15.9362311,6.93889444 L15.9614856,6.9554995 L19.9007334,9.55508855 L19.9007334,20.4971482 C19.9007334,23.9559367 17.9407196,26.0210225 14.657864,26.0210225 C10.758621,26.0210225 7.92878118,23.5147808 7.92878118,20.061602 L7.92878118,5.29207666 L12.1514153,5.69755421 L12.2126518,5.70338842 L12.2126518,5.64168043 L12.2126518,4.3361639 L12.2126518,4.29644639 L12.1753288,4.28320723 L0.221479329,0.0437565701 L0.147056911,0.0172782354 Z" id="Shape" fill="url(#linearGradient-17)" fill-rule="nonzero"></path>
                                </g>
                            </g>
                        </g>
                    </g>
                </g>
            </g>
        </g>
    </g>
</svg>