<svg version="1.1" id="Layer_1" xmlns="http://www.w3.org/2000/svg" xmlns:xlink="http://www.w3.org/1999/xlink" x="0px" y="0px"
	 viewBox="0 0 192.7 157.7" style="enable-background:new 0 0 192.7 157.7;" xml:space="preserve">
<style type="text/css">
	.st0{opacity:0.85;}
	.st1{fill-rule:evenodd;clip-rule:evenodd;fill:#080808;}
	.st2{fill:#080808;}
	.st3{fill-rule:evenodd;clip-rule:evenodd;fill:url(#Shape_9_);}
	.st4{fill-rule:evenodd;clip-rule:evenodd;fill:url(#Path_6_);}
	.st5{fill:url(#Shape_10_);}
	.st6{fill-rule:evenodd;clip-rule:evenodd;fill:url(#Path_7_);}
	.st7{fill:url(#Shape_11_);}
	.st8{fill-rule:evenodd;clip-rule:evenodd;fill:url(#Path_8_);}
	.st9{fill:url(#Shape_12_);}
	.st10{fill-rule:evenodd;clip-rule:evenodd;fill:url(#Path_9_);}
	.st11{fill:url(#Shape_13_);}
	.st12{fill:url(#SVGID_1_);}
	.st13{fill:url(#SVGID_2_);}
	.st14{fill:url(#SVGID_3_);}
	.st15{fill:url(#SVGID_4_);}
	.st16{fill-rule:evenodd;clip-rule:evenodd;fill:url(#Path_10_);}
	.st17{fill:url(#Shape_14_);}
	.st18{fill-rule:evenodd;clip-rule:evenodd;fill:url(#Path_11_);}
	.st19{fill:url(#Shape_15_);}
</style>
<g>
	<g class="st0">
		<path id="Shape_99_" class="st1" d="M91.5,25.2c1.1,2.1,3.5,3.7,4.4,4.3l0,1.1C94.9,30,91.7,27.3,91.5,25.2z M90.4,31.6
			c1.2,2.2,4.3,4.5,5.4,5.3l0,1.1C94.7,37.4,90.7,33.8,90.4,31.6z M89.5,37.7c1.1,2.1,4.7,5,6.3,6.2l0,1.4
			C93.9,43.9,89.7,39.7,89.5,37.7z M88.4,45.3c1.1,1.9,5.2,4.7,7.3,6l0,1.7C93.3,51.1,88.7,47.2,88.4,45.3z M87.5,53.4
			c1.3,2,6,4.5,8.2,5.6l0,1.6C93.1,59,87.9,55.3,87.5,53.4z M86.5,59c1.3,2,6.8,4.7,9.1,5.8l0,1.4C92.8,64.7,86.9,61,86.5,59z
			 M87.6,66.1c1.3,1.3,5.2,2.7,8,3.5l0,1.1C92.3,69.4,88.2,67.5,87.6,66.1z M88,71.6c1.2,1.4,4.8,2.8,7.6,3.8l0,1.1
			C92.4,75.1,88.5,73.1,88,71.6z M90.5,77.8c0.6,1.4,2.9,3.5,5,5.1l0,1.2C93.1,81.9,90.5,79.2,90.5,77.8z M96.2,18.1
			c-0.6-0.5-1.7-1.6-1.7-2.6c0.4,1,1.2,1.7,1.7,2.1L96.2,18.1z M97.1,101L97.1,101c0.3,0,0.6-0.2,0.7-0.6h0l0,0c0,0,0-0.1,0-0.1
			c0-5.6-0.5-10.9-0.8-16.5c2.3-2.2,4.8-4.8,4.8-6.2c-0.6,1.4-2.8,3.4-4.8,5L97,76.5c3.1-1.4,6.9-3.4,7.4-4.8
			c-1.2,1.3-4.7,2.8-7.4,3.8l0-4.8c3.2-1.2,7.2-3.1,7.8-4.5c-1.3,1.3-5,2.6-7.8,3.5l0-3.4c2.9-1.6,8.5-5.2,8.9-7.1
			c-1.3,2-6.6,4.6-8.9,5.7l0-4.3c2.6-1.6,7.6-5.2,8-7.1c-1.3,1.9-5.8,4.4-8,5.5l-0.1-6c2.5-1.9,6.9-5.7,7.1-7.5
			c-1,1.9-4.9,4.5-7.1,5.9l0-5.9c1.9-1.6,5.9-5.6,6.1-7.5c-1.1,2-4.5,4.8-6.1,6.1l0-5.9c1.3-0.9,5-4.2,5.3-6.3
			c-1.1,2.1-4,4.3-5.3,5.2l-0.1-6.3c1.2-0.8,4-3.3,4.3-5.3c-1.1,2-3.2,3.5-4.3,4.2l0-5.3c0.6-0.5,2.7-2.3,2.7-4
			c-0.7,1.6-2.1,2.8-2.7,3.2l0-5.4c0.6-0.5,1.7-1.6,1.7-2.6c-0.4,1-1.2,1.7-1.7,2.1l0-3.5l0,3.5l0,0.5l0,82.5h0
			C96.4,100.8,96.7,101,97.1,101z M93.3,20.3c0.7,1.6,2.1,2.8,2.8,3.2l0,0.8C95.5,23.9,93.3,22,93.3,20.3z M149.5,58.6
			c-0.1-0.7-0.1-2.2,0.6-3.5C149,56,149,58.3,149,59L149.5,58.6z M145.5,61.9c-0.2-1-0.4-3.1,0.4-4.9c-1.2,1.3-1.3,4.4-1.1,5.5
			L145.5,61.9z M140.5,66.1c-0.1-1.2-0.3-4.1,0.4-6c-1.3,1.3-1.4,5.3-1.2,6.6L140.5,66.1z M135.8,70c-0.1-1.7-0.1-5.2,0.6-6.9
			c-1.2,1.2-1.5,5.7-1.5,7.7L135.8,70z M130.8,74.1c-0.3-2-0.8-5.7-0.1-7.3c-1.1,1.1-1.1,5.7-1,8.2L130.8,74.1z M125.6,78.4
			c-0.5-1.9-1.4-5.8-0.9-7.6c-1,1.3-0.6,6-0.2,8.4L125.6,78.4z M121.6,81.8c-0.6-2.1-1.8-6.4-1.2-8.2c-1,1.3-0.3,6.4,0.3,9
			L121.6,81.8z M118.4,84.5c-1-2.1-2.2-4.8-2.1-6.3c-0.6,1.1,0.4,4.4,1.4,6.9L118.4,84.5z M114.5,87.7c-0.9-2.1-1.8-4.8-1.6-6.2
			c-0.6,1.1,0.1,4.2,0.9,6.8L114.5,87.7z M110.5,91c-0.1-2,0-4.2,0.6-5.3c-0.9,0.7-1.2,3.5-1.4,5.9L110.5,91z M153.9,53.1
			c-0.6,0.5-0.8,1.8-0.8,2.4l0.3-0.3C153.5,54.7,153.5,53.9,153.9,53.1z M150.8,104.4c0.3,0.3,1.1,1.1,1.8,1.1
			c-0.7-0.2-1.2-0.8-1.5-1.1L150.8,104.4z M151.1,104.3c0.4-0.3,1.1-1,1.8-1c-0.6,0.2-1.2,0.7-1.4,1L151.1,104.3z M138.2,104.2
			c0.7-0.8,2.9-3,4.3-3.1c-1.4,0.7-2.9,2.3-3.5,3.1L138.2,104.2z M133,104.1c0.7-0.9,3-3.2,4.5-3.4c-1.5,0.7-3.1,2.5-3.9,3.4
			L133,104.1z M129.1,104.1c1.2-1.4,3.3-3.8,4.5-3.9c-1.2,0.6-2.8,2.6-3.7,3.9L129.1,104.1z M124.3,104.1c1.2-1.4,3.3-4.1,4.4-4.2
			c-1.2,0.6-2.8,3-3.7,4.2L124.3,104.1z M120.7,104c1.2-1.5,3.3-4.8,4.5-4.9c-1.2,0.5-2.8,3.6-3.7,4.9L120.7,104z M117.7,104
			c0.9-1.6,2.3-4,3.1-4.3c-0.8,0.6-1.9,2.9-2.5,4.3L117.7,104z M114.1,104c0.9-1.6,2.3-4,3.1-4.3c-0.8,0.6-1.8,2.8-2.5,4.3
			L114.1,104z M109.4,104c1.1-1,3.2-2.8,4-2.8c-0.9,0.3-2.3,1.9-3.2,2.8L109.4,104z M147,104.2c0.4-0.4,1.6-1.6,2.7-1.6
			c-1,0.4-1.8,1.2-2.2,1.6L147,104.2z M146.4,101.8c-1.3,0.6-2.3,1.8-2.8,2.4l-0.7,0C143.4,103.5,145.1,101.9,146.4,101.8z
			 M107.9,110.6c-0.5-0.2-2.1,0.3-3.3,0.6l0.3,0.2C105.8,111.1,107.3,110.6,107.9,110.6z M109.8,112.2c-0.5-0.2-2.3,0.3-3.4,0.7
			l0.3,0.3C107.6,112.8,109.2,112.2,109.8,112.2z M114,116.2c-0.6-0.4-2.9-0.1-4.1,0.1l0.3,0.3C111.2,116.3,113.2,115.9,114,116.2z
			 M108.2,114.7c1-0.2,3.2-0.9,4-0.7c-0.6-0.4-3.2,0.2-4.4,0.4L108.2,114.7z M115.8,118.1c-0.6-0.4-2.7-0.2-4-0.1l0.3,0.3
			C113.1,118.2,114.9,117.9,115.8,118.1z M117.3,120.1c-0.8-0.6-3-0.5-3.8-0.3l0.3,0.3C114.6,119.9,116.3,119.7,117.3,120.1z
			 M119.1,122.1c-0.7-0.5-2.7-0.4-3.4-0.3l0.3,0.3C116.7,122,118.1,121.8,119.1,122.1z M123.7,128.4c-0.3-0.3-0.9-0.3-1.2-0.3
			l0.2,0.1C122.9,128.3,123.3,128.3,123.7,128.4z M120.8,126.6c0.4,0,1.1-0.1,1.7,0.2c-0.4-0.4-1.4-0.4-1.9-0.4L120.8,126.6z
			 M118.6,124.5c0.5-0.1,1.4-0.3,2.2-0.1c-0.6-0.4-1.9-0.3-2.5-0.2L118.6,124.5z M103.2,109.9c0.8-0.2,2-0.6,2.6-0.5
			c-0.4-0.3-1.9,0-2.9,0.2L103.2,109.9z M44.7,58.6c0.1-0.7,0.1-2.2-0.6-3.5c1.1,0.9,1.1,3.2,1.1,3.9L44.7,58.6z M48.7,61.9
			c0.2-1,0.4-3.1-0.4-4.9c1.2,1.3,1.3,4.4,1.1,5.5L48.7,61.9z M53.7,66.1c0.1-1.2,0.3-4.1-0.4-6c1.3,1.3,1.4,5.3,1.2,6.6L53.7,66.1z
			 M58.4,70c0.1-1.7,0.1-5.2-0.6-6.9c1.2,1.2,1.5,5.7,1.5,7.7L58.4,70z M63.3,74.1c0.3-2,0.8-5.7,0.1-7.3c1.1,1.1,1.1,5.7,1,8.2
			L63.3,74.1z M68.5,78.4c0.5-1.9,1.4-5.8,0.9-7.6c1,1.3,0.6,6,0.2,8.4L68.5,78.4z M72.6,81.8c0.6-2.1,1.8-6.4,1.2-8.2
			c1,1.3,0.3,6.4-0.3,9L72.6,81.8z M75.8,84.5c1-2.1,2.2-4.8,2.1-6.3c0.6,1.1-0.4,4.4-1.4,6.9L75.8,84.5z M79.7,87.7
			c0.9-2.1,1.8-4.8,1.6-6.2c0.6,1.1-0.1,4.2-0.9,6.8L79.7,87.7z M83.7,91c0.1-2,0-4.2-0.6-5.3c0.9,0.7,1.2,3.5,1.4,5.9L83.7,91z
			 M40.3,53.1c0.6,0.5,0.8,1.8,0.8,2.4l-0.3-0.3C40.7,54.7,40.7,53.9,40.3,53.1z M43.3,104.4c-0.3,0.3-1.1,1.1-1.8,1.1
			c0.7-0.2,1.2-0.8,1.5-1.1L43.3,104.4z M43,104.3c-0.4-0.3-1.1-1-1.8-1c0.6,0.2,1.2,0.7,1.4,1L43,104.3z M56,104.2
			c-0.7-0.8-2.9-3-4.3-3.1c1.4,0.7,2.9,2.3,3.5,3.1L56,104.2z M61.1,104.1c-0.8-0.9-3-3.2-4.5-3.4c1.5,0.7,3.1,2.5,3.9,3.4
			L61.1,104.1z M65.1,104.1c-1.2-1.4-3.3-3.8-4.5-3.9c1.2,0.6,2.8,2.6,3.7,3.9L65.1,104.1z M69.9,104.1c-1.2-1.4-3.3-4.1-4.4-4.2
			c1.2,0.6,2.8,3,3.7,4.2L69.9,104.1z M73.5,104c-1.2-1.5-3.3-4.8-4.5-4.9c1.2,0.5,2.8,3.6,3.7,4.9L73.5,104z M76.5,104
			c-0.9-1.6-2.3-4-3.1-4.3c0.8,0.6,1.9,2.9,2.5,4.3L76.5,104z M80,104c-0.9-1.6-2.3-4-3.1-4.3c0.8,0.6,1.8,2.8,2.5,4.3L80,104z
			 M84.8,104c-1.1-1-3.2-2.8-4-2.8c0.9,0.3,2.3,1.9,3.2,2.8L84.8,104z M47.2,104.2c-0.4-0.4-1.6-1.6-2.7-1.6c1,0.4,1.8,1.2,2.2,1.6
			L47.2,104.2z M47.8,101.8c1.3,0.6,2.3,1.8,2.8,2.4l0.7,0C50.8,103.5,49.1,101.9,47.8,101.8z M86.3,110.6c0.5-0.2,2.1,0.3,3.3,0.6
			l-0.3,0.2C88.4,111.1,86.9,110.6,86.3,110.6z M84.4,112.2c0.5-0.2,2.3,0.3,3.4,0.7l-0.3,0.3C86.6,112.8,85,112.2,84.4,112.2z
			 M80.2,116.2c0.6-0.4,2.9-0.1,4.1,0.1l-0.3,0.3C83,116.3,81,115.9,80.2,116.2z M86,114.7c-1-0.2-3.2-0.9-4-0.7
			c0.6-0.4,3.2,0.2,4.4,0.4L86,114.7z M78.4,118.1c0.6-0.4,2.7-0.2,4-0.1l-0.3,0.3C81,118.2,79.3,117.9,78.4,118.1z M76.9,120.1
			c0.8-0.6,3-0.5,3.8-0.3l-0.3,0.3C79.6,119.9,77.9,119.7,76.9,120.1z M75.1,122.1c0.7-0.5,2.7-0.4,3.4-0.3l-0.3,0.3
			C77.5,122,76,121.8,75.1,122.1z M70.5,128.4c0.3-0.3,0.9-0.3,1.2-0.3l-0.2,0.1C71.3,128.3,70.9,128.3,70.5,128.4z M73.3,126.6
			c-0.4,0-1.1-0.1-1.7,0.2c0.4-0.4,1.4-0.4,1.9-0.4L73.3,126.6z M75.6,124.5c-0.5-0.1-1.4-0.3-2.2-0.1c0.6-0.4,1.9-0.3,2.5-0.2
			L75.6,124.5z M90.9,109.9c-0.8-0.2-2-0.6-2.6-0.5c0.4-0.3,1.9,0,2.9,0.2L90.9,109.9z M108.5,108.7c-1.1-0.5-3.9-0.5-3.9-0.5
			s0.7-0.2,1.3-0.6c-0.9-0.1-7.5-1.9-7.5-2.8c0-0.3,0.2-0.5,0.5-0.5l55.1,0l-6.9,0.1c0.3,0.4,1.2,1.3,2.3,1.7
			c-1.1,0-2.4-1.3-2.8-1.7l-3.4,0c0.4,0.6,1.5,1.9,2.8,2.5c-1.4-0.1-3.1-1.8-3.5-2.5l-3.9,0c0.6,0.7,2.1,2.5,3.6,3.1
			c-1.4-0.1-3.7-2.3-4.4-3.1l-4.5,0c0.7,0.8,2.4,2.7,3.9,3.4c-1.6-0.2-3.8-2.5-4.6-3.4l-3.2,0c0.9,1.2,2.5,3.4,3.8,3.9
			c-1.2-0.1-3.3-2.5-4.5-3.9l-4.1,0c0.9,1.2,2.5,3.7,3.7,4.2c-1.2-0.1-3.3-2.8-4.4-4.2l-2.8,0c0.9,1.3,2.6,4.4,3.7,4.9
			c-1.1-0.1-3.3-3.4-4.5-4.9l-2.4,0c0.6,1.4,1.7,3.7,2.5,4.3c-0.8-0.3-2.3-2.7-3.1-4.3l-2.9,0c0.6,1.5,1.7,3.7,2.5,4.3
			c-0.8-0.3-2.2-2.7-3.1-4.3l-3.9,0c0.8,0.9,2.2,2.5,3.2,2.8c-0.9,0-3-1.8-4.1-2.8c-2.9,0.2-6.1,0.5-9,0.6c2.1,0,7.3,0.5,10.7,4.1
			c0,0,0.1-1.4-0.2-1.8c1.5,2,4,2.8,4,2.8s-0.3-0.9-0.2-1.8c1.1,1.7,4.3,2.8,4.3,2.8s-0.6-0.9-0.6-2c1.2,1.6,4.5,2.3,4.5,2.3
			s-0.7-0.5-0.9-2.2c2.1,2,5.9,2.4,5.9,2.4s-1-1-1.1-2.2c1.7,1.8,4.8,1.7,4.8,1.7s-0.6-0.8-0.7-2.2c1.4,1.4,5.2,1.6,5.2,1.6
			s-0.9-1.2-0.8-2.1c2.2,1.8,5.5,1.2,5.5,1.2s-0.8-0.5-0.9-1.5c1.9,1,5.2,0.7,5.2,0.7s-0.9-0.5-1.2-1.3c1.5,0.6,5,0.3,5,0.3
			s-0.7-0.3-1-1c2,0.4,4.6,0,4.6,0s-0.6-0.2-0.9-0.8c1.6,0.3,3.3-0.1,3.3-0.1s-1-0.7-0.5-0.9c0.7-0.3,3.1-0.5,7.9-0.1
			c-3.6-1.6-7.1-2.1-7.9-2c-0.6,0.1,0.5-0.9,0.5-0.9s-1.8-0.4-3.3-0.1c0.3-0.6,0.9-0.8,0.9-0.8s-2.6-0.4-4.6,0c0.3-0.7,1-1,1-1
			s-3.6-0.3-5,0.3c0.3-0.9,1.2-1.3,1.2-1.3s-3.3-0.4-5.2,0.7c0.1-1,0.9-1.5,0.9-1.5s-3.3-0.6-5.5,1.2c0-0.9,0.8-2.1,0.8-2.1
			s-3.8,0.2-5.2,1.6c0.1-1.4,0.7-2.2,0.7-2.2s-3.1-0.1-4.8,1.7c0.1-1.2,1.1-2.2,1.1-2.2s-3.8,0.4-5.9,2.4c0.2-1.7,0.9-2.2,0.9-2.2
			s-3.4,0.7-4.5,2.3c0-1.1,0.6-2,0.6-2s-3.2,1.1-4.3,2.8c-0.1-0.8,0.2-1.8,0.2-1.8s-2.4,0.8-4,2.8c0.3-0.4,0.2-1.8,0.2-1.8
			c-2.1,2.2-11.2,5.5-12.6,4.1c-0.3-0.3-0.2-0.7,0-0.9c18.1-15.7,36.9-31.1,55.3-46.6l0.2-0.2l0,0l2.8-2.3l-2.7,2.3
			c0.6,0.1,1.6,0.1,2.5-0.2c-0.7,0.6-2.1,0.5-2.8,0.5l-3.6,3.1c0.7,0.1,2.4,0.3,3.8-0.3c-1.1,0.9-3.6,0.8-4.3,0.7l-3.5,3
			c1,0.2,3.3,0.6,5.3,0.1c-1.5,1-5,0.8-6.1,0.5l-4.2,3.6c1.2,0.2,4.5,0.7,6.6,0.1c-1.6,1.1-6.1,0.8-7.3,0.5l-3.9,3.4
			c1.8,0.2,5.7,0.6,7.6,0.1c-1.4,1-6.5,0.9-8.6,0.7l-3.9,3.4c2.1,0.5,6.2,1.3,8.1,0.8c-1.4,0.9-6.5,0.5-9.2,0.2l-4,3.4
			c1.9,0.6,6.3,1.9,8.3,1.5c-1.5,0.8-6.8,0-9.3-0.6l-2.9,2.5c2.1,0.7,6.9,2.3,9,1.9c-1.5,0.9-7.2-0.4-9.9-1.1l-2.3,1.9
			c2.2,1.1,5.2,2.6,6.8,2.6c-1.3,0.5-4.9-0.8-7.5-2l-3.2,2.7c2.2,1,5.2,2.2,6.8,2.1c-1.2,0.5-4.8-0.5-7.5-1.5l-4.2,3.6
			c2.3,0.3,4.9,0.4,6.1,0c-0.9,0.8-4,0.7-6.8,0.6c-3.5,3.3-6.9,6.6-10.5,9.8c0,0,0,0,0,0c8-7.1,16.6-5.7,16.6-5.7s-1.3-1.6-2.9-2.1
			c4.9,0.5,7.7-0.5,7.7-0.5s-2-1-2.3-1.9c4.8,0.6,7.9-0.7,7.9-0.7s-2.5-0.9-3.5-2c4.2,0.9,8.3-1.1,8.3-1.1s-2.3-0.4-3.6-1.6
			c4.4,0.3,8.8-2.8,8.8-2.8s-2.5,0-3.5-1.1c3.5,0.2,7.4-3.2,7.4-3.2s-2.4,0.1-3.8-1.1c3.8-0.5,7.1-3.5,7.1-3.5s-1.5-0.1-2.6-1.1
			c3.6,0,7.2-3.3,7.2-3.3s-1.6-0.1-2.8-1.3c2.6-0.2,6-3.5,6-3.5s-1.6-0.1-2.8-0.8c2.8-0.8,6.2-4.2,6.2-4.2s-1.4,0.2-2.5,0
			c0,0,4-2.2,5.4-4c0,0-1.9,0.1-2.6-0.1c3-1.4,4.7-3.3,4.7-3.3s-1.1,0.2-1.9-0.2c-0.2-0.1,5.6-5.7,8.5-7.5c-6.2-0.1-10.9,5.8-11,5
			c-0.2-0.8,0-1.8,0-1.8s-2.2,1.3-4,4c-0.2-0.7,0.1-2.4,0.1-2.4c-2.1,1.1-4.8,4.6-4.8,4.6c-0.2-1,0.2-2.3,0.2-2.3s-3.9,2.8-5,5.3
			c-0.6-1.1-0.6-2.6-0.6-2.6s-3.9,2.8-4.3,5.2c-1.1-1.2-1.1-2.7-1.1-2.7s-3.8,3.1-4.2,6.4c-1-1.1-1-2.5-1-2.5s-3.5,2.7-4.4,6.2
			c-1.2-1.4-0.9-3.6-0.9-3.6s-4,3.3-4.1,6.6c-1.1-1-0.9-3.4-0.9-3.4s-3.7,3.7-3.8,7.8c-1.2-1.3-1.4-3.5-1.4-3.5s-2.6,3.6-2,7.6
			c-1.2-1-1.9-3.4-1.9-3.4s-1.6,2.8-1.4,7.2c-1-0.4-1.9-2.2-1.9-2.2s-1.3,2.5-1.2,7c-0.3-1.5-2-2.8-2-2.8s1.5,6.7-6.4,14.2
			c0.3-12.3,8.5-18.1,8.5-18.1s-1.2,0.6-3.7,0.4c3.5-2.6,4.5-6.7,4.5-6.7s-0.5,0.6-3.8,0.7c4.4-2.4,5.7-7.1,5.7-7.1
			s-1.1,1.1-4.8,1.3c5.6-2.6,6.2-7.8,6.2-7.8s-2.4,2-4.9,2.3c4.6-3.5,5.1-10.1,5.1-10.1s-1.3,2-4.3,2.4c3.3-2.8,3-8.8,3-8.8
			s-0.8,1.8-4.3,2.2c3.4-2.9,2.6-9.7,2.6-9.7s-0.5,1.7-3.3,2.5c3.2-4.3,2.7-10.5,2.7-10.5s-0.8,2-4.1,2.7c3.3-3.4,2.3-8.1,2.3-8.1
			s-0.9,1.8-3.5,2.5c2.5-2.8,2-9,2-9s-0.7,1.8-2.6,2.5c2-3.2,0.8-8.1,0.8-8.1s-0.5,2-2.7,3c1.9-1.9,1.2-6.8,1.2-6.8s-0.4,1.1-2,1.8
			c-0.5-7.7,0.4-12.6,0.4-12.6s-5.1,4.7-4.4,12.6c-1.6-0.8-2-1.8-2-1.8s-0.6,4.9,1.2,6.8c-2.3-1-2.7-3-2.7-3s-1.2,4.8,0.8,8.1
			c-1.8-0.7-2.6-2.5-2.6-2.5s-0.4,6.2,2,9c-2.6-0.7-3.5-2.5-3.5-2.5s-1,4.7,2.3,8.1c-3.3-0.7-4.1-2.7-4.1-2.7s-0.5,6.2,2.7,10.5
			c-2.9-0.8-3.3-2.5-3.3-2.5s-0.8,6.8,2.6,9.7c-3.5-0.5-4.3-2.2-4.3-2.2s-0.3,6,3,8.8c-3-0.4-4.3-2.4-4.3-2.4s0.5,6.6,5.1,10.1
			c-2.5-0.3-4.9-2.3-4.9-2.3s0.6,5.2,6.2,7.8c-3.7-0.2-4.8-1.3-4.8-1.3s1.3,4.7,5.7,7.1c-3.3-0.1-3.8-0.7-3.8-0.7s1.1,4.1,4.5,6.7
			c-2.6,0.2-3.7-0.4-3.7-0.4s8.1,5.8,8.5,18.1c-7.8-7.4-6.4-14.2-6.4-14.2s-1.7,1.4-2,2.8c0.1-4.5-1.2-7-1.2-7s-0.9,1.9-1.9,2.2
			c0.2-4.4-1.4-7.2-1.4-7.2s-0.7,2.4-1.9,3.4c0.6-4-2-7.6-2-7.6s-0.3,2.2-1.4,3.5c0-4.1-3.8-7.8-3.8-7.8s0.2,2.3-0.9,3.4
			c-0.1-3.3-4.1-6.6-4.1-6.6s0.3,2.2-0.9,3.6c-0.9-3.5-4.4-6.2-4.4-6.2s0.1,1.4-1,2.5c-0.4-3.3-4.2-6.4-4.2-6.4s0,1.5-1.1,2.7
			c-0.4-2.4-4.3-5.2-4.3-5.2s0,1.5-0.6,2.6c-1.1-2.5-5-5.3-5-5.3s0.3,1.3,0.2,2.3c0,0-2.7-3.5-4.8-4.6c0,0,0.3,1.7,0.1,2.4
			c-1.8-2.7-4-4-4-4s0.2,1,0,1.8c-0.2,0.8-4.8-5.1-11-5c2.9,1.8,8.7,7.4,8.5,7.5c-0.8,0.4-1.9,0.2-1.9,0.2s1.6,1.9,4.7,3.3
			c-0.7,0.3-2.6,0.1-2.6,0.1c1.4,1.8,5.4,4,5.4,4c-1.1,0.2-2.5,0-2.5,0s3.4,3.3,6.2,4.2c-1.2,0.7-2.8,0.8-2.8,0.8s3.3,3.4,6,3.5
			c-1.2,1.1-2.8,1.3-2.8,1.3s3.7,3.3,7.2,3.3c-1.1,1-2.6,1.1-2.6,1.1s3.2,3,7.1,3.5c-1.4,1.2-3.8,1.1-3.8,1.1s3.9,3.4,7.4,3.2
			c-1,1.1-3.5,1.1-3.5,1.1s4.3,3.1,8.8,2.8c-1.3,1.2-3.6,1.6-3.6,1.6s4.1,2.1,8.3,1.1c-1,1.2-3.5,2-3.5,2s3.1,1.2,7.9,0.7
			c-0.3,0.9-2.3,1.9-2.3,1.9s2.8,1,7.7,0.5c-1.5,0.4-2.9,2.1-2.9,2.1s8.3-1.3,16.2,5.3c-3.5-3.1-6.7-6.3-10.1-9.4
			c-2.8,0.1-5.8,0.2-6.8-0.6c1.3,0.5,3.9,0.3,6.1,0l-4.2-3.6c-2.7,1-6.3,2-7.5,1.5c1.6,0.1,4.6-1.1,6.8-2.1l-3.2-2.7
			c-2.7,1.2-6.3,2.4-7.5,2c1.6,0,4.7-1.4,6.8-2.6l-2.3-1.9c-2.7,0.8-8.4,2-9.9,1.1c2.1,0.4,6.9-1.2,9-1.9l-2.9-2.5
			c-2.5,0.6-7.9,1.4-9.3,0.6c2,0.4,6.3-0.9,8.3-1.5l-4-3.4c-2.6,0.4-7.8,0.8-9.2-0.2c1.9,0.5,5.9-0.3,8.1-0.8l-3.9-3.4
			c-2.1,0.2-7.1,0.3-8.6-0.7c2,0.5,5.9,0.1,7.6-0.1l-3.9-3.4c-1.2,0.3-5.7,0.5-7.3-0.5c2.1,0.5,5.3,0.1,6.6-0.1L49,63
			c-1.1,0.3-4.5,0.5-6.1-0.5c2,0.5,4.3,0.1,5.3-0.1l-3.5-3c-0.7,0.1-3.2,0.2-4.3-0.7c1.4,0.5,3.1,0.4,3.8,0.3l-3.6-3.1
			c-0.7,0.1-2.1,0.1-2.8-0.5c0.9,0.3,1.9,0.3,2.5,0.2l-2.7-2.3l2.8,2.3l0,0l0.2,0.2C59,71.2,77.8,86.6,95.9,102.3
			c0.3,0.2,0.3,0.6,0,0.9c-1.4,1.4-10.5-1.9-12.6-4.1c0,0-0.1,1.4,0.2,1.8c-1.5-2-4-2.8-4-2.8s0.3,0.9,0.2,1.8
			c-1.1-1.7-4.3-2.8-4.3-2.8s0.6,0.9,0.6,2c-1.2-1.6-4.5-2.3-4.5-2.3s0.7,0.5,0.9,2.2c-2.1-2-5.9-2.4-5.9-2.4s1,1,1.1,2.2
			c-1.7-1.8-4.8-1.7-4.8-1.7s0.6,0.8,0.7,2.2c-1.4-1.4-5.2-1.6-5.2-1.6s0.9,1.2,0.8,2.1c-2.2-1.8-5.5-1.2-5.5-1.2s0.8,0.5,0.9,1.5
			c-1.9-1-5.2-0.7-5.2-0.7s0.9,0.5,1.2,1.3c-1.5-0.6-5-0.3-5-0.3s0.7,0.3,1,1c-2-0.4-4.6,0-4.6,0s0.6,0.2,0.9,0.8
			c-1.6-0.3-3.3,0.1-3.3,0.1s1,0.9,0.5,0.9c-0.7-0.1-4.3,0.3-7.9,2c4.8-0.4,7.1-0.2,7.9,0.1c0.5,0.2-0.5,0.9-0.5,0.9
			s1.8,0.4,3.3,0.1c-0.3,0.6-0.9,0.8-0.9,0.8s2.6,0.4,4.6,0c-0.3,0.7-1,1-1,1s3.6,0.3,5-0.3c-0.3,0.9-1.2,1.3-1.2,1.3
			s3.3,0.4,5.2-0.7c-0.1,1-0.9,1.5-0.9,1.5s3.3,0.6,5.5-1.2c0,0.9-0.8,2.1-0.8,2.1s3.8-0.2,5.2-1.6c-0.1,1.4-0.7,2.2-0.7,2.2
			s3.1,0.1,4.8-1.7c-0.1,1.2-1.1,2.2-1.1,2.2s3.8-0.4,5.9-2.4c-0.2,1.7-0.9,2.2-0.9,2.2s3.4-0.7,4.5-2.3c0,1.1-0.6,2-0.6,2
			s3.2-1.1,4.3-2.8c0.1,0.8-0.2,1.8-0.2,1.8s2.4-0.8,4-2.8c-0.3,0.4-0.2,1.8-0.2,1.8c3.4-3.7,8.6-4.1,10.7-4.1
			c-2.9-0.1-6.2-0.4-9-0.6c-1.1,1-3.2,2.8-4.1,2.8c0.9-0.3,2.4-1.9,3.2-2.8l-3.9,0c-0.9,1.6-2.3,4-3.1,4.3c0.8-0.6,1.9-2.8,2.5-4.3
			l-2.9,0c-0.9,1.6-2.3,4.1-3.1,4.3c0.8-0.6,1.9-2.9,2.5-4.3l-2.4,0c-1.2,1.5-3.3,4.8-4.5,4.9c1.2-0.6,2.9-3.6,3.7-4.9l-2.8,0
			c-1.2,1.4-3.3,4.1-4.4,4.2c1.2-0.6,2.9-3,3.7-4.2l-4.1,0c-1.2,1.4-3.3,3.8-4.5,3.9c1.2-0.6,2.9-2.7,3.8-3.9l-3.2,0
			c-0.7,0.9-3,3.3-4.6,3.4c1.6-0.7,3.2-2.6,3.9-3.4l-4.5,0c-0.6,0.8-2.9,3-4.4,3.1c1.4-0.7,3-2.4,3.6-3.1l-3.9,0
			c-0.5,0.6-2.2,2.3-3.6,2.5c1.3-0.6,2.4-1.9,2.8-2.5l-3.4,0c-0.4,0.4-1.6,1.7-2.8,1.7c1.1-0.4,1.9-1.3,2.3-1.7l-6.9-0.1l55.1,0
			c0.3,0,0.5,0.2,0.5,0.5c0,1.1-6.8,2.7-7.5,2.8c0.6,0.4,1.3,0.6,1.3,0.6s-2.8,0-3.9,0.5l1.3,0.6c0,0-2.8,0.1-3.2,0.6
			c0,0,1.1,0.4,1.3,0.5c0.2,0.2-2.1,0.3-3.7,1.1l1.5,0.5c0,0-3,0.5-3.9,1.4l1.6,0.5c0,0-2,0.4-3.2,1.5l1.3,0.5c0,0-2.2,1.1-2.8,1.8
			l1.1,0.5c0,0-2.1,0.7-3.1,1.7l1.2,0.3c0,0-2.1,1.1-2.7,1.9l1.3,0.4c0,0-2.2,1.2-2.7,2l1.2,0.2c0,0-1.5,0.8-2.7,2.2l1.1,0.2
			l-1.7,1.4l0.8,0.1c0,0-2.5,1.6-2.5,4.5c1.5-2,3.8-3.7,3.8-3.7l0.1,0.8l1.5-1.6l0.2,1.1c1.5-1.1,2.3-2.5,2.3-2.5l0.2,1.1
			c0.8-0.5,2.2-2.5,2.2-2.5l0.4,1.2c0.8-0.5,2-2.5,2-2.5l0.3,1.1c1.1-0.9,1.9-2.8,1.9-2.8l0.5,1c0.8-0.6,2-2.6,2-2.6l0.5,1.2
			c1.2-1.1,1.7-3,1.7-3l0.6,1.5c1-0.9,1.6-3.6,1.6-3.6l0.5,1.4c0.9-1.5,1.1-3.5,1.2-3.4c0.2,0.2,0.5,1.2,0.5,1.2
			c0.6-0.4,0.7-2.9,0.7-2.9l0.6,1.2c0.5-1,0.5-3.6,0.5-3.6s0.2,0.7,0.7,1.2c0.5-4.1,2.1-5.9,2.4-6.2l-4.2,3.8
			c0.2,0.9,0.5,2.3,0.3,2.7c0.1-0.5-0.3-1.7-0.6-2.4l-1.4,1.3c0.4,1,0.9,2.6,0.7,3c0-0.6-0.5-1.9-1-2.8l-1.5,1.4
			c0.4,1.1,1,2.7,0.8,3.2c0.1-0.6-0.6-2.1-1-2.9l-1.3,1.2c0.2,1.1,0.9,3.5,0.5,4c0.2-0.7-0.5-2.8-0.8-3.7l-1.7,1.6
			c0.2,1.2,0.6,3.2,0.1,3.8c0.3-0.8-0.2-2.6-0.4-3.5l-1.6,1.5c0.2,1.1,0.4,3.1-0.1,3.7c0.3-0.8-0.1-2.4-0.3-3.3l-1.4,1.3
			c0.1,0.7,0.3,2.8-0.3,3.5c0.3-1,0.2-2.5,0-3.2l-1.9,1.7c0.1,0.7,0.2,2.5-0.3,3.2c0.3-0.9,0.1-2.2,0-2.8l-2.3,2.1
			c0.1,0.5,0.2,1.7-0.2,2.3c0.2-0.7,0-1.6-0.1-2l-2.1,1.9c0,0.4,0,1.3-0.4,1.7c0.3-0.6,0.2-1.2,0.2-1.5l-1.6,1.5
			c0,0.3,0,0.9-0.3,1.2c0.2-0.3,0.2-0.7,0.2-1l-0.9,0.8c8.3-7.9,16.4-15.9,25-23.6l0,0l0,0c0.1-0.1,0.3-0.1,0.4,0
			c1.1,1.1-1.9,19.7-5.5,22.1c-5.2,3.4,17.7,3.4,12.5,0c-3.7-2.4-6.6-21-5.5-22.1c0.1-0.1,0.3-0.1,0.4,0l0,0h0l0,0
			c8.6,7.7,16.6,15.7,25,23.6l-0.9-0.8c0,0.3,0,0.7,0.2,1c-0.3-0.3-0.3-0.8-0.3-1.2l-1.6-1.5c0,0.4-0.1,1,0.2,1.5
			c-0.4-0.4-0.4-1.3-0.4-1.7l-2.1-1.9c-0.1,0.4-0.3,1.3-0.1,2c-0.4-0.6-0.3-1.8-0.2-2.3l-2.3-2.1c-0.1,0.6-0.3,2,0,2.8
			c-0.5-0.7-0.5-2.5-0.3-3.2l-1.9-1.7c-0.1,0.7-0.3,2.2,0,3.2c-0.6-0.7-0.5-2.7-0.3-3.5l-1.4-1.3c-0.2,0.9-0.5,2.6-0.3,3.3
			c-0.5-0.6-0.2-2.5-0.1-3.7l-1.6-1.5c-0.2,0.9-0.7,2.7-0.4,3.5c-0.5-0.5-0.1-2.6,0.1-3.8l-1.7-1.6c-0.2,0.9-1,3-0.8,3.7
			c-0.4-0.5,0.3-2.9,0.5-4l-1.3-1.2c-0.4,0.9-1.1,2.3-1,2.9c-0.2-0.5,0.3-2.1,0.8-3.2l-1.5-1.4c-0.4,0.9-1,2.2-1,2.8
			c-0.2-0.4,0.3-2,0.7-3l-1.4-1.3c-0.3,0.7-0.7,1.9-0.6,2.4c-0.3-0.4,0-1.8,0.3-2.7l-4.2-3.9c0.2,0.2,2,2,2.5,6.2
			c0.5-0.6,0.7-1.2,0.7-1.2s0,2.6,0.5,3.6l0.6-1.2c0,0,0.1,2.6,0.7,2.9c0,0,0.4-1.1,0.5-1.2c0.2-0.2,0.3,1.9,1.2,3.4l0.5-1.4
			c0,0,0.5,2.8,1.6,3.6l0.6-1.5c0,0,0.4,1.9,1.7,3l0.5-1.2c0,0,1.2,2,2,2.6l0.5-1c0,0,0.8,1.9,1.9,2.8l0.3-1.1c0,0,1.2,1.9,2,2.5
			l0.4-1.2c0,0,1.3,2,2.2,2.5l0.2-1.1c0,0,0.9,1.4,2.4,2.5l0.2-1.1l1.5,1.6l0.1-0.8c0,0,2.3,1.7,3.8,3.7c0-2.9-2.5-4.5-2.5-4.5
			l0.8-0.1l-1.7-1.4l1.1-0.2c-1.2-1.4-2.7-2.2-2.7-2.2l1.2-0.2c-0.5-0.8-2.7-2-2.7-2l1.3-0.4c-0.6-0.7-2.7-1.9-2.7-1.9l1.2-0.3
			c-1-1-3.1-1.7-3.1-1.7l1.1-0.5c-0.7-0.8-2.8-1.8-2.8-1.8l1.3-0.5c-1.2-1.1-3.2-1.5-3.2-1.5l1.6-0.5c-0.9-1-3.9-1.4-3.9-1.4
			l1.5-0.5c-1.6-0.9-3.8-1-3.7-1.1c0.2-0.2,1.3-0.5,1.3-0.5c-0.4-0.5-3.2-0.6-3.2-0.6L108.5,108.7z"/>
		<polygon id="Path_71_" class="st1" points="1.6,154.1 6.2,152.9 6.2,125.7 2.4,123 2.4,122 13.2,125.9 12.7,127.2 9.3,126.4 
			9.3,152.8 18,153.6 19.7,148.3 21.1,148.3 20.7,155.4 1.6,155.4 		"/>
		<path id="Shape_98_" class="st2" d="M2.4,122l10.7,3.9l-0.4,1.3l-3.4-0.7v26.4l8.7,0.8l1.8-5.3h1.4l-0.5,7.1H1.6v-1.3l4.6-1.2
			v-27.1L2.4,123L2.4,122z M2.4,121.9L2.4,121.9L2.3,123l0,0l0,0l3.8,2.8v27.1L1.6,154l0,0v0v1.3v0.1h0.1h19.1h0.1l0-0.1l0.5-7.1
			l0-0.1h-0.1h-1.4h0l0,0l-1.7,5.2l-8.6-0.8v-26.2l3.3,0.7l0,0l0,0l0.4-1.3l0-0.1l-0.1,0L2.4,121.9L2.4,121.9z"/>
		<polygon id="Path_70_" class="st1" points="44.6,154.3 48.8,153.3 54.7,146.2 49,139 45.6,138 45.6,136.9 55,136.9 55,138 
			52,138.7 56.3,144.6 60.5,139 57.2,138 57.2,136.9 66.5,136.9 66.5,138 62.7,139 57.4,145.7 63.4,153.3 67.2,154.3 67.2,155.4 
			56.9,155.4 56.9,154.3 60.1,153.5 55.7,147.5 51,153.4 54.7,154.3 54.7,155.4 44.6,155.4 44.6,154.3 		"/>
		<path id="Shape_97_" class="st2" d="M66.5,136.9v1.1l-3.8,1l-5.3,6.7l6,7.6l3.8,1v1.1H56.9v-1.1l3.2-0.8l-4.4-6l-4.7,5.9l3.7,0.8
			v1.1H44.6v-1.1l4.2-1l5.9-7.1L49,139l-3.3-1v-1.1H55v1.1l-3,0.7l4.3,5.9l4.1-5.6l-3.2-1v-1.1H66.5z M66.6,136.9L66.6,136.9h-9.4
			h-0.1v0.1v1.1v0l0,0l3.2,1l-4,5.4l-4.2-5.7l2.9-0.7l0,0v0v-1.1v-0.1H55h-9.4h-0.1v0.1v1.1v0l0,0l3.3,1l5.6,7.2l-5.9,7l-4.2,1l0,0
			v0v1.1v0.1h0.1h10.1h0.1v-0.1v-1.1v0l0,0l-3.6-0.8l4.6-5.8l4.3,5.8l-3.2,0.8l0,0v0v1.1v0.1h0.1h10.3h0.1v-0.1v-1.1v0l0,0l-3.8-1
			l-6-7.5l5.3-6.7l3.8-1l0,0v0V136.9L66.6,136.9z"/>
		<path id="Path_69_" class="st1" d="M76,154.5l0.4-5.4h1.1l0.8,3.5c0.4,1.1,1.9,1.4,3,1.4c2.3,0,4.2-1,4.2-3.1c0-2-2.5-3.3-4.9-4.7
			c-2.1-1.3-4.1-2.6-4.1-4.7c0-2.8,2.5-4.8,5.7-4.8c2,0,3.8,0.4,5.2,1.1v4.7h-1.1l-0.8-2.9c-0.8-0.7-1.9-1.2-3.4-1.2
			c-1.8,0-3.3,0.7-3.3,2.4c0,1.6,2,2.8,4.1,4c2.4,1.4,4.9,2.9,4.9,5.1c0,3.5-2.9,5.9-6.8,5.9C80,155.7,77.3,155.6,76,154.5z"/>
		<path id="Shape_96_" class="st2" d="M82.4,136.8c2,0,3.8,0.4,5.2,1.1v4.7h-1.1l-0.8-2.9c-0.8-0.7-1.9-1.2-3.4-1.2
			c-1.8,0-3.3,0.7-3.3,2.4c0,1.6,2,2.8,4.1,4c2.4,1.4,4.9,2.9,4.9,5.1c0,3.5-2.9,5.9-6.8,5.9c-1.2,0-4-0.1-5.2-1.2l0.4-5.4h1.1
			l0.8,3.5c0.4,1.1,1.9,1.4,3,1.4c2.3,0,4.2-1,4.2-3.1c0-2-2.5-3.3-4.9-4.7c-2.1-1.3-4.1-2.6-4.1-4.7
			C76.7,138.8,79.2,136.8,82.4,136.8z M82.4,136.7c-1.6,0-3,0.5-4.1,1.4c-1.1,0.9-1.7,2.1-1.7,3.5c0,2.1,2,3.5,4.1,4.7
			c0.3,0.2,0.5,0.3,0.8,0.5c2.1,1.3,4.1,2.4,4.1,4.2c0,2.2-2.2,3-4.2,3c-0.7,0-2.5-0.1-3-1.3l-0.8-3.5l0,0h0h-1.1h-0.1l0,0.1
			l-0.4,5.4l0,0l0,0c1.2,1.1,3.8,1.2,5.3,1.2c1.9,0,3.7-0.6,4.9-1.7c1.3-1.1,1.9-2.6,1.9-4.3c0-2.2-2.5-3.7-4.8-5.1l-0.1-0.1
			c-1.9-1.1-4.1-2.4-4.1-4c0-1.4,1.2-2.3,3.2-2.3c1.4,0,2.5,0.4,3.4,1.2l0.8,2.9l0,0h0h1.1h0.1v-0.1v-4.7v0l0,0
			C86.1,137.1,84.3,136.7,82.4,136.7z"/>
		<polygon id="Path_68_" class="st1" points="102.4,155.4 95.1,141.6 93.6,153.4 97.4,154.3 97.4,155.4 87.8,155.4 87.8,154.3 
			91.6,153.4 94.3,137.1 95.6,136.8 103.6,152.1 111.3,136.8 112.6,137.1 115.4,153.4 119.2,154.3 119.2,155.4 108.9,155.4 
			108.9,154.3 112.6,153.4 110.7,141.3 103.7,155.7 		"/>
		<path id="Shape_95_" class="st2" d="M111.3,136.8l1.3,0.3l2.8,16.3l3.7,1v1.1h-10.3v-1.1l3.7-1l-1.9-12l-7,14.4l-1.4-0.3
			l-7.2-13.8l-1.5,11.7l3.8,1v1.1h-9.6v-1.1l3.7-1l2.7-16.3l1.3-0.3l8,15.3L111.3,136.8z M95.6,136.7L95.6,136.7l-1.3,0.3l0,0l0,0
			l-2.7,16.3l-3.7,1l0,0v0v1.1v0.1h0.1h9.6h0.1v-0.1v-1.1v0l0,0l-3.8-1l1.5-11.5l7.2,13.7l0,0l0,0l1.4,0.3l0,0l0,0l6.9-14.3
			l1.9,11.8l-3.7,1l0,0v0v1.1v0.1h0.1h10.3h0.1v-0.1v-1.1v0l0,0l-3.7-1l-2.8-16.3l0,0l0,0l-1.3-0.3l0,0l0,0l-7.6,15.2L95.6,136.7
			L95.6,136.7z"/>
		<path class="st2" d="M117.7,146.2c0-5.3,4.6-9.5,10.1-9.5c5.5,0,10.1,4.2,10.1,9.5s-4.6,9.5-10.1,9.5
			C122.3,155.7,117.7,151.5,117.7,146.2z M135,147.4c0-4.4-2.9-8.9-7.9-8.9c-4.2,0-6.5,2.9-6.5,6.7c0,4.4,2.9,8.9,7.9,8.9
			C132.7,154.1,135,151.2,135,147.4z"/>
		<path class="st2" d="M127.8,136.8c5.5,0,10.1,4.2,10.1,9.5s-4.6,9.5-10.1,9.5c-5.5,0-10.1-4.2-10.1-9.5S122.3,136.8,127.8,136.8z
			 M128.5,154.1c4.2,0,6.5-2.9,6.5-6.7c0-4.4-2.9-8.9-7.9-8.9c-4.2,0-6.5,2.9-6.5,6.7C120.6,149.6,123.5,154.1,128.5,154.1z
			 M127.8,136.7c-2.7,0-5.2,1-7.2,2.8c-2,1.8-3,4.2-3,6.8c0,2.6,1.1,5,3,6.8c1.9,1.8,4.5,2.8,7.2,2.8c2.7,0,5.2-1,7.2-2.8
			c2-1.8,3-4.2,3-6.8c0-2.6-1.1-5-3-6.8C133,137.7,130.5,136.7,127.8,136.7z M128.5,154c-4.9,0-7.8-4.5-7.8-8.9c0-4,2.5-6.7,6.5-6.7
			c4.9,0,7.8,4.5,7.8,8.9C135,151.4,132.4,154,128.5,154z"/>
		<path class="st2" d="M136.3,154.1l4.6-1.2v-16.1l-3.6,0.7v-1.3l10.8-3.9v1.3l-4.2,2.5v17l5,1.2v1.3h-12.7V154.1z M154.2,152.1
			c-2.7-2.6-5.5-5.3-7.1-7.2h-2.4l10.6-13.2l-4.3,0.8v-1.3l9.8-3.5l0.5,1.3l-3.9,2.4l-8.3,12l13.5,12.6l-0.4,1.2
			C159.5,155.9,156.3,154,154.2,152.1z"/>
		<path class="st2" d="M160.8,127.6l0.5,1.3l-3.9,2.4l-8.3,12l13.5,12.6l-0.4,1.2c-2.6-1.2-5.9-3-8-5c-2.7-2.6-5.5-5.3-7.1-7.2h-2.4
			l10.6-13.2l-4.3,0.8v-1.3L160.8,127.6z M148.2,132.2v1.3l-4.2,2.5v17l5,1.2v1.3h-12.7v-1.3l4.6-1.2v-16.1l-3.6,0.7v-1.3
			L148.2,132.2z M160.8,127.5L160.8,127.5L151,131l0,0v0v1.3v0.1l0.1,0l4.2-0.8l-10.5,13.1l-0.1,0.1h0.1h2.3
			c1.7,1.9,4.5,4.7,7.1,7.2c2.4,2.3,6.4,4.3,8,5l0.1,0l0-0.1l0.4-1.2l0,0l0,0l-13.5-12.6l8.3-11.9l3.9-2.4l0,0l0,0L160.8,127.5
			L160.8,127.5z M148.2,132.1L148.2,132.1l-10.9,4l0,0v0v1.3v0.1l0.1,0l3.5-0.6v16l-4.6,1.2l0,0v0v1.3v0.1h0.1H149h0.1v-0.1v-1.3v0
			l0,0l-5-1.2V136l4.1-2.4l0,0v0L148.2,132.1L148.2,132.1L148.2,132.1z"/>
		<polygon id="Path_67_" class="st1" points="164.8,154.1 171.9,152.8 171.9,126.6 164.6,129.3 165,127.6 188.4,116.4 187.3,124.6 
			185.5,124.6 185.7,119.8 174.7,127.1 174.7,139.2 180.7,139 183,134.5 184.3,133.7 183.1,146.5 180.8,146.9 181.4,141.7 
			174.7,141.5 174.7,152.4 186.4,153.4 188.7,146.6 190.5,146.6 189.9,155.7 164.8,155.7 		"/>
		<path id="Shape_94_" class="st2" d="M188.4,116.4l-1.1,8.2h-1.8l0.2-4.8l-11,7.3v12.1l6-0.2l2.3-4.4l1.3-0.8l-1.1,12.7l-2.3,0.5
			l0.6-5.2l-6.7-0.2v10.9l11.7,1l2.3-6.8h1.8l-0.6,9.2h-25.1v-1.7l7.1-1.2v-26.2l-7.3,2.6l0.4-1.7L188.4,116.4z M188.5,116.3
			L188.5,116.3l-23.5,11.3l0,0l0,0l-0.4,1.7l0,0.1l0.1,0l7.2-2.6v26l-7.1,1.2l0,0v0v1.7v0.1h0.1h25.1h0.1l0-0.1l0.6-9.2l0-0.1h-0.1
			h-1.8h0l0,0l-2.3,6.8l-11.6-1v-10.8l6.6,0.2l-0.6,5.1l0,0.1l0.1,0l2.3-0.5l0,0l0,0l1.1-12.7l0-0.1l-0.1,0.1l-1.3,0.8l0,0l0,0
			l-2.3,4.4l-5.9,0.2v-12l10.9-7.2l-0.2,4.7l0,0.1h0.1h1.8h0l0,0l1.1-8.2L188.5,116.3z"/>
		<path id="Path_66_" class="st1" d="M23,148.4v-16.2l-4.6-3.2v-1.3l12,4.2v1.3l-4.3-0.4v14.8c0,3.7,3,6,6.8,6
			c2.9,0,5.3-1.7,5.3-5.6v-11l-4-2.6v-1.1l9.6,3.5v1.3l-2.9-0.3v9.9c0,5.7-4.3,7.9-9.4,7.9C26.9,155.8,23,153.6,23,148.4z"/>
		<path id="Shape_93_" class="st2" d="M18.5,127.7l12,4.2v1.3l-4.3-0.4v14.8c0,3.7,3,6,6.8,6c2.9,0,5.3-1.7,5.3-5.6v-11l-4-2.6v-1.1
			l9.6,3.5v1.3l-2.9-0.3v9.9c0,5.7-4.3,7.9-9.4,7.9c-4.7,0-8.5-2.1-8.5-7.4v-16.2l-4.6-3.2V127.7z M18.4,127.6L18.4,127.6v1.4v0l0,0
			l4.6,3.2v16.1c0,2.5,0.9,4.4,2.5,5.7c1.5,1.1,3.6,1.7,6.1,1.7c2.7,0,5-0.6,6.6-1.8c1.9-1.4,2.8-3.5,2.8-6.1V138l2.8,0.3l0.1,0
			v-0.1v-1.3v0l0,0l-9.6-3.5l-0.1,0v0.1v1.1v0l0,0l3.9,2.6v10.9c0,3.5-2,5.5-5.2,5.5c-3.9,0-6.7-2.5-6.7-6v-14.8l4.2,0.4l0.1,0v-0.1
			v-1.3v0l0,0L18.4,127.6L18.4,127.6z"/>
	</g>
	<g>
		<g>
			<g id="Home_7_">
				<g id="Desktop-HD_7_" transform="translate(-313.000000, -53.000000)">
					<g id="Menu-Bar_7_" transform="translate(-990.000000, -90.000000)">
						<g id="Lux-Smoke---Logo_7_" transform="translate(1294.000000, 122.000000)">
							<g id="Group_14_" transform="translate(9.000000, 21.000000)">
								<g id="Group-3_7_">
									
										<linearGradient id="Shape_9_" gradientUnits="userSpaceOnUse" x1="-208.4803" y1="472.0872" x2="-207.4803" y2="472.0872" gradientTransform="matrix(138.1866 0 0 -131.3815 28835.6758 62089.3672)">
										<stop  offset="5.600000e-03" style="stop-color:#FBCA2A"/>
										<stop  offset="0.2528" style="stop-color:#FDF9CE"/>
										<stop  offset="0.2968" style="stop-color:#F6EBBC"/>
										<stop  offset="0.3841" style="stop-color:#E7D192"/>
										<stop  offset="0.5054" style="stop-color:#D1AC58"/>
										<stop  offset="0.5955" style="stop-color:#C2922E"/>
										<stop  offset="0.8246" style="stop-color:#E5C977"/>
										<stop  offset="0.8708" style="stop-color:#EED688"/>
										<stop  offset="1" style="stop-color:#FDF9CE"/>
									</linearGradient>
									<path id="Shape_85_" class="st3" d="M90,23.7c1.1,2.1,3.5,3.7,4.4,4.3l0,1.1C93.4,28.5,90.2,25.8,90,23.7z M88.9,30.1
										c1.2,2.2,4.3,4.5,5.4,5.3l0,1.1C93.2,35.9,89.2,32.3,88.9,30.1z M88,36.2c1.1,2.1,4.7,5,6.3,6.2l0,1.4
										C92.4,42.4,88.2,38.2,88,36.2z M86.9,43.8c1.1,1.9,5.2,4.7,7.3,6l0,1.7C91.8,49.6,87.2,45.7,86.9,43.8z M86,51.9
										c1.3,2,6,4.5,8.2,5.6l0,1.6C91.6,57.5,86.4,53.8,86,51.9z M85,57.5c1.3,2,6.8,4.7,9.1,5.8l0,1.4
										C91.3,63.2,85.4,59.5,85,57.5z M86.1,64.6c1.3,1.3,5.2,2.7,8,3.5l0,1.1C90.8,67.9,86.7,66,86.1,64.6z M86.5,70.1
										c1.2,1.4,4.8,2.8,7.6,3.8l0,1.1C90.9,73.6,87,71.6,86.5,70.1z M89,76.3c0.6,1.4,2.9,3.5,5,5.1l0,1.2
										C91.6,80.4,89,77.7,89,76.3z M94.7,16.6c-0.6-0.5-1.7-1.6-1.7-2.6c0.4,1,1.2,1.7,1.7,2.1L94.7,16.6z M95.6,99.5L95.6,99.5
										c0.3,0,0.6-0.2,0.7-0.6h0l0,0c0,0,0-0.1,0-0.1c0-5.6-0.5-10.9-0.8-16.5c2.3-2.2,4.8-4.8,4.8-6.2c-0.6,1.4-2.8,3.4-4.8,5
										L95.5,75c3.1-1.4,6.9-3.4,7.4-4.8c-1.2,1.3-4.7,2.8-7.4,3.8l0-4.8c3.2-1.2,7.2-3.1,7.8-4.5c-1.3,1.3-5,2.6-7.8,3.5l0-3.4
										c2.9-1.6,8.5-5.2,8.9-7.1c-1.3,2-6.6,4.6-8.9,5.7l0-4.3c2.6-1.6,7.6-5.2,8-7.1c-1.3,1.9-5.8,4.4-8,5.5l-0.1-6
										c2.5-1.9,6.9-5.7,7.1-7.5c-1,1.9-4.9,4.5-7.1,5.9l0-5.9c1.9-1.6,5.9-5.6,6.1-7.5c-1.1,2-4.5,4.8-6.1,6.1l0-5.9
										c1.3-0.9,5-4.2,5.3-6.3c-1.1,2.1-4,4.3-5.3,5.2L95.1,29c1.2-0.8,4-3.3,4.3-5.3c-1.1,2-3.2,3.5-4.3,4.2l0-5.3
										c0.6-0.5,2.7-2.3,2.7-4c-0.7,1.6-2.1,2.8-2.7,3.2l0-5.4c0.6-0.5,1.7-1.6,1.7-2.6c-0.4,1-1.2,1.7-1.7,2.1l0-3.5l0,3.5l0,0.5
										l0,82.5h0C94.9,99.3,95.2,99.5,95.6,99.5z M91.8,18.8c0.7,1.6,2.1,2.8,2.8,3.2l0,0.8C94,22.4,91.8,20.5,91.8,18.8z
										 M148,57.1c-0.1-0.7-0.1-2.2,0.6-3.5c-1.1,0.9-1.1,3.2-1.1,3.9L148,57.1z M144,60.4c-0.2-1-0.4-3.1,0.4-4.9
										c-1.2,1.3-1.3,4.4-1.1,5.5L144,60.4z M139,64.6c-0.1-1.2-0.3-4.1,0.4-6c-1.3,1.3-1.4,5.3-1.2,6.6L139,64.6z M134.3,68.5
										c-0.1-1.7-0.1-5.2,0.6-6.9c-1.2,1.2-1.5,5.7-1.5,7.7L134.3,68.5z M129.3,72.6c-0.3-2-0.8-5.7-0.1-7.3
										c-1.1,1.1-1.1,5.7-1,8.2L129.3,72.6z M124.1,76.9c-0.5-1.9-1.4-5.8-0.9-7.6c-1,1.3-0.6,6-0.2,8.4L124.1,76.9z M120.1,80.3
										c-0.6-2.1-1.8-6.4-1.2-8.2c-1,1.3-0.3,6.4,0.3,9L120.1,80.3z M116.9,83c-1-2.1-2.2-4.8-2.1-6.3c-0.6,1.1,0.4,4.4,1.4,6.9
										L116.9,83z M113,86.2c-0.9-2.1-1.8-4.8-1.6-6.2c-0.6,1.1,0.1,4.2,0.9,6.8L113,86.2z M109,89.5c-0.1-2,0-4.2,0.6-5.3
										c-0.9,0.7-1.2,3.5-1.4,5.9L109,89.5z M152.4,51.6c-0.6,0.5-0.8,1.8-0.8,2.4l0.3-0.3C152,53.2,152,52.4,152.4,51.6z
										 M149.3,102.9c0.3,0.3,1.1,1.1,1.8,1.1c-0.7-0.2-1.2-0.8-1.5-1.1L149.3,102.9z M149.6,102.8c0.4-0.3,1.1-1,1.8-1
										c-0.6,0.2-1.2,0.7-1.4,1L149.6,102.8z M136.7,102.7c0.7-0.8,2.9-3,4.3-3.1c-1.4,0.7-2.9,2.3-3.5,3.1L136.7,102.7z
										 M131.5,102.6c0.7-0.9,3-3.2,4.5-3.4c-1.5,0.7-3.1,2.5-3.9,3.4L131.5,102.6z M127.6,102.6c1.2-1.4,3.3-3.8,4.5-3.9
										c-1.2,0.6-2.8,2.6-3.7,3.9L127.6,102.6z M122.8,102.6c1.2-1.4,3.3-4.1,4.4-4.2c-1.2,0.6-2.8,3-3.7,4.2L122.8,102.6z
										 M119.2,102.5c1.2-1.5,3.3-4.8,4.5-4.9c-1.2,0.5-2.8,3.6-3.7,4.9L119.2,102.5z M116.2,102.5c0.9-1.6,2.3-4,3.1-4.3
										c-0.8,0.6-1.9,2.9-2.5,4.3L116.2,102.5z M112.6,102.5c0.9-1.6,2.3-4,3.1-4.3c-0.8,0.6-1.8,2.8-2.5,4.3L112.6,102.5z
										 M107.9,102.5c1.1-1,3.2-2.8,4-2.8c-0.9,0.3-2.3,1.9-3.2,2.8L107.9,102.5z M145.5,102.7c0.4-0.4,1.6-1.6,2.7-1.6
										c-1,0.4-1.8,1.2-2.2,1.6L145.5,102.7z M144.9,100.3c-1.3,0.6-2.3,1.8-2.8,2.4l-0.7,0C141.9,102,143.6,100.4,144.9,100.3z
										 M106.4,109.1c-0.5-0.2-2.1,0.3-3.3,0.6l0.3,0.2C104.3,109.6,105.8,109.1,106.4,109.1z M108.3,110.7
										c-0.5-0.2-2.3,0.3-3.4,0.7l0.3,0.3C106.1,111.3,107.7,110.7,108.3,110.7z M112.5,114.7c-0.6-0.4-2.9-0.1-4.1,0.1l0.3,0.3
										C109.7,114.8,111.7,114.4,112.5,114.7z M106.7,113.2c1-0.2,3.2-0.9,4-0.7c-0.6-0.4-3.2,0.2-4.4,0.4L106.7,113.2z
										 M114.3,116.6c-0.6-0.4-2.7-0.2-4-0.1l0.3,0.3C111.6,116.7,113.4,116.4,114.3,116.6z M115.8,118.6c-0.8-0.6-3-0.5-3.8-0.3
										l0.3,0.3C113.1,118.4,114.8,118.2,115.8,118.6z M117.6,120.6c-0.7-0.5-2.7-0.4-3.4-0.3l0.3,0.3
										C115.2,120.5,116.6,120.3,117.6,120.6z M122.2,126.9c-0.3-0.3-0.9-0.3-1.2-0.3l0.2,0.1
										C121.4,126.8,121.8,126.8,122.2,126.9z M119.3,125.1c0.4,0,1.1-0.1,1.7,0.2c-0.4-0.4-1.4-0.4-1.9-0.4L119.3,125.1z
										 M117.1,123c0.5-0.1,1.4-0.3,2.2-0.1c-0.6-0.4-1.9-0.3-2.5-0.2L117.1,123z M101.7,108.4c0.8-0.2,2-0.6,2.6-0.5
										c-0.4-0.3-1.9,0-2.9,0.2L101.7,108.4z M43.2,57.1c0.1-0.7,0.1-2.2-0.6-3.5c1.1,0.9,1.1,3.2,1.1,3.9L43.2,57.1z M47.2,60.4
										c0.2-1,0.4-3.1-0.4-4.9c1.2,1.3,1.3,4.4,1.1,5.5L47.2,60.4z M52.2,64.6c0.1-1.2,0.3-4.1-0.4-6c1.3,1.3,1.4,5.3,1.2,6.6
										L52.2,64.6z M56.9,68.5c0.1-1.7,0.1-5.2-0.6-6.9c1.2,1.2,1.5,5.7,1.5,7.7L56.9,68.5z M61.8,72.6c0.3-2,0.8-5.7,0.1-7.3
										c1.1,1.1,1.1,5.7,1,8.2L61.8,72.6z M67,76.9c0.5-1.9,1.4-5.8,0.9-7.6c1,1.3,0.6,6,0.2,8.4L67,76.9z M71.1,80.3
										c0.6-2.1,1.8-6.4,1.2-8.2c1,1.3,0.3,6.4-0.3,9L71.1,80.3z M74.3,83c1-2.1,2.2-4.8,2.1-6.3c0.6,1.1-0.4,4.4-1.4,6.9L74.3,83
										z M78.2,86.2c0.9-2.1,1.8-4.8,1.6-6.2c0.6,1.1-0.1,4.2-0.9,6.8L78.2,86.2z M82.2,89.5c0.1-2,0-4.2-0.6-5.3
										c0.9,0.7,1.2,3.5,1.4,5.9L82.2,89.5z M38.8,51.6c0.6,0.5,0.8,1.8,0.8,2.4l-0.3-0.3C39.2,53.2,39.2,52.4,38.8,51.6z
										 M41.8,102.9c-0.3,0.3-1.1,1.1-1.8,1.1c0.7-0.2,1.2-0.8,1.5-1.1L41.8,102.9z M41.5,102.8c-0.4-0.3-1.1-1-1.8-1
										c0.6,0.2,1.2,0.7,1.4,1L41.5,102.8z M54.5,102.7c-0.7-0.8-2.9-3-4.3-3.1c1.4,0.7,2.9,2.3,3.5,3.1L54.5,102.7z M59.6,102.6
										c-0.8-0.9-3-3.2-4.5-3.4c1.5,0.7,3.1,2.5,3.9,3.4L59.6,102.6z M63.6,102.6c-1.2-1.4-3.3-3.8-4.5-3.9
										c1.2,0.6,2.8,2.6,3.7,3.9L63.6,102.6z M68.4,102.6c-1.2-1.4-3.3-4.1-4.4-4.2c1.2,0.6,2.8,3,3.7,4.2L68.4,102.6z M72,102.5
										c-1.2-1.5-3.3-4.8-4.5-4.9c1.2,0.5,2.8,3.6,3.7,4.9L72,102.5z M75,102.5c-0.9-1.6-2.3-4-3.1-4.3c0.8,0.6,1.9,2.9,2.5,4.3
										L75,102.5z M78.5,102.5c-0.9-1.6-2.3-4-3.1-4.3c0.8,0.6,1.8,2.8,2.5,4.3L78.5,102.5z M83.3,102.5c-1.1-1-3.2-2.8-4-2.8
										c0.9,0.3,2.3,1.9,3.2,2.8L83.3,102.5z M45.7,102.7c-0.4-0.4-1.6-1.6-2.7-1.6c1,0.4,1.8,1.2,2.2,1.6L45.7,102.7z
										 M46.3,100.3c1.3,0.6,2.3,1.8,2.8,2.4l0.7,0C49.3,102,47.6,100.4,46.3,100.3z M84.8,109.1c0.5-0.2,2.1,0.3,3.3,0.6
										l-0.3,0.2C86.9,109.6,85.4,109.1,84.8,109.1z M82.9,110.7c0.5-0.2,2.3,0.3,3.4,0.7l-0.3,0.3
										C85.1,111.3,83.5,110.7,82.9,110.7z M78.7,114.7c0.6-0.4,2.9-0.1,4.1,0.1l-0.3,0.3C81.5,114.8,79.5,114.4,78.7,114.7z
										 M84.5,113.2c-1-0.2-3.2-0.9-4-0.7c0.6-0.4,3.2,0.2,4.4,0.4L84.5,113.2z M76.9,116.6c0.6-0.4,2.7-0.2,4-0.1l-0.3,0.3
										C79.5,116.7,77.8,116.4,76.9,116.6z M75.4,118.6c0.8-0.6,3-0.5,3.8-0.3l-0.3,0.3C78.1,118.4,76.4,118.2,75.4,118.6z
										 M73.6,120.6c0.7-0.5,2.7-0.4,3.4-0.3l-0.3,0.3C76,120.5,74.5,120.3,73.6,120.6z M69,126.9c0.3-0.3,0.9-0.3,1.2-0.3
										l-0.2,0.1C69.8,126.8,69.4,126.8,69,126.9z M71.8,125.1c-0.4,0-1.1-0.1-1.7,0.2c0.4-0.4,1.4-0.4,1.9-0.4L71.8,125.1z
										 M74.1,123c-0.5-0.1-1.4-0.3-2.2-0.1c0.6-0.4,1.9-0.3,2.5-0.2L74.1,123z M89.4,108.4c-0.8-0.2-2-0.6-2.6-0.5
										c0.4-0.3,1.9,0,2.9,0.2L89.4,108.4z M107,107.2c-1.1-0.5-3.9-0.5-3.9-0.5s0.7-0.2,1.3-0.6c-0.9-0.1-7.5-1.9-7.5-2.8
										c0-0.3,0.2-0.5,0.5-0.5l55.1,0l-6.9,0.1c0.3,0.4,1.2,1.3,2.3,1.7c-1.1,0-2.4-1.3-2.8-1.7l-3.4,0c0.4,0.6,1.5,1.9,2.8,2.5
										c-1.4-0.1-3.1-1.8-3.5-2.5l-3.9,0c0.6,0.7,2.1,2.5,3.6,3.1c-1.4-0.1-3.7-2.3-4.4-3.1l-4.5,0c0.7,0.8,2.4,2.7,3.9,3.4
										c-1.6-0.2-3.8-2.5-4.6-3.4l-3.2,0c0.9,1.2,2.5,3.4,3.8,3.9c-1.2-0.1-3.3-2.5-4.5-3.9l-4.1,0c0.9,1.2,2.5,3.7,3.7,4.2
										c-1.2-0.1-3.3-2.8-4.4-4.2l-2.8,0c0.9,1.3,2.6,4.4,3.7,4.9c-1.1-0.1-3.3-3.4-4.5-4.9l-2.4,0c0.6,1.4,1.7,3.7,2.5,4.3
										c-0.8-0.3-2.3-2.7-3.1-4.3l-2.9,0c0.6,1.5,1.7,3.7,2.5,4.3c-0.8-0.3-2.2-2.7-3.1-4.3l-3.9,0c0.8,0.9,2.2,2.5,3.2,2.8
										c-0.9,0-3-1.8-4.1-2.8c-2.9,0.2-6.1,0.5-9,0.6c2.1,0,7.3,0.5,10.7,4.1c0,0,0.1-1.4-0.2-1.8c1.5,2,4,2.8,4,2.8
										s-0.3-0.9-0.2-1.8c1.1,1.7,4.3,2.8,4.3,2.8s-0.6-0.9-0.6-2c1.2,1.6,4.5,2.3,4.5,2.3s-0.7-0.5-0.9-2.2
										c2.1,2,5.9,2.4,5.9,2.4s-1-1-1.1-2.2c1.7,1.8,4.8,1.7,4.8,1.7s-0.6-0.8-0.7-2.2c1.4,1.4,5.2,1.6,5.2,1.6s-0.9-1.2-0.8-2.1
										c2.2,1.8,5.5,1.2,5.5,1.2s-0.8-0.5-0.9-1.5c1.9,1,5.2,0.7,5.2,0.7s-0.9-0.5-1.2-1.3c1.5,0.6,5,0.3,5,0.3s-0.7-0.3-1-1
										c2,0.4,4.6,0,4.6,0s-0.6-0.2-0.9-0.8c1.6,0.3,3.3-0.1,3.3-0.1s-1-0.7-0.5-0.9c0.7-0.3,3.1-0.5,7.9-0.1
										c-3.6-1.6-7.1-2.1-7.9-2c-0.6,0.1,0.5-0.9,0.5-0.9s-1.8-0.4-3.3-0.1c0.3-0.6,0.9-0.8,0.9-0.8s-2.6-0.4-4.6,0
										c0.3-0.7,1-1,1-1s-3.6-0.3-5,0.3c0.3-0.9,1.2-1.3,1.2-1.3s-3.3-0.4-5.2,0.7c0.1-1,0.9-1.5,0.9-1.5s-3.3-0.6-5.5,1.2
										c0-0.9,0.8-2.1,0.8-2.1s-3.8,0.2-5.2,1.6c0.1-1.4,0.7-2.2,0.7-2.2s-3.1-0.1-4.8,1.7c0.1-1.2,1.1-2.2,1.1-2.2
										s-3.8,0.4-5.9,2.4c0.2-1.7,0.9-2.2,0.9-2.2s-3.4,0.7-4.5,2.3c0-1.1,0.6-2,0.6-2s-3.2,1.1-4.3,2.8c-0.1-0.8,0.2-1.8,0.2-1.8
										s-2.4,0.8-4,2.8c0.3-0.4,0.2-1.8,0.2-1.8c-2.1,2.2-11.2,5.5-12.6,4.1c-0.3-0.3-0.2-0.7,0-0.9
										c18.1-15.7,36.9-31.1,55.3-46.6l0.2-0.2l0,0l2.8-2.3l-2.7,2.3c0.6,0.1,1.6,0.1,2.5-0.2c-0.7,0.6-2.1,0.5-2.8,0.5l-3.6,3.1
										c0.7,0.1,2.4,0.3,3.8-0.3c-1.1,0.9-3.6,0.8-4.3,0.7l-3.5,3c1,0.2,3.3,0.6,5.3,0.1c-1.5,1-5,0.8-6.1,0.5l-4.2,3.6
										c1.2,0.2,4.5,0.7,6.6,0.1c-1.6,1.1-6.1,0.8-7.3,0.5l-3.9,3.4c1.8,0.2,5.7,0.6,7.6,0.1c-1.4,1-6.5,0.9-8.6,0.7l-3.9,3.4
										c2.1,0.5,6.2,1.3,8.1,0.8c-1.4,0.9-6.5,0.5-9.2,0.2l-4,3.4c1.9,0.6,6.3,1.9,8.3,1.5c-1.5,0.8-6.8,0-9.3-0.6l-2.9,2.5
										c2.1,0.7,6.9,2.3,9,1.9c-1.5,0.9-7.2-0.4-9.9-1.1l-2.3,1.9c2.2,1.1,5.2,2.6,6.8,2.6c-1.3,0.5-4.9-0.8-7.5-2l-3.2,2.7
										c2.2,1,5.2,2.2,6.8,2.1c-1.2,0.5-4.8-0.5-7.5-1.5l-4.2,3.6c2.3,0.3,4.9,0.4,6.1,0c-0.9,0.8-4,0.7-6.8,0.6
										c-3.5,3.3-6.9,6.6-10.5,9.8c0,0,0,0,0,0c8-7.1,16.6-5.7,16.6-5.7s-1.3-1.6-2.9-2.1c4.9,0.5,7.7-0.5,7.7-0.5s-2-1-2.3-1.9
										c4.8,0.6,7.9-0.7,7.9-0.7s-2.5-0.9-3.5-2c4.2,0.9,8.3-1.1,8.3-1.1s-2.3-0.4-3.6-1.6c4.4,0.3,8.8-2.8,8.8-2.8
										s-2.5,0-3.5-1.1c3.5,0.2,7.4-3.2,7.4-3.2s-2.4,0.1-3.8-1.1c3.8-0.5,7.1-3.5,7.1-3.5s-1.5-0.1-2.6-1.1
										c3.6,0,7.2-3.3,7.2-3.3s-1.6-0.1-2.8-1.3c2.6-0.2,6-3.5,6-3.5s-1.6-0.1-2.8-0.8c2.8-0.8,6.2-4.2,6.2-4.2s-1.4,0.2-2.5,0
										c0,0,4-2.2,5.4-4c0,0-1.9,0.1-2.6-0.1c3-1.4,4.7-3.3,4.7-3.3s-1.1,0.2-1.9-0.2c-0.2-0.1,5.6-5.7,8.5-7.5
										c-6.2-0.1-10.9,5.8-11,5c-0.2-0.8,0-1.8,0-1.8s-2.2,1.3-4,4c-0.2-0.7,0.1-2.4,0.1-2.4c-2.1,1.1-4.8,4.6-4.8,4.6
										c-0.2-1,0.2-2.3,0.2-2.3s-3.9,2.8-5,5.3c-0.6-1.1-0.6-2.6-0.6-2.6s-3.9,2.8-4.3,5.2c-1.1-1.2-1.1-2.7-1.1-2.7
										s-3.8,3.1-4.2,6.4c-1-1.1-1-2.5-1-2.5s-3.5,2.7-4.4,6.2c-1.2-1.4-0.9-3.6-0.9-3.6s-4,3.3-4.1,6.6c-1.1-1-0.9-3.4-0.9-3.4
										s-3.7,3.7-3.8,7.8c-1.2-1.3-1.4-3.5-1.4-3.5s-2.6,3.6-2,7.6c-1.2-1-1.9-3.4-1.9-3.4s-1.6,2.8-1.4,7.2
										c-1-0.4-1.9-2.2-1.9-2.2s-1.3,2.5-1.2,7c-0.3-1.5-2-2.8-2-2.8s1.5,6.7-6.4,14.2c0.3-12.3,8.5-18.1,8.5-18.1
										s-1.2,0.6-3.7,0.4c3.5-2.6,4.5-6.7,4.5-6.7s-0.5,0.6-3.8,0.7c4.4-2.4,5.7-7.1,5.7-7.1s-1.1,1.1-4.8,1.3
										c5.6-2.6,6.2-7.8,6.2-7.8s-2.4,2-4.9,2.3c4.6-3.5,5.1-10.1,5.1-10.1s-1.3,2-4.3,2.4c3.3-2.8,3-8.8,3-8.8s-0.8,1.8-4.3,2.2
										c3.4-2.9,2.6-9.7,2.6-9.7s-0.5,1.7-3.3,2.5c3.2-4.3,2.7-10.5,2.7-10.5s-0.8,2-4.1,2.7c3.3-3.4,2.3-8.1,2.3-8.1
										s-0.9,1.8-3.5,2.5c2.5-2.8,2-9,2-9s-0.7,1.8-2.6,2.5c2-3.2,0.8-8.1,0.8-8.1s-0.5,2-2.7,3c1.9-1.9,1.2-6.8,1.2-6.8
										s-0.4,1.1-2,1.8C97,5.1,98,0.2,98,0.2s-5.1,4.7-4.4,12.6c-1.6-0.8-2-1.8-2-1.8s-0.6,4.9,1.2,6.8c-2.3-1-2.7-3-2.7-3
										s-1.2,4.8,0.8,8.1c-1.8-0.7-2.6-2.5-2.6-2.5s-0.4,6.2,2,9c-2.6-0.7-3.5-2.5-3.5-2.5s-1,4.7,2.3,8.1
										c-3.3-0.7-4.1-2.7-4.1-2.7s-0.5,6.2,2.7,10.5c-2.9-0.8-3.3-2.5-3.3-2.5s-0.8,6.8,2.6,9.7c-3.5-0.5-4.3-2.2-4.3-2.2
										s-0.3,6,3,8.8c-3-0.4-4.3-2.4-4.3-2.4S82,60.6,86.6,64c-2.5-0.3-4.9-2.3-4.9-2.3s0.6,5.2,6.2,7.8c-3.7-0.2-4.8-1.3-4.8-1.3
										s1.3,4.7,5.7,7.1c-3.3-0.1-3.8-0.7-3.8-0.7s1.1,4.1,4.5,6.7c-2.6,0.2-3.7-0.4-3.7-0.4s8.1,5.8,8.5,18.1
										c-7.8-7.4-6.4-14.2-6.4-14.2s-1.7,1.4-2,2.8c0.1-4.5-1.2-7-1.2-7s-0.9,1.9-1.9,2.2c0.2-4.4-1.4-7.2-1.4-7.2
										S80.8,78,79.6,79c0.6-4-2-7.6-2-7.6s-0.3,2.2-1.4,3.5c0-4.1-3.8-7.8-3.8-7.8s0.2,2.3-0.9,3.4c-0.1-3.3-4.1-6.6-4.1-6.6
										s0.3,2.2-0.9,3.6c-0.9-3.5-4.4-6.2-4.4-6.2s0.1,1.4-1,2.5c-0.4-3.3-4.2-6.4-4.2-6.4s0,1.5-1.1,2.7
										c-0.4-2.4-4.3-5.2-4.3-5.2s0,1.5-0.6,2.6c-1.1-2.5-5-5.3-5-5.3s0.3,1.3,0.2,2.3c0,0-2.7-3.5-4.8-4.6c0,0,0.3,1.7,0.1,2.4
										c-1.8-2.7-4-4-4-4s0.2,1,0,1.8c-0.2,0.8-4.8-5.1-11-5c2.9,1.8,8.7,7.4,8.5,7.5c-0.8,0.4-1.9,0.2-1.9,0.2s1.6,1.9,4.7,3.3
										c-0.7,0.3-2.6,0.1-2.6,0.1c1.4,1.8,5.4,4,5.4,4c-1.1,0.2-2.5,0-2.5,0s3.4,3.3,6.2,4.2c-1.2,0.7-2.8,0.8-2.8,0.8
										s3.3,3.4,6,3.5c-1.2,1.1-2.8,1.3-2.8,1.3s3.7,3.3,7.2,3.3c-1.1,1-2.6,1.1-2.6,1.1s3.2,3,7.1,3.5c-1.4,1.2-3.8,1.1-3.8,1.1
										s3.9,3.4,7.4,3.2c-1,1.1-3.5,1.1-3.5,1.1s4.3,3.1,8.8,2.8c-1.3,1.2-3.6,1.6-3.6,1.6s4.1,2.1,8.3,1.1c-1,1.2-3.5,2-3.5,2
										s3.1,1.2,7.9,0.7C74,92.4,72,93.4,72,93.4s2.8,1,7.7,0.5c-1.5,0.4-2.9,2.1-2.9,2.1s8.3-1.3,16.2,5.3
										c-3.5-3.1-6.7-6.3-10.1-9.4c-2.8,0.1-5.8,0.2-6.8-0.6c1.3,0.5,3.9,0.3,6.1,0l-4.2-3.6c-2.7,1-6.3,2-7.5,1.5
										c1.6,0.1,4.6-1.1,6.8-2.1l-3.2-2.7c-2.7,1.2-6.3,2.4-7.5,2c1.6,0,4.7-1.4,6.8-2.6l-2.3-1.9c-2.7,0.8-8.4,2-9.9,1.1
										c2.1,0.4,6.9-1.2,9-1.9l-2.9-2.5c-2.5,0.6-7.9,1.4-9.3,0.6c2,0.4,6.3-0.9,8.3-1.5l-4-3.4c-2.6,0.4-7.8,0.8-9.2-0.2
										c1.9,0.5,5.9-0.3,8.1-0.8l-3.9-3.4c-2.1,0.2-7.1,0.3-8.6-0.7c2,0.5,5.9,0.1,7.6-0.1l-3.9-3.4c-1.2,0.3-5.7,0.5-7.3-0.5
										c2.1,0.5,5.3,0.1,6.6-0.1l-4.2-3.6C46.4,61.8,43,62,41.4,61c2,0.5,4.3,0.1,5.3-0.1l-3.5-3c-0.7,0.1-3.2,0.2-4.3-0.7
										c1.4,0.5,3.1,0.4,3.8,0.3l-3.6-3.1c-0.7,0.1-2.1,0.1-2.8-0.5c0.9,0.3,1.9,0.3,2.5,0.2l-2.7-2.3l2.8,2.3l0,0l0.2,0.2
										c18.4,15.5,37.1,30.9,55.3,46.6c0.3,0.2,0.3,0.6,0,0.9c-1.4,1.4-10.5-1.9-12.6-4.1c0,0-0.1,1.4,0.2,1.8c-1.5-2-4-2.8-4-2.8
										s0.3,0.9,0.2,1.8c-1.1-1.7-4.3-2.8-4.3-2.8s0.6,0.9,0.6,2c-1.2-1.6-4.5-2.3-4.5-2.3s0.7,0.5,0.9,2.2
										c-2.1-2-5.9-2.4-5.9-2.4s1,1,1.1,2.2c-1.7-1.8-4.8-1.7-4.8-1.7s0.6,0.8,0.7,2.2c-1.4-1.4-5.2-1.6-5.2-1.6s0.9,1.2,0.8,2.1
										c-2.2-1.8-5.5-1.2-5.5-1.2s0.8,0.5,0.9,1.5c-1.9-1-5.2-0.7-5.2-0.7s0.9,0.5,1.2,1.3c-1.5-0.6-5-0.3-5-0.3s0.7,0.3,1,1
										c-2-0.4-4.6,0-4.6,0s0.6,0.2,0.9,0.8c-1.6-0.3-3.3,0.1-3.3,0.1s1,0.9,0.5,0.9c-0.7-0.1-4.3,0.3-7.9,2
										c4.8-0.4,7.1-0.2,7.9,0.1c0.5,0.2-0.5,0.9-0.5,0.9s1.8,0.4,3.3,0.1c-0.3,0.6-0.9,0.8-0.9,0.8s2.6,0.4,4.6,0
										c-0.3,0.7-1,1-1,1s3.6,0.3,5-0.3c-0.3,0.9-1.2,1.3-1.2,1.3s3.3,0.4,5.2-0.7c-0.1,1-0.9,1.5-0.9,1.5s3.3,0.6,5.5-1.2
										c0,0.9-0.8,2.1-0.8,2.1s3.8-0.2,5.2-1.6c-0.1,1.4-0.7,2.2-0.7,2.2s3.1,0.1,4.8-1.7c-0.1,1.2-1.1,2.2-1.1,2.2
										s3.8-0.4,5.9-2.4c-0.2,1.7-0.9,2.2-0.9,2.2s3.4-0.7,4.5-2.3c0,1.1-0.6,2-0.6,2s3.2-1.1,4.3-2.8c0.1,0.8-0.2,1.8-0.2,1.8
										s2.4-0.8,4-2.8c-0.3,0.4-0.2,1.8-0.2,1.8c3.4-3.7,8.6-4.1,10.7-4.1c-2.9-0.1-6.2-0.4-9-0.6c-1.1,1-3.2,2.8-4.1,2.8
										c0.9-0.3,2.4-1.9,3.2-2.8l-3.9,0c-0.9,1.6-2.3,4-3.1,4.3c0.8-0.6,1.9-2.8,2.5-4.3l-2.9,0c-0.9,1.6-2.3,4.1-3.1,4.3
										c0.8-0.6,1.9-2.9,2.5-4.3l-2.4,0c-1.2,1.5-3.3,4.8-4.5,4.9c1.2-0.6,2.9-3.6,3.7-4.9l-2.8,0c-1.2,1.4-3.3,4.1-4.4,4.2
										c1.2-0.6,2.9-3,3.7-4.2l-4.1,0c-1.2,1.4-3.3,3.8-4.5,3.9c1.2-0.6,2.9-2.7,3.8-3.9l-3.2,0c-0.7,0.9-3,3.3-4.6,3.4
										c1.6-0.7,3.2-2.6,3.9-3.4l-4.5,0c-0.6,0.8-2.9,3-4.4,3.1c1.4-0.7,3-2.4,3.6-3.1l-3.9,0c-0.5,0.6-2.2,2.3-3.6,2.5
										c1.3-0.6,2.4-1.9,2.8-2.5l-3.4,0c-0.4,0.4-1.6,1.7-2.8,1.7c1.1-0.4,1.9-1.3,2.3-1.7l-6.9-0.1l55.1,0c0.3,0,0.5,0.2,0.5,0.5
										c0,1.1-6.8,2.7-7.5,2.8c0.6,0.4,1.3,0.6,1.3,0.6s-2.8,0-3.9,0.5l1.3,0.6c0,0-2.8,0.1-3.2,0.6c0,0,1.1,0.4,1.3,0.5
										c0.2,0.2-2.1,0.3-3.7,1.1l1.5,0.5c0,0-3,0.5-3.9,1.4l1.6,0.5c0,0-2,0.4-3.2,1.5l1.3,0.5c0,0-2.2,1.1-2.8,1.8l1.1,0.5
										c0,0-2.1,0.7-3.1,1.7l1.2,0.3c0,0-2.1,1.1-2.7,1.9l1.3,0.4c0,0-2.2,1.2-2.7,2l1.2,0.2c0,0-1.5,0.8-2.7,2.2l1.1,0.2
										l-1.7,1.4l0.8,0.1c0,0-2.5,1.6-2.5,4.5c1.5-2,3.8-3.7,3.8-3.7l0.1,0.8l1.5-1.6l0.2,1.1c1.5-1.1,2.3-2.5,2.3-2.5l0.2,1.1
										c0.8-0.5,2.2-2.5,2.2-2.5l0.4,1.2c0.8-0.5,2-2.5,2-2.5l0.3,1.1c1.1-0.9,1.9-2.8,1.9-2.8l0.5,1c0.8-0.6,2-2.6,2-2.6l0.5,1.2
										c1.2-1.1,1.7-3,1.7-3l0.6,1.5c1-0.9,1.6-3.6,1.6-3.6l0.5,1.4c0.9-1.5,1.1-3.5,1.2-3.4c0.2,0.2,0.5,1.2,0.5,1.2
										c0.6-0.4,0.7-2.9,0.7-2.9l0.6,1.2c0.5-1,0.5-3.6,0.5-3.6s0.2,0.7,0.7,1.2c0.5-4.1,2.1-5.9,2.4-6.2l-4.2,3.8
										c0.2,0.9,0.5,2.3,0.3,2.7c0.1-0.5-0.3-1.7-0.6-2.4l-1.4,1.3c0.4,1,0.9,2.6,0.7,3c0-0.6-0.5-1.9-1-2.8l-1.5,1.4
										c0.4,1.1,1,2.7,0.8,3.2c0.1-0.6-0.6-2.1-1-2.9l-1.3,1.2c0.2,1.1,0.9,3.5,0.5,4c0.2-0.7-0.5-2.8-0.8-3.7l-1.7,1.6
										c0.2,1.2,0.6,3.2,0.1,3.8c0.3-0.8-0.2-2.6-0.4-3.5l-1.6,1.5c0.2,1.1,0.4,3.1-0.1,3.7c0.3-0.8-0.1-2.4-0.3-3.3l-1.4,1.3
										c0.1,0.7,0.3,2.8-0.3,3.5c0.3-1,0.2-2.5,0-3.2l-1.9,1.7c0.1,0.7,0.2,2.5-0.3,3.2c0.3-0.9,0.1-2.2,0-2.8l-2.3,2.1
										c0.1,0.5,0.2,1.7-0.2,2.3c0.2-0.7,0-1.6-0.1-2l-2.1,1.9c0,0.4,0,1.3-0.4,1.7c0.3-0.6,0.2-1.2,0.2-1.5l-1.6,1.5
										c0,0.3,0,0.9-0.3,1.2c0.2-0.3,0.2-0.7,0.2-1l-0.9,0.8c8.3-7.9,16.4-15.9,25-23.6l0,0l0,0c0.1-0.1,0.3-0.1,0.4,0
										c1.1,1.1-1.9,19.7-5.5,22.1c-5.2,3.4,17.7,3.4,12.5,0c-3.7-2.4-6.6-21-5.5-22.1c0.1-0.1,0.3-0.1,0.4,0l0,0h0l0,0
										c8.6,7.7,16.6,15.7,25,23.6l-0.9-0.8c0,0.3,0,0.7,0.2,1c-0.3-0.3-0.3-0.8-0.3-1.2l-1.6-1.5c0,0.4-0.1,1,0.2,1.5
										c-0.4-0.4-0.4-1.3-0.4-1.7l-2.1-1.9c-0.1,0.4-0.3,1.3-0.1,2c-0.4-0.6-0.3-1.8-0.2-2.3l-2.3-2.1c-0.1,0.6-0.3,2,0,2.8
										c-0.5-0.7-0.5-2.5-0.3-3.2l-1.9-1.7c-0.1,0.7-0.3,2.2,0,3.2c-0.6-0.7-0.5-2.7-0.3-3.5l-1.4-1.3c-0.2,0.9-0.5,2.6-0.3,3.3
										c-0.5-0.6-0.2-2.5-0.1-3.7l-1.6-1.5c-0.2,0.9-0.7,2.7-0.4,3.5c-0.5-0.5-0.1-2.6,0.1-3.8l-1.7-1.6c-0.2,0.9-1,3-0.8,3.7
										c-0.4-0.5,0.3-2.9,0.5-4l-1.3-1.2c-0.4,0.9-1.1,2.3-1,2.9c-0.2-0.5,0.3-2.1,0.8-3.2l-1.5-1.4c-0.4,0.9-1,2.2-1,2.8
										c-0.2-0.4,0.3-2,0.7-3l-1.4-1.3c-0.3,0.7-0.7,1.9-0.6,2.4c-0.3-0.4,0-1.8,0.3-2.7l-4.2-3.9c0.2,0.2,2,2,2.5,6.2
										c0.5-0.6,0.7-1.2,0.7-1.2s0,2.6,0.5,3.6l0.6-1.2c0,0,0.1,2.6,0.7,2.9c0,0,0.4-1.1,0.5-1.2c0.2-0.2,0.3,1.9,1.2,3.4l0.5-1.4
										c0,0,0.5,2.8,1.6,3.6l0.6-1.5c0,0,0.4,1.9,1.7,3l0.5-1.2c0,0,1.2,2,2,2.6l0.5-1c0,0,0.8,1.9,1.9,2.8l0.3-1.1
										c0,0,1.2,1.9,2,2.5l0.4-1.2c0,0,1.3,2,2.2,2.5l0.2-1.1c0,0,0.9,1.4,2.4,2.5l0.2-1.1l1.5,1.6l0.1-0.8c0,0,2.3,1.7,3.8,3.7
										c0-2.9-2.5-4.5-2.5-4.5l0.8-0.1l-1.7-1.4l1.1-0.2c-1.2-1.4-2.7-2.2-2.7-2.2l1.2-0.2c-0.5-0.8-2.7-2-2.7-2l1.3-0.4
										c-0.6-0.7-2.7-1.9-2.7-1.9l1.2-0.3c-1-1-3.1-1.7-3.1-1.7l1.1-0.5c-0.7-0.8-2.8-1.8-2.8-1.8l1.3-0.5
										c-1.2-1.1-3.2-1.5-3.2-1.5l1.6-0.5c-0.9-1-3.9-1.4-3.9-1.4l1.5-0.5c-1.6-0.9-3.8-1-3.7-1.1c0.2-0.2,1.3-0.5,1.3-0.5
										c-0.4-0.5-3.2-0.6-3.2-0.6L107,107.2z"/>
									<g id="Group_15_" transform="translate(-0.000000, 114.664653)">
										<g transform="translate(0.000000, 5.609817)">
											
												<linearGradient id="Path_6_" gradientUnits="userSpaceOnUse" x1="-199.2403" y1="344.7389" x2="-198.2403" y2="344.7389" gradientTransform="matrix(19.5172 0 0 -33.4154 3888.708 11536.5049)">
												<stop  offset="5.600000e-03" style="stop-color:#FBCA2A"/>
												<stop  offset="0.2528" style="stop-color:#FDF9CE"/>
												<stop  offset="0.2968" style="stop-color:#F6EBBC"/>
												<stop  offset="0.3841" style="stop-color:#E7D192"/>
												<stop  offset="0.5054" style="stop-color:#D1AC58"/>
												<stop  offset="0.5955" style="stop-color:#C2922E"/>
												<stop  offset="0.8246" style="stop-color:#E5C977"/>
												<stop  offset="0.8708" style="stop-color:#EED688"/>
												<stop  offset="1" style="stop-color:#FDF9CE"/>
											</linearGradient>
											<polygon id="Path_59_" class="st4" points="0.1,32.3 4.7,31.1 4.7,4 0.9,1.2 0.9,0.2 11.7,4.1 11.2,5.4 7.8,4.7 7.8,31 
												16.5,31.8 18.2,26.5 19.6,26.5 19.2,33.6 0.1,33.6 											"/>
											
												<linearGradient id="Shape_10_" gradientUnits="userSpaceOnUse" x1="-199.3035" y1="344.7767" x2="-198.3035" y2="344.7767" gradientTransform="matrix(19.6325 0 0 -33.5492 3912.8696 11583.8662)">
												<stop  offset="5.600000e-03" style="stop-color:#FBCA2A"/>
												<stop  offset="0.2528" style="stop-color:#FDF9CE"/>
												<stop  offset="0.2968" style="stop-color:#F6EBBC"/>
												<stop  offset="0.3841" style="stop-color:#E7D192"/>
												<stop  offset="0.5054" style="stop-color:#D1AC58"/>
												<stop  offset="0.5955" style="stop-color:#C2922E"/>
												<stop  offset="0.8246" style="stop-color:#E5C977"/>
												<stop  offset="0.8708" style="stop-color:#EED688"/>
												<stop  offset="1" style="stop-color:#FDF9CE"/>
											</linearGradient>
											<path id="Shape_84_" class="st5" d="M0.9,0.2l10.7,3.9l-0.4,1.3L7.8,4.7V31l8.7,0.8l1.8-5.3h1.4l-0.5,7.1H0.1v-1.3
												l4.6-1.2V4L0.9,1.2L0.9,0.2z M0.9,0.1L0.9,0.1L0.8,1.2l0,0l0,0L4.6,4v27.1l-4.6,1.2l0,0v0v1.3v0.1h0.1h19.1h0.1l0-0.1
												l0.5-7.1l0-0.1h-0.1h-1.4h0l0,0l-1.7,5.2L7.8,31V4.7l3.3,0.7l0,0l0,0l0.4-1.3l0-0.1l-0.1,0L0.9,0.1L0.9,0.1z"/>
										</g>
										<g transform="translate(42.910223, 20.644125)">
											
												<linearGradient id="Path_7_" gradientUnits="userSpaceOnUse" x1="-243.6388" y1="322.0284" x2="-242.6388" y2="322.0284" gradientTransform="matrix(22.6503 0 0 -18.4702 5518.6475 5957.2754)">
												<stop  offset="5.600000e-03" style="stop-color:#FBCA2A"/>
												<stop  offset="0.2528" style="stop-color:#FDF9CE"/>
												<stop  offset="0.2968" style="stop-color:#F6EBBC"/>
												<stop  offset="0.3841" style="stop-color:#E7D192"/>
												<stop  offset="0.5054" style="stop-color:#D1AC58"/>
												<stop  offset="0.5955" style="stop-color:#C2922E"/>
												<stop  offset="0.8246" style="stop-color:#E5C977"/>
												<stop  offset="0.8708" style="stop-color:#EED688"/>
												<stop  offset="1" style="stop-color:#FDF9CE"/>
											</linearGradient>
											<polygon id="Path_58_" class="st6" points="0.1,17.5 4.3,16.5 10.2,9.4 4.6,2.2 1.2,1.2 1.2,0.1 10.6,0.1 10.6,1.2 
												7.6,1.9 11.9,7.8 16,2.2 12.8,1.2 12.8,0.1 22.1,0.1 22.1,1.2 18.3,2.2 13,8.9 19,16.5 22.8,17.5 22.8,18.6 12.5,18.6 
												12.5,17.5 15.7,16.7 11.3,10.7 6.6,16.6 10.3,17.5 10.3,18.6 0.1,18.6 0.1,17.5 											"/>
											
												<linearGradient id="Shape_11_" gradientUnits="userSpaceOnUse" x1="-243.6843" y1="322.1321" x2="-242.6843" y2="322.1321" gradientTransform="matrix(22.7619 0 0 -18.5824 5546.7964 5995.3315)">
												<stop  offset="5.600000e-03" style="stop-color:#FBCA2A"/>
												<stop  offset="0.2528" style="stop-color:#FDF9CE"/>
												<stop  offset="0.2968" style="stop-color:#F6EBBC"/>
												<stop  offset="0.3841" style="stop-color:#E7D192"/>
												<stop  offset="0.5054" style="stop-color:#D1AC58"/>
												<stop  offset="0.5955" style="stop-color:#C2922E"/>
												<stop  offset="0.8246" style="stop-color:#E5C977"/>
												<stop  offset="0.8708" style="stop-color:#EED688"/>
												<stop  offset="1" style="stop-color:#FDF9CE"/>
											</linearGradient>
											<path id="Shape_83_" class="st7" d="M22.1,0.1v1.1l-3.8,1L13,8.9l6,7.6l3.8,1v1.1H12.5v-1.1l3.2-0.8l-4.4-6l-4.7,5.9
												l3.7,0.8v1.1H0.1v-1.1l4.2-1l5.9-7.1L4.6,2.2l-3.3-1V0.1h9.4v1.1l-3,0.7l4.3,5.9L16,2.2l-3.2-1V0.1H22.1z M22.2,0.1
												L22.2,0.1h-9.4h-0.1v0.1v1.1v0l0,0l3.2,1l-4,5.4L7.7,1.9l2.9-0.7l0,0v0V0.1V0.1h-0.1H1.2H1.2v0.1v1.1v0l0,0l3.3,1
												l5.6,7.2l-5.9,7l-4.2,1l0,0v0v1.1v0.1h0.1h10.1h0.1v-0.1v-1.1v0l0,0l-3.6-0.8l4.6-5.8l4.3,5.8l-3.2,0.8l0,0v0v1.1v0.1
												h0.1h10.3h0.1v-0.1v-1.1v0l0,0l-3.8-1l-6-7.5l5.3-6.7l3.8-1l0,0v0V0.1L22.2,0.1z"/>
										</g>
										<g transform="translate(74.422418, 20.419733)">
											
												<linearGradient id="Path_8_" gradientUnits="userSpaceOnUse" x1="-266.9431" y1="322.7168" x2="-265.9431" y2="322.7168" gradientTransform="matrix(12.0142 0 0 -18.9834 3207.2166 6135.9243)">
												<stop  offset="5.600000e-03" style="stop-color:#FBCA2A"/>
												<stop  offset="0.2528" style="stop-color:#FDF9CE"/>
												<stop  offset="0.2968" style="stop-color:#F6EBBC"/>
												<stop  offset="0.3841" style="stop-color:#E7D192"/>
												<stop  offset="0.5054" style="stop-color:#D1AC58"/>
												<stop  offset="0.5955" style="stop-color:#C2922E"/>
												<stop  offset="0.8246" style="stop-color:#E5C977"/>
												<stop  offset="0.8708" style="stop-color:#EED688"/>
												<stop  offset="1" style="stop-color:#FDF9CE"/>
											</linearGradient>
											<path id="Path_57_" class="st8" d="M0.1,17.9l0.4-5.4h1.1L2.5,16c0.4,1.1,1.9,1.4,3,1.4c2.3,0,4.2-1,4.2-3.1
												c0-2-2.5-3.3-4.9-4.7C2.7,8.4,0.8,7,0.8,5c0-2.8,2.5-4.8,5.7-4.8c2,0,3.8,0.4,5.2,1.1v4.7h-1.1L9.7,3
												C8.9,2.3,7.8,1.8,6.3,1.8c-1.8,0-3.3,0.7-3.3,2.4c0,1.6,2,2.8,4.1,4c2.4,1.4,4.9,2.9,4.9,5.1c0,3.5-2.9,5.9-6.8,5.9
												C4.1,19.2,1.4,19,0.1,17.9z"/>
											
												<linearGradient id="Shape_12_" gradientUnits="userSpaceOnUse" x1="-267.1074" y1="322.8149" x2="-266.1074" y2="322.8149" gradientTransform="matrix(12.1282 0 0 -19.0956 3239.5771 6174.0063)">
												<stop  offset="5.600000e-03" style="stop-color:#FBCA2A"/>
												<stop  offset="0.2528" style="stop-color:#FDF9CE"/>
												<stop  offset="0.2968" style="stop-color:#F6EBBC"/>
												<stop  offset="0.3841" style="stop-color:#E7D192"/>
												<stop  offset="0.5054" style="stop-color:#D1AC58"/>
												<stop  offset="0.5955" style="stop-color:#C2922E"/>
												<stop  offset="0.8246" style="stop-color:#E5C977"/>
												<stop  offset="0.8708" style="stop-color:#EED688"/>
												<stop  offset="1" style="stop-color:#FDF9CE"/>
											</linearGradient>
											<path id="Shape_82_" class="st9" d="M6.5,0.2c2,0,3.8,0.4,5.2,1.1v4.7h-1.1L9.7,3C8.9,2.3,7.8,1.8,6.3,1.8
												c-1.8,0-3.3,0.7-3.3,2.4c0,1.6,2,2.8,4.1,4c2.4,1.4,4.9,2.9,4.9,5.1c0,3.5-2.9,5.9-6.8,5.9c-1.2,0-4-0.1-5.2-1.2l0.4-5.4
												h1.1L2.5,16c0.4,1.1,1.9,1.4,3,1.4c2.3,0,4.2-1,4.2-3.1c0-2-2.5-3.3-4.9-4.7C2.7,8.4,0.8,7,0.8,5
												C0.8,2.2,3.3,0.2,6.5,0.2z M6.5,0.1c-1.6,0-3,0.5-4.1,1.4C1.3,2.4,0.7,3.6,0.7,5c0,2.1,2,3.5,4.1,4.7
												C5,9.9,5.3,10,5.6,10.2c2.1,1.3,4.1,2.4,4.1,4.2c0,2.2-2.2,3-4.2,3c-0.7,0-2.5-0.1-3-1.3l-0.8-3.5l0,0h0H0.5H0.5l0,0.1
												l-0.4,5.4l0,0l0,0c1.2,1.1,3.8,1.2,5.3,1.2c1.9,0,3.7-0.6,4.9-1.7c1.3-1.1,1.9-2.6,1.9-4.3c0-2.2-2.5-3.7-4.8-5.1
												L7.2,8.1C5.3,7,3.1,5.7,3.1,4.1c0-1.4,1.2-2.3,3.2-2.3c1.4,0,2.5,0.4,3.4,1.2L10.4,6l0,0h0h1.1h0.1V5.9V1.3v0l0,0
												C10.2,0.5,8.4,0.1,6.5,0.1z"/>
										</g>
										<g transform="translate(86.267428, 20.419733)">
											
												<linearGradient id="Path_9_" gradientUnits="userSpaceOnUse" x1="-289.5724" y1="322.7168" x2="-288.5724" y2="322.7168" gradientTransform="matrix(31.3665 0 0 -18.9834 9082.9238 6135.9253)">
												<stop  offset="5.600000e-03" style="stop-color:#FBCA2A"/>
												<stop  offset="0.2528" style="stop-color:#FDF9CE"/>
												<stop  offset="0.2968" style="stop-color:#F6EBBC"/>
												<stop  offset="0.3841" style="stop-color:#E7D192"/>
												<stop  offset="0.5054" style="stop-color:#D1AC58"/>
												<stop  offset="0.5955" style="stop-color:#C2922E"/>
												<stop  offset="0.8246" style="stop-color:#E5C977"/>
												<stop  offset="0.8708" style="stop-color:#EED688"/>
												<stop  offset="1" style="stop-color:#FDF9CE"/>
											</linearGradient>
											<polygon id="Path_56_" class="st10" points="14.6,18.9 7.4,5 5.8,16.8 9.7,17.7 9.7,18.8 0.1,18.8 0.1,17.7 3.8,16.8 
												6.5,0.5 7.8,0.2 15.8,15.5 23.5,0.2 24.8,0.5 27.7,16.8 31.4,17.7 31.4,18.8 21.1,18.8 21.1,17.7 24.9,16.8 22.9,4.7 
												16,19.2 											"/>
											
												<linearGradient id="Shape_13_" gradientUnits="userSpaceOnUse" x1="-289.5963" y1="322.8292" x2="-288.5963" y2="322.8292" gradientTransform="matrix(31.4787 0 0 -19.112 9116.1055 6179.5659)">
												<stop  offset="5.600000e-03" style="stop-color:#FBCA2A"/>
												<stop  offset="0.2528" style="stop-color:#FDF9CE"/>
												<stop  offset="0.2968" style="stop-color:#F6EBBC"/>
												<stop  offset="0.3841" style="stop-color:#E7D192"/>
												<stop  offset="0.5054" style="stop-color:#D1AC58"/>
												<stop  offset="0.5955" style="stop-color:#C2922E"/>
												<stop  offset="0.8246" style="stop-color:#E5C977"/>
												<stop  offset="0.8708" style="stop-color:#EED688"/>
												<stop  offset="1" style="stop-color:#FDF9CE"/>
											</linearGradient>
											<path id="Shape_81_" class="st11" d="M23.5,0.2l1.3,0.3l2.8,16.3l3.7,1v1.1H21.1v-1.1l3.7-1l-1.9-12l-7,14.4l-1.4-0.3
												L7.4,5L5.8,16.8l3.8,1v1.1H0.1v-1.1l3.7-1L6.5,0.5l1.3-0.3l8,15.3L23.5,0.2z M7.8,0.1L7.8,0.1L6.5,0.4l0,0l0,0L3.8,16.7
												l-3.7,1l0,0v0v1.1v0.1h0.1h9.6h0.1v-0.1v-1.1v0l0,0l-3.8-1L7.4,5.2l7.2,13.7l0,0l0,0l1.4,0.3l0,0l0,0l6.9-14.3l1.9,11.8
												l-3.7,1l0,0v0v1.1v0.1h0.1h10.3h0.1v-0.1v-1.1v0l0,0l-3.7-1L24.9,0.5l0,0l0,0l-1.3-0.3l0,0l0,0l-7.6,15.2L7.8,0.1
												L7.8,0.1z"/>
										</g>
										<g id="Shape_80_" transform="translate(115.991697, 20.419733)">
											
												<linearGradient id="SVGID_1_" gradientUnits="userSpaceOnUse" x1="-315.621" y1="322.717" x2="-314.621" y2="322.717" gradientTransform="matrix(20.2494 0 0 -18.9836 6391.3066 6136.001)">
												<stop  offset="5.600000e-03" style="stop-color:#FBCA2A"/>
												<stop  offset="0.2528" style="stop-color:#FDF9CE"/>
												<stop  offset="0.2968" style="stop-color:#F6EBBC"/>
												<stop  offset="0.3841" style="stop-color:#E7D192"/>
												<stop  offset="0.5054" style="stop-color:#D1AC58"/>
												<stop  offset="0.5955" style="stop-color:#C2922E"/>
												<stop  offset="0.8246" style="stop-color:#E5C977"/>
												<stop  offset="0.8708" style="stop-color:#EED688"/>
												<stop  offset="1" style="stop-color:#FDF9CE"/>
											</linearGradient>
											<path class="st12" d="M0.2,9.6c0-5.3,4.6-9.5,10.1-9.5s10.1,4.2,10.1,9.5s-4.6,9.5-10.1,9.5S0.2,14.9,0.2,9.6z
												 M17.5,10.8c0-4.4-2.9-8.9-7.9-8.9c-4.2,0-6.5,2.9-6.5,6.7c0,4.4,2.9,8.9,7.9,8.9C15.2,17.5,17.5,14.6,17.5,10.8z"/>
											
												<linearGradient id="SVGID_2_" gradientUnits="userSpaceOnUse" x1="-315.6779" y1="322.8153" x2="-314.6779" y2="322.8153" gradientTransform="matrix(20.3611 0 0 -19.096 6427.6797 6174.1587)">
												<stop  offset="5.600000e-03" style="stop-color:#FBCA2A"/>
												<stop  offset="0.2528" style="stop-color:#FDF9CE"/>
												<stop  offset="0.2968" style="stop-color:#F6EBBC"/>
												<stop  offset="0.3841" style="stop-color:#E7D192"/>
												<stop  offset="0.5054" style="stop-color:#D1AC58"/>
												<stop  offset="0.5955" style="stop-color:#C2922E"/>
												<stop  offset="0.8246" style="stop-color:#E5C977"/>
												<stop  offset="0.8708" style="stop-color:#EED688"/>
												<stop  offset="1" style="stop-color:#FDF9CE"/>
											</linearGradient>
											<path class="st13" d="M10.3,0.2c5.5,0,10.1,4.2,10.1,9.5s-4.6,9.5-10.1,9.5S0.2,14.9,0.2,9.6S4.8,0.2,10.3,0.2z M11,17.5
												c4.2,0,6.5-2.9,6.5-6.7c0-4.4-2.9-8.9-7.9-8.9c-4.2,0-6.5,2.9-6.5,6.7C3.1,13,6,17.5,11,17.5z M10.3,0.1
												c-2.7,0-5.2,1-7.2,2.8c-2,1.8-3,4.2-3,6.8c0,2.6,1.1,5,3,6.8c1.9,1.8,4.5,2.8,7.2,2.8c2.7,0,5.2-1,7.2-2.8
												c2-1.8,3-4.2,3-6.8c0-2.6-1.1-5-3-6.8C15.5,1.1,13,0.1,10.3,0.1z M11,17.4c-4.9,0-7.8-4.5-7.8-8.9c0-4,2.5-6.7,6.5-6.7
												c4.9,0,7.8,4.5,7.8,8.9C17.5,14.8,14.9,17.4,11,17.4z"/>
										</g>
										<g id="Shape_79_" transform="translate(134.541429, 11.219633)">
											
												<linearGradient id="SVGID_3_" gradientUnits="userSpaceOnUse" x1="-336.5342" y1="337.8546" x2="-335.5342" y2="337.8546" gradientTransform="matrix(26.2264 0 0 -29.458 8826.3604 9967.4775)">
												<stop  offset="5.600000e-03" style="stop-color:#FBCA2A"/>
												<stop  offset="0.2528" style="stop-color:#FDF9CE"/>
												<stop  offset="0.2968" style="stop-color:#F6EBBC"/>
												<stop  offset="0.3841" style="stop-color:#E7D192"/>
												<stop  offset="0.5054" style="stop-color:#D1AC58"/>
												<stop  offset="0.5955" style="stop-color:#C2922E"/>
												<stop  offset="0.8246" style="stop-color:#E5C977"/>
												<stop  offset="0.8708" style="stop-color:#EED688"/>
												<stop  offset="1" style="stop-color:#FDF9CE"/>
											</linearGradient>
											<path class="st14" d="M0.3,26.7l4.6-1.2V9.4L1.3,10V8.7l10.8-3.9v1.3L8,8.5v17l5,1.2V28H0.3V26.7z M18.2,24.7
												c-2.7-2.6-5.5-5.3-7.1-7.2H8.7L19.3,4.2L15,5V3.7l9.8-3.5l0.5,1.3l-3.9,2.4l-8.3,12l13.5,12.6l-0.4,1.2
												C23.5,28.5,20.2,26.7,18.2,24.7z"/>
											
												<linearGradient id="SVGID_4_" gradientUnits="userSpaceOnUse" x1="-336.5706" y1="337.9086" x2="-335.5706" y2="337.9086" gradientTransform="matrix(26.346 0 0 -29.6066 8867.5 10019.2666)">
												<stop  offset="5.600000e-03" style="stop-color:#FBCA2A"/>
												<stop  offset="0.2528" style="stop-color:#FDF9CE"/>
												<stop  offset="0.2968" style="stop-color:#F6EBBC"/>
												<stop  offset="0.3841" style="stop-color:#E7D192"/>
												<stop  offset="0.5054" style="stop-color:#D1AC58"/>
												<stop  offset="0.5955" style="stop-color:#C2922E"/>
												<stop  offset="0.8246" style="stop-color:#E5C977"/>
												<stop  offset="0.8708" style="stop-color:#EED688"/>
												<stop  offset="1" style="stop-color:#FDF9CE"/>
											</linearGradient>
											<path class="st15" d="M24.7,0.2l0.5,1.3l-3.9,2.4l-8.3,12l13.5,12.6l-0.4,1.2c-2.6-1.2-5.9-3-8-5
												c-2.7-2.6-5.5-5.3-7.1-7.2H8.7L19.3,4.2L15,5V3.7L24.7,0.2z M12.1,4.8v1.3L8,8.5v17l5,1.2V28H0.3v-1.3l4.6-1.2V9.4
												L1.3,10V8.7L12.1,4.8z M24.7,0.1L24.7,0.1l-9.8,3.5l0,0v0V5v0.1l0.1,0l4.2-0.8L8.6,17.4l-0.1,0.1h0.1H11
												c1.7,1.9,4.5,4.7,7.1,7.2c2.4,2.3,6.4,4.3,8,5l0.1,0l0-0.1l0.4-1.2l0,0l0,0L13,15.9L21.3,4l3.9-2.4l0,0l0,0L24.7,0.1
												L24.7,0.1z M12.2,4.7L12.2,4.7l-10.9,4l0,0v0V10v0.1l0.1,0l3.5-0.6v16l-4.6,1.2l0,0v0V28v0.1h0.1H13H13V28v-1.3v0l0,0
												l-5-1.2V8.6l4.1-2.4l0,0v0L12.2,4.7L12.2,4.7L12.2,4.7z"/>
										</g>
										<g transform="translate(162.924754, 0.000000)">
											
												<linearGradient id="Path_10_" gradientUnits="userSpaceOnUse" x1="-364.8241" y1="351.7857" x2="-363.8241" y2="351.7857" gradientTransform="matrix(25.9238 0 0 -39.3807 9457.7637 13873.4492)">
												<stop  offset="5.600000e-03" style="stop-color:#FBCA2A"/>
												<stop  offset="0.2528" style="stop-color:#FDF9CE"/>
												<stop  offset="0.2968" style="stop-color:#F6EBBC"/>
												<stop  offset="0.3841" style="stop-color:#E7D192"/>
												<stop  offset="0.5054" style="stop-color:#D1AC58"/>
												<stop  offset="0.5955" style="stop-color:#C2922E"/>
												<stop  offset="0.8246" style="stop-color:#E5C977"/>
												<stop  offset="0.8708" style="stop-color:#EED688"/>
												<stop  offset="1" style="stop-color:#FDF9CE"/>
											</linearGradient>
											<polygon id="Path_55_" class="st16" points="0.3,37.9 7.5,36.6 7.5,10.5 0.1,13.1 0.5,11.4 24,0.2 22.9,8.4 21.1,8.4 
												21.3,3.6 10.3,10.9 10.3,23 16.2,22.8 18.6,18.4 19.9,17.6 18.7,30.3 16.4,30.8 17,25.6 10.3,25.3 10.3,36.3 22,37.2 
												24.3,30.4 26.1,30.4 25.5,39.6 0.3,39.6 											"/>
											
												<linearGradient id="Shape_14_" gradientUnits="userSpaceOnUse" x1="-364.8667" y1="351.8165" x2="-363.8667" y2="351.8165" gradientTransform="matrix(26.0608 0 0 -39.5317 9508.7764 13927.7715)">
												<stop  offset="5.600000e-03" style="stop-color:#FBCA2A"/>
												<stop  offset="0.2528" style="stop-color:#FDF9CE"/>
												<stop  offset="0.2968" style="stop-color:#F6EBBC"/>
												<stop  offset="0.3841" style="stop-color:#E7D192"/>
												<stop  offset="0.5054" style="stop-color:#D1AC58"/>
												<stop  offset="0.5955" style="stop-color:#C2922E"/>
												<stop  offset="0.8246" style="stop-color:#E5C977"/>
												<stop  offset="0.8708" style="stop-color:#EED688"/>
												<stop  offset="1" style="stop-color:#FDF9CE"/>
											</linearGradient>
											<path id="Shape_78_" class="st17" d="M24,0.2l-1.1,8.2h-1.8l0.2-4.8l-11,7.3V23l6-0.2l2.3-4.4l1.3-0.8l-1.1,12.7
												l-2.3,0.5l0.6-5.2l-6.7-0.2v10.9l11.7,1l2.3-6.8h1.8l-0.6,9.2H0.3v-1.7l7.1-1.2V10.5l-7.3,2.6l0.4-1.7L24,0.2z M24,0.1
												L24,0.1L0.5,11.4l0,0l0,0l-0.4,1.7l0,0.1l0.1,0l7.2-2.6v26l-7.1,1.2l0,0v0v1.7v0.1h0.1h25.1h0.1l0-0.1l0.6-9.2l0-0.1
												h-0.1h-1.8h0l0,0L22,37.2l-11.6-1V25.4l6.6,0.2l-0.6,5.1l0,0.1l0.1,0l2.3-0.5l0,0l0,0l1.1-12.7l0-0.1l-0.1,0.1l-1.3,0.8
												l0,0l0,0l-2.3,4.4L10.3,23V11l10.9-7.2L21,8.4l0,0.1h0.1h1.8h0l0,0L24,0.2L24,0.1z"/>
										</g>
										<g transform="translate(16.761806, 11.444026)">
											
												<linearGradient id="Path_11_" gradientUnits="userSpaceOnUse" x1="-218.4933" y1="337.088" x2="-217.4933" y2="337.088" gradientTransform="matrix(25.3977 0 0 -28.0448 5549.4336 9467.6914)">
												<stop  offset="5.600000e-03" style="stop-color:#FBCA2A"/>
												<stop  offset="0.2528" style="stop-color:#FDF9CE"/>
												<stop  offset="0.2968" style="stop-color:#F6EBBC"/>
												<stop  offset="0.3841" style="stop-color:#E7D192"/>
												<stop  offset="0.5054" style="stop-color:#D1AC58"/>
												<stop  offset="0.5955" style="stop-color:#C2922E"/>
												<stop  offset="0.8246" style="stop-color:#E5C977"/>
												<stop  offset="0.8708" style="stop-color:#EED688"/>
												<stop  offset="1" style="stop-color:#FDF9CE"/>
											</linearGradient>
											<path id="Path_54_" class="st18" d="M4.8,20.8V4.6L0.2,1.4V0.1l12,4.2v1.3L7.9,5.2v14.8c0,3.7,3,6,6.8,6
												c2.9,0,5.3-1.7,5.3-5.6v-11l-4-2.6V5.8l9.6,3.5v1.3l-2.9-0.3v9.9c0,5.7-4.3,7.9-9.4,7.9C8.6,28.1,4.8,26,4.8,20.8z"/>
											
												<linearGradient id="Shape_15_" gradientUnits="userSpaceOnUse" x1="-218.5296" y1="337.1425" x2="-217.5296" y2="337.1425" gradientTransform="matrix(25.5095 0 0 -28.1806 5574.7173 9514.9756)">
												<stop  offset="5.600000e-03" style="stop-color:#FBCA2A"/>
												<stop  offset="0.2528" style="stop-color:#FDF9CE"/>
												<stop  offset="0.2968" style="stop-color:#F6EBBC"/>
												<stop  offset="0.3841" style="stop-color:#E7D192"/>
												<stop  offset="0.5054" style="stop-color:#D1AC58"/>
												<stop  offset="0.5955" style="stop-color:#C2922E"/>
												<stop  offset="0.8246" style="stop-color:#E5C977"/>
												<stop  offset="0.8708" style="stop-color:#EED688"/>
												<stop  offset="1" style="stop-color:#FDF9CE"/>
											</linearGradient>
											<path id="Shape_77_" class="st19" d="M0.2,0.1l12,4.2v1.3L7.9,5.2v14.8c0,3.7,3,6,6.8,6c2.9,0,5.3-1.7,5.3-5.6v-11
												l-4-2.6V5.8l9.6,3.5v1.3l-2.9-0.3v9.9c0,5.7-4.3,7.9-9.4,7.9c-4.7,0-8.5-2.1-8.5-7.4V4.6L0.2,1.4V0.1z M0.1,0L0.1,0v1.4
												v0l0,0l4.6,3.2v16.1c0,2.5,0.9,4.4,2.5,5.7c1.5,1.1,3.6,1.7,6.1,1.7c2.7,0,5-0.6,6.6-1.8c1.9-1.4,2.8-3.5,2.8-6.1v-9.8
												l2.8,0.3l0.1,0v-0.1V9.3v0l0,0L16,5.7l-0.1,0v0.1v1.1v0l0,0l3.9,2.6v10.9c0,3.5-2,5.5-5.2,5.5c-3.9,0-6.7-2.5-6.7-6V5.3
												l4.2,0.4l0.1,0V5.6V4.3v0l0,0L0.1,0L0.1,0z"/>
										</g>
									</g>
								</g>
							</g>
						</g>
					</g>
				</g>
			</g>
		</g>
	</g>
</g>
</svg>
